{"glyphs":{"0":{"ha":785,"x_min":56,"x_max":731,"o":"m 358 868 l 255 833 l 186 730 l 148 534 l 148 418 l 186 224 l 255 119 l 358 84 l 426 84 l 530 119 l 600 224 l 639 418 l 639 534 l 600 730 l 530 833 l 426 868 l 358 868 m 199 910 q 343 960 210 914 l 435 960 q 509 937 463 954 q 575 916 556 921 l 589 909 q 640 832 608 882 q 685 765 673 783 l 731 544 l 730 407 l 685 189 l 597 54 l 589 45 q 444 -5 566 35 l 350 -7 q 277 16 323 0 q 212 38 232 33 l 197 45 q 145 119 176 69 q 100 187 114 168 l 56 408 l 56 545 l 100 765 l 189 901 l 199 910 z "},"1":{"ha":411,"x_min":56,"x_max":355,"o":"m 206 747 l 119 705 l 102 701 l 84 704 l 69 713 l 60 730 l 56 747 l 60 765 l 71 783 l 157 826 l 283 951 l 294 958 l 308 960 l 323 959 l 335 952 l 343 945 l 350 936 l 355 916 l 355 38 l 353 22 l 345 8 l 331 -1 l 316 -7 l 297 -5 l 281 3 l 270 18 l 264 37 l 264 803 l 217 755 l 206 747 z "},"2":{"ha":785,"x_min":56,"x_max":731,"o":"m 731 35 q 686 -7 726 0 l 100 -7 l 80 -1 l 64 12 l 57 24 l 56 41 l 58 54 l 65 68 l 481 484 l 562 604 l 597 675 l 597 736 l 564 803 l 532 834 l 465 868 l 321 868 l 254 834 l 222 803 l 189 736 l 187 693 l 180 680 l 170 669 l 153 661 l 134 661 l 118 667 l 106 680 l 100 690 l 98 701 l 99 758 l 148 857 l 201 910 l 297 959 l 308 960 l 476 960 l 490 959 l 585 910 l 639 857 l 685 766 l 689 749 l 688 652 l 642 559 l 552 425 l 213 84 l 693 84 l 705 79 l 716 72 l 726 61 l 730 49 l 731 35 z "},"3":{"ha":785,"x_min":56,"x_max":731,"o":"m 552 868 l 179 868 l 163 873 l 149 886 l 140 902 l 138 920 l 144 935 l 155 947 l 167 956 l 183 960 l 644 960 l 665 954 l 681 940 l 686 929 l 689 916 l 688 902 l 682 888 l 484 627 l 521 627 l 533 624 l 624 579 l 633 572 l 677 529 l 685 515 l 730 381 l 731 289 q 707 208 724 259 q 685 144 689 156 l 677 132 l 583 42 l 445 -5 l 302 -7 l 165 39 l 153 47 l 106 96 l 58 189 l 56 208 l 60 224 l 69 239 l 84 248 l 98 251 l 111 250 l 123 245 l 134 237 q 180 151 151 210 l 210 121 l 316 84 l 427 84 l 534 121 l 602 189 l 639 296 l 639 365 l 602 472 l 574 502 l 507 534 l 392 534 l 374 538 l 363 544 l 355 555 l 350 566 l 347 576 l 349 593 l 355 606 l 552 868 z "},"4":{"ha":827,"x_min":56,"x_max":772,"o":"m 472 377 l 472 770 l 190 377 l 472 377 m 94 285 q 56 326 60 294 l 56 336 l 58 347 q 284 665 137 460 q 481 943 431 871 l 496 954 l 513 960 l 530 959 l 547 949 l 559 935 l 564 916 l 564 377 l 736 374 l 750 369 l 762 359 l 769 346 l 772 331 l 769 315 l 762 301 l 750 292 l 736 286 l 564 285 l 564 38 l 562 22 l 553 9 l 544 1 l 533 -4 l 521 -7 q 472 39 473 -3 l 472 285 l 94 285 z "},"5":{"ha":784,"x_min":56,"x_max":730,"o":"m 184 960 l 604 960 l 616 958 l 628 951 l 636 943 l 643 932 l 647 911 l 642 891 l 628 876 l 609 868 l 225 868 l 199 633 l 304 669 l 445 667 l 583 620 l 682 522 l 730 381 l 730 279 l 682 138 l 591 47 l 578 39 l 442 -7 l 309 -7 l 297 -5 l 170 38 l 156 45 l 104 98 l 58 187 l 56 199 l 56 213 l 60 225 l 66 236 l 76 244 l 88 250 l 102 251 l 114 250 l 127 243 l 137 233 l 180 151 l 210 121 l 316 84 l 426 84 l 534 121 l 602 189 l 639 296 l 639 365 l 602 472 l 534 540 l 426 576 l 316 576 l 210 540 l 172 505 l 156 495 l 141 494 l 127 496 l 115 503 l 104 513 l 99 528 l 98 543 l 138 922 l 144 937 l 156 948 l 170 958 l 184 960 z "},"6":{"ha":743,"x_min":56,"x_max":689,"o":"m 149 330 l 184 187 l 251 121 l 358 84 l 387 84 l 494 121 l 562 189 l 597 296 l 597 324 l 562 430 l 494 499 l 387 534 l 358 534 l 251 499 l 183 430 l 149 330 m 56 331 l 56 544 l 99 757 l 104 772 l 193 903 l 212 916 l 338 958 l 351 960 l 445 959 l 575 916 l 590 906 l 601 892 l 643 808 l 647 795 l 646 777 l 639 762 l 627 751 l 612 745 l 600 743 l 587 746 l 576 750 l 568 758 l 562 768 l 528 834 l 427 868 l 358 868 l 255 833 l 186 730 l 148 534 l 148 525 l 194 572 l 206 579 l 346 627 l 404 625 l 533 582 l 547 575 l 640 479 l 688 339 l 689 288 q 666 215 682 260 q 644 149 650 170 l 635 132 l 541 42 l 403 -5 l 342 -5 l 213 38 l 194 47 l 110 132 l 103 142 l 56 331 z "},"7":{"ha":785,"x_min":56,"x_max":731,"o":"m 227 58 l 613 868 l 96 868 l 75 876 l 61 892 l 56 914 l 61 935 l 68 945 l 77 952 l 90 959 l 100 960 l 685 960 l 707 954 l 719 943 l 728 929 l 731 913 l 727 895 l 308 16 l 297 3 l 282 -4 l 264 -7 l 247 -3 l 233 8 l 225 23 l 222 42 l 227 58 z "},"8":{"ha":785,"x_min":56,"x_max":731,"o":"m 422 495 l 393 502 l 363 495 l 251 457 l 180 387 l 148 320 l 148 217 l 180 151 l 210 121 l 316 84 l 469 84 l 576 121 l 605 151 l 639 217 l 639 320 l 605 387 l 534 457 l 422 495 m 285 624 l 393 597 l 502 624 l 567 656 l 597 716 l 597 777 l 570 834 l 469 868 l 316 868 l 217 834 l 189 777 l 189 716 l 220 656 l 285 624 m 157 909 q 239 939 184 921 q 302 960 294 958 l 479 960 q 618 916 491 958 l 632 906 l 642 892 l 688 800 l 689 705 l 688 694 l 643 601 l 636 591 l 624 582 l 555 547 l 578 538 l 589 532 l 677 446 q 727 350 694 415 l 730 340 l 731 205 l 727 186 l 682 98 l 633 47 l 623 41 l 483 -7 l 304 -7 l 163 41 l 153 47 l 111 91 l 103 102 l 60 186 l 57 197 l 56 331 l 57 343 l 109 444 l 197 532 l 209 538 l 232 547 l 163 582 l 151 591 l 102 685 l 98 697 l 98 791 l 100 804 l 146 895 l 157 909 z "},"9":{"ha":743,"x_min":56,"x_max":689,"o":"m 562 522 l 595 624 l 560 765 l 494 831 l 387 868 l 358 868 l 251 831 l 183 764 l 148 656 l 148 629 l 183 522 l 251 454 l 358 418 l 387 418 l 494 454 l 562 522 m 688 633 l 689 410 l 646 195 l 640 180 l 552 50 l 533 38 l 407 -4 l 393 -7 l 300 -5 l 170 38 l 155 47 l 142 60 l 102 144 l 98 159 l 99 175 l 106 190 l 118 201 l 133 209 l 146 210 l 157 208 l 168 203 l 176 194 l 183 184 l 217 118 l 316 84 l 387 84 l 488 119 l 559 224 l 597 418 l 597 427 l 551 381 l 538 373 l 399 327 l 340 328 l 212 370 l 197 378 l 104 473 l 57 614 l 56 665 q 79 738 62 692 q 100 804 95 784 l 110 819 l 194 906 l 208 914 l 342 959 l 395 960 q 471 936 423 954 q 541 911 519 918 l 636 818 l 646 802 l 688 633 z "}," ":{"ha":347,"x_min":0,"x_max":0,"o":""},"!":{"ha":202,"x_min":56,"x_max":148,"o":"m 57 24 l 56 39 l 57 90 l 61 103 l 71 114 l 85 123 l 104 126 l 121 122 l 134 111 l 142 102 l 148 88 l 148 38 l 142 19 l 132 5 l 122 -3 l 110 -7 l 96 -7 l 83 -3 l 72 4 l 62 14 l 57 24 m 56 331 l 56 918 l 61 935 l 72 948 l 88 958 l 106 960 l 121 956 l 133 945 l 142 933 l 148 917 l 148 327 l 141 309 l 132 296 l 117 288 l 99 285 l 81 289 l 68 298 l 58 313 l 56 331 z "},"\"":{"ha":369,"x_min":56,"x_max":313,"o":"m 222 623 l 222 921 l 229 937 l 241 951 l 256 959 l 275 960 l 289 954 l 301 945 l 309 933 l 313 920 l 313 616 l 308 600 l 297 586 l 282 578 l 264 576 l 247 581 l 235 590 l 225 605 l 222 623 m 56 623 l 56 921 l 62 937 l 75 951 l 91 959 l 109 960 l 122 954 l 134 945 l 142 933 l 148 920 l 148 616 l 140 598 l 129 586 l 115 578 l 98 576 l 80 581 l 68 590 l 58 605 l 56 623 z "},"#":{"ha":826,"x_min":56,"x_max":770,"o":"m 316 251 l 472 251 l 511 410 l 355 410 l 316 251 m 99 -241 l 198 160 l 100 160 l 84 163 l 71 172 l 60 184 l 56 199 l 57 217 l 61 228 l 69 239 l 79 245 l 92 250 l 222 251 l 262 410 l 141 410 l 125 414 l 110 423 l 100 441 l 98 458 l 102 476 l 117 494 l 136 502 l 285 502 l 391 928 l 397 940 l 407 949 l 418 958 l 431 960 l 452 958 l 468 944 l 477 928 l 480 909 l 380 502 l 534 502 l 642 929 l 651 945 l 667 958 l 686 960 l 705 954 l 716 945 l 726 935 l 730 921 l 730 907 l 629 502 l 728 502 l 742 499 l 755 490 l 765 477 l 770 464 l 770 448 l 766 435 l 758 423 l 749 415 l 736 411 l 605 410 l 567 251 l 686 251 l 701 247 l 716 237 l 728 221 l 731 203 l 726 184 l 711 168 l 690 160 l 543 160 l 437 -267 l 430 -279 l 420 -289 l 408 -296 l 396 -298 l 374 -296 l 359 -283 l 349 -267 l 347 -247 l 449 160 l 293 160 l 184 -273 l 175 -286 l 161 -294 l 144 -298 l 127 -296 l 114 -288 l 103 -275 l 98 -258 l 99 -241 z "},"$":{"ha":785,"x_min":56,"x_max":731,"o":"m 522 103 l 576 121 l 639 183 l 639 278 l 605 345 l 574 377 l 522 403 l 522 103 m 264 850 l 210 831 l 148 769 l 148 716 l 180 650 l 213 618 l 264 591 l 264 850 m 355 559 l 430 533 l 430 868 l 355 868 l 355 559 m 355 84 l 430 84 l 430 437 l 355 461 l 355 84 m 731 789 q 686 743 727 750 l 674 745 l 663 749 q 615 793 644 762 q 576 831 586 823 l 522 850 l 522 503 q 580 476 544 495 q 627 452 616 457 l 682 396 l 727 308 l 730 298 l 730 156 l 727 142 q 696 110 712 126 q 659 74 680 94 q 628 43 639 54 l 617 38 l 522 5 l 522 -133 l 515 -153 l 500 -167 l 481 -174 l 463 -171 l 446 -161 l 435 -146 l 430 -129 l 430 -7 l 355 -7 l 355 -133 l 349 -152 l 336 -165 l 326 -171 l 313 -174 l 300 -172 l 289 -168 l 279 -161 l 271 -152 l 266 -140 l 264 -127 l 264 5 l 170 38 l 159 43 l 68 133 l 61 142 l 57 155 l 56 165 q 100 210 60 206 l 113 209 l 122 205 q 171 160 141 191 q 210 121 201 129 l 264 103 l 264 491 q 206 518 243 499 q 160 541 170 537 l 106 597 l 57 694 l 56 798 l 60 810 q 159 910 76 827 l 170 916 l 264 947 l 264 1086 l 270 1103 l 282 1116 l 300 1124 l 321 1124 l 339 1116 l 351 1100 l 355 1082 l 355 960 l 430 960 l 430 1082 l 433 1095 l 441 1108 l 453 1119 l 468 1124 l 484 1126 l 498 1120 l 509 1114 l 517 1103 l 521 1090 l 522 947 l 617 916 l 628 910 l 718 821 l 726 811 l 730 800 l 731 789 z "},"%":{"ha":952,"x_min":56,"x_max":898,"o":"m 696 285 l 636 254 l 605 194 l 605 141 l 662 84 l 715 84 l 774 115 l 806 175 l 806 228 l 749 285 l 696 285 m 581 331 l 675 374 l 776 377 l 789 372 q 842 321 810 354 q 884 278 875 288 l 892 266 l 898 251 l 895 156 l 892 144 l 850 60 l 841 47 l 830 39 l 739 -5 l 728 -7 l 636 -7 l 624 -3 l 613 4 l 526 92 l 518 104 l 514 118 l 515 217 l 562 312 l 571 323 l 581 331 m 290 868 l 237 868 l 178 837 l 148 777 l 148 726 l 205 669 l 256 669 l 316 699 l 347 758 l 347 811 l 290 868 m 309 960 l 327 958 l 339 948 l 426 863 l 433 853 l 439 831 l 439 746 l 437 732 l 392 640 l 384 631 q 351 612 369 621 q 312 593 334 604 q 278 578 290 583 l 183 576 l 168 579 l 153 589 l 68 674 l 60 685 l 56 704 l 56 791 l 58 804 l 103 894 l 110 905 q 216 959 121 911 l 309 960 m 66 68 l 818 945 l 831 956 l 850 960 l 868 958 l 883 947 l 892 933 l 898 917 l 894 901 l 887 884 l 134 7 l 121 -3 l 103 -7 l 85 -4 l 71 4 l 60 19 l 56 37 l 58 54 l 66 68 z "},"&":{"ha":1035,"x_min":56,"x_max":981,"o":"m 370 468 l 213 378 l 180 345 l 148 278 l 148 217 l 180 151 l 213 118 l 279 84 l 423 84 l 490 118 l 566 193 l 370 468 m 400 590 l 449 617 l 480 650 l 514 716 l 514 777 l 483 837 l 435 863 l 387 837 l 355 777 l 355 712 l 393 601 l 400 590 m 321 544 l 308 566 l 266 696 l 266 800 l 311 892 l 320 906 l 331 914 l 415 956 l 426 959 l 439 960 l 453 956 l 538 913 l 548 907 q 580 848 560 888 q 604 802 600 808 l 605 789 l 604 696 l 559 601 l 552 590 l 506 545 l 452 514 l 621 275 l 644 309 l 727 515 l 773 609 l 821 655 l 836 665 l 850 669 l 898 669 l 910 665 l 921 658 l 968 612 l 978 597 l 981 583 l 981 537 l 975 518 l 966 506 l 952 498 l 937 494 l 922 495 l 907 503 l 895 515 l 888 532 l 888 562 l 873 576 l 871 576 l 848 553 l 810 477 l 727 270 l 678 194 l 754 118 l 821 84 l 873 84 l 888 100 l 890 133 l 894 144 l 903 156 l 914 163 l 928 168 l 941 168 l 956 164 l 972 149 l 981 129 l 981 75 l 978 64 l 971 53 l 924 5 l 909 -4 l 894 -7 l 802 -5 l 791 -3 l 700 43 l 623 119 l 544 43 l 454 -3 l 442 -7 l 259 -7 q 205 20 239 1 q 157 45 172 38 l 106 98 l 58 189 l 56 205 l 56 290 l 58 302 l 106 397 l 155 448 l 321 544 z "},"'":{"ha":202,"x_min":56,"x_max":148,"o":"m 56 623 l 56 921 l 62 937 l 75 951 l 91 959 l 109 960 l 122 954 l 134 945 l 142 933 l 148 920 l 148 616 l 140 598 l 129 586 l 115 578 l 98 576 l 80 581 l 68 590 l 58 605 l 56 623 z "},"(":{"ha":494,"x_min":56,"x_max":439,"o":"m 278 1029 l 361 1114 l 374 1122 l 392 1126 l 410 1123 l 425 1114 l 435 1099 l 439 1078 l 431 1057 l 346 968 l 266 849 l 186 690 l 148 494 l 148 335 l 186 137 l 266 -20 l 346 -140 l 426 -221 l 437 -236 l 439 -256 l 431 -277 l 416 -292 l 397 -298 l 380 -297 l 363 -289 l 275 -199 l 186 -66 l 100 109 l 56 327 l 56 503 l 99 719 l 186 895 l 278 1029 z "},")":{"ha":494,"x_min":56,"x_max":439,"o":"m 149 968 l 68 1048 l 60 1062 l 56 1080 l 58 1097 l 68 1112 l 83 1122 l 95 1126 l 106 1126 l 117 1123 l 127 1118 l 221 1025 l 308 895 l 393 724 l 439 503 l 439 328 l 395 109 l 308 -66 l 220 -199 l 130 -288 l 117 -296 l 100 -298 l 79 -293 l 62 -278 l 56 -256 l 58 -236 l 68 -221 l 149 -140 l 228 -20 l 308 137 l 347 335 l 347 494 l 308 690 l 228 849 l 149 968 z "},"*":{"ha":618,"x_min":56,"x_max":564,"o":"m 264 164 l 264 334 l 115 245 l 100 243 l 84 245 l 71 254 l 61 267 l 56 281 l 56 296 l 61 311 l 71 323 l 221 414 l 72 503 l 65 511 l 60 521 l 56 543 l 61 562 l 73 576 l 92 583 l 111 583 l 123 579 l 264 495 l 266 675 l 273 690 l 282 701 l 297 708 l 313 709 l 328 705 l 340 697 l 350 686 l 354 673 l 355 495 l 503 582 l 518 585 l 533 582 l 547 574 l 557 563 l 563 547 l 564 532 l 559 518 l 548 506 l 399 414 l 545 326 l 560 307 l 563 296 l 564 285 l 557 266 l 544 251 l 526 244 l 507 244 l 495 248 l 355 334 l 355 163 l 350 141 l 340 130 l 328 122 l 312 118 l 298 119 l 285 125 l 274 136 l 267 149 l 264 164 z "},"+":{"ha":703,"x_min":56,"x_max":647,"o":"m 305 164 l 305 368 l 92 369 l 76 374 l 64 388 l 57 401 l 56 418 l 60 433 l 68 446 l 79 454 l 95 460 l 305 460 l 307 674 l 312 689 l 324 700 l 339 708 l 355 709 l 369 705 l 382 697 l 392 685 l 396 671 l 397 460 l 612 458 l 627 453 l 637 442 l 646 426 l 647 410 l 643 395 l 635 382 l 623 373 l 609 368 l 397 368 l 397 163 l 393 144 l 385 132 l 372 123 l 358 118 l 342 119 l 328 125 l 315 134 l 308 149 l 305 164 z "},",":{"ha":283,"x_min":56,"x_max":229,"o":"m 57 -198 l 142 100 l 155 114 l 170 123 l 186 126 l 205 122 l 217 114 l 225 102 l 229 88 l 229 72 l 142 -231 l 133 -244 l 118 -254 l 103 -256 l 84 -254 l 71 -245 l 61 -232 l 56 -216 l 57 -198 z "},"-":{"ha":703,"x_min":56,"x_max":647,"o":"m 601 368 l 98 368 l 79 373 l 65 385 l 57 400 l 56 418 l 60 433 l 69 448 l 81 456 l 98 460 l 605 460 l 623 454 l 636 445 l 644 429 l 647 411 l 643 395 l 633 381 l 618 372 l 601 368 z "},".":{"ha":202,"x_min":56,"x_max":148,"o":"m 57 24 l 56 39 l 57 90 l 61 103 l 71 114 l 85 123 l 104 126 l 121 122 l 134 111 l 142 102 l 148 88 l 148 38 l 142 19 l 132 5 l 122 -3 l 110 -7 l 96 -7 l 83 -3 l 72 4 l 62 14 l 57 24 z "},"/":{"ha":784,"x_min":56,"x_max":730,"o":"m 724 890 l 138 -111 l 126 -123 l 111 -130 l 94 -130 l 76 -125 l 64 -113 l 57 -98 l 56 -80 l 61 -64 l 646 939 l 658 951 l 674 959 l 692 960 l 708 952 l 722 940 l 730 925 l 730 909 l 724 890 z "},":":{"ha":202,"x_min":56,"x_max":148,"o":"m 57 24 l 56 39 l 57 90 l 61 103 l 71 114 l 85 123 l 104 126 l 121 122 l 134 111 l 142 102 l 148 88 l 148 38 l 142 19 l 132 5 l 122 -3 l 110 -7 l 96 -7 l 83 -3 l 72 4 l 62 14 l 57 24 m 95 494 q 56 538 57 506 l 57 589 l 61 602 l 71 614 l 85 624 l 104 627 l 121 623 l 134 612 l 142 600 l 148 587 l 148 537 l 142 519 l 132 506 l 121 498 l 109 494 l 95 494 z "},";":{"ha":202,"x_min":56,"x_max":148,"o":"m 56 -212 l 56 88 l 62 104 l 75 118 l 91 125 l 109 126 l 122 121 l 134 113 l 142 100 l 148 85 l 148 -218 l 140 -235 l 130 -247 l 115 -255 l 98 -256 l 80 -252 l 68 -241 l 58 -228 l 56 -212 m 95 494 q 56 538 57 506 l 57 589 l 61 602 l 71 614 l 85 624 l 104 627 l 121 623 l 134 612 l 142 600 l 148 587 l 148 537 l 142 519 l 132 506 l 121 498 l 109 494 l 95 494 z "},"<":{"ha":618,"x_min":56,"x_max":564,"o":"m 56 415 q 77 453 56 437 l 496 704 l 509 708 l 519 709 l 532 707 l 543 703 l 559 688 l 564 667 l 560 646 l 547 628 l 190 414 l 545 199 l 557 187 l 564 171 l 563 155 l 556 138 l 544 126 l 529 119 l 514 118 l 498 122 l 76 377 l 66 384 l 61 393 l 57 404 l 56 415 z "},"=":{"ha":703,"x_min":56,"x_max":647,"o":"m 601 285 l 98 285 l 79 290 l 65 301 l 57 316 l 56 335 l 60 350 l 69 362 l 81 372 l 98 377 l 605 377 l 623 370 l 636 361 l 644 346 l 647 328 l 643 311 l 633 297 l 618 289 l 601 285 m 601 452 l 98 452 l 79 457 l 65 468 l 57 483 l 56 502 l 60 517 l 69 530 l 81 538 l 98 543 l 605 543 l 623 537 l 636 528 l 644 513 l 647 495 l 643 477 l 632 464 l 618 454 l 601 452 z "},">":{"ha":618,"x_min":56,"x_max":564,"o":"m 429 414 l 72 628 l 60 644 l 56 663 l 60 685 l 73 700 l 84 707 l 99 709 l 111 708 l 125 704 l 543 452 l 559 437 l 563 425 l 564 414 l 559 392 l 543 377 l 123 123 l 109 118 l 94 119 l 76 125 l 65 136 l 57 153 l 56 170 l 61 187 l 73 199 l 429 414 z "},"?":{"ha":703,"x_min":56,"x_max":647,"o":"m 346 -7 q 305 39 307 5 l 307 90 l 311 103 l 321 114 l 336 123 l 354 126 l 370 122 l 385 111 l 393 102 l 397 88 l 397 38 l 393 19 l 382 5 l 370 -3 l 359 -7 l 346 -7 m 148 736 l 146 693 l 138 680 l 127 669 l 111 661 l 94 661 l 76 667 l 64 680 l 58 690 l 56 703 l 56 750 l 58 764 l 106 856 l 157 909 l 248 956 l 259 960 l 442 960 q 495 936 463 954 q 543 911 528 918 l 597 856 l 646 758 l 647 656 q 623 604 640 636 q 598 556 605 571 l 548 506 q 502 479 526 492 q 445 451 477 467 q 397 427 412 435 l 397 330 l 395 313 l 387 301 l 373 290 l 359 285 l 345 285 l 331 290 l 320 298 l 311 309 l 305 323 l 305 457 l 309 475 l 317 486 l 330 496 l 490 576 l 522 609 l 556 675 l 556 736 l 522 803 l 490 834 l 423 868 l 279 868 l 213 834 l 180 803 l 148 736 z "},"@":{"ha":1077,"x_min":56,"x_max":1023,"o":"m 639 323 l 639 378 l 670 621 l 590 659 l 487 659 l 419 627 l 392 597 l 355 490 l 355 384 l 385 324 l 446 293 l 552 293 l 639 323 m 621 747 l 682 716 l 688 730 l 696 741 l 708 747 l 722 751 l 735 750 l 749 746 l 760 736 l 768 726 l 770 713 l 772 701 l 731 369 l 731 316 l 779 293 l 831 293 l 894 355 l 930 463 l 930 532 l 891 646 l 856 719 l 783 793 l 708 829 l 593 868 l 483 868 l 368 829 l 294 793 l 222 719 l 184 646 l 148 532 l 148 420 l 184 307 l 222 233 l 294 160 l 368 123 l 483 84 l 593 84 l 708 123 l 783 160 l 825 201 l 755 203 l 681 239 l 566 201 l 433 201 l 422 203 l 331 248 l 320 255 l 309 269 l 267 357 l 264 370 l 264 506 l 308 637 l 316 652 l 366 701 l 463 750 l 475 751 l 601 751 l 621 747 m 883 216 l 869 206 l 883 195 l 892 183 l 898 168 l 895 152 l 884 133 l 838 88 l 743 38 l 610 -5 l 465 -5 l 334 38 l 239 85 l 152 174 q 123 227 141 191 q 100 273 106 262 l 56 408 l 57 551 l 100 681 l 149 776 l 236 864 q 289 892 254 875 q 335 916 324 910 l 469 960 l 613 959 l 743 916 l 837 867 l 925 779 q 942 749 933 765 q 962 712 951 732 q 978 681 972 692 l 1020 553 l 1023 541 l 1021 448 l 977 311 q 925 256 960 290 q 883 216 890 222 z "},"A":{"ha":869,"x_min":56,"x_max":814,"o":"m 279 377 l 590 377 l 435 785 l 279 377 m 58 56 l 393 932 l 403 947 l 418 958 l 437 960 l 453 956 l 468 945 l 477 930 l 811 54 l 814 38 l 810 20 l 804 9 l 796 3 l 785 -4 l 773 -7 l 761 -7 l 749 -3 l 739 4 l 731 12 l 726 22 l 625 285 l 244 285 l 144 22 l 137 9 l 125 0 l 110 -5 l 94 -5 l 79 -1 l 66 9 l 58 23 l 56 41 l 58 56 z "},"B":{"ha":785,"x_min":56,"x_max":731,"o":"m 148 543 l 469 543 l 576 579 l 605 609 l 639 675 l 639 736 l 605 803 l 576 831 l 469 868 l 148 868 l 148 543 m 148 84 l 469 84 l 576 121 l 605 151 l 639 217 l 639 320 l 605 387 l 576 415 l 469 452 l 148 452 l 148 84 m 56 39 l 56 916 l 57 928 l 62 939 l 79 954 l 99 960 l 479 960 q 524 947 500 955 q 574 930 547 940 q 617 916 602 921 l 627 911 l 682 856 l 727 766 l 731 750 l 731 662 l 727 646 l 681 555 l 633 506 l 621 498 l 633 488 l 681 441 l 727 350 l 731 338 l 730 195 q 705 142 723 175 q 682 98 688 110 l 633 47 l 623 41 l 480 -7 l 96 -7 l 80 -1 l 68 8 l 58 22 l 56 39 z "},"C":{"ha":827,"x_min":56,"x_max":772,"o":"m 726 293 q 772 248 765 289 l 768 228 l 726 142 l 718 132 l 628 45 l 534 -4 l 518 -7 l 345 -7 l 331 -3 l 243 42 l 152 132 l 144 140 l 100 231 l 56 366 l 56 589 l 100 722 l 146 814 l 240 909 l 335 958 l 350 960 l 518 960 l 537 956 l 628 910 l 716 821 l 726 810 l 768 726 l 772 707 l 769 690 l 760 675 l 746 663 l 731 659 l 709 662 l 692 675 q 666 722 681 690 q 647 761 651 754 l 574 834 l 507 868 l 362 868 l 294 834 l 222 761 l 184 688 l 148 574 l 148 380 l 184 266 l 222 191 l 294 118 l 362 84 l 507 84 l 574 118 l 647 191 l 686 271 l 701 286 l 712 292 l 726 293 z "},"D":{"ha":785,"x_min":56,"x_max":731,"o":"m 148 84 l 387 84 l 494 121 l 564 191 l 600 266 l 639 380 l 639 574 l 600 688 l 564 761 l 494 831 l 387 868 l 148 868 l 148 84 m 56 39 l 56 914 l 57 925 l 61 936 l 76 952 l 85 958 l 98 960 l 396 960 q 473 935 425 952 q 540 913 521 918 q 593 862 560 895 q 635 821 627 829 l 642 812 l 686 722 l 731 586 l 730 363 l 686 231 l 642 141 q 586 85 623 121 q 541 42 549 50 l 401 -5 l 96 -7 l 80 -1 l 66 8 l 58 22 l 56 39 z "},"E":{"ha":743,"x_min":56,"x_max":689,"o":"m 648 84 q 689 46 684 75 l 689 35 l 686 23 l 681 12 l 665 -1 l 644 -7 l 99 -7 l 81 -3 l 68 7 l 58 22 l 56 39 l 56 916 l 58 928 l 64 940 l 80 954 l 100 960 l 644 960 l 656 958 l 670 951 l 680 943 l 686 930 l 689 918 l 688 905 l 684 891 l 675 880 l 663 872 l 650 868 l 148 868 l 148 543 l 442 543 l 456 537 l 469 528 l 477 514 l 480 498 l 477 480 l 469 467 l 456 457 l 442 452 l 148 452 l 148 84 l 648 84 z "},"F":{"ha":743,"x_min":56,"x_max":689,"o":"m 56 39 l 56 916 l 58 928 l 64 940 l 80 954 l 100 960 l 644 960 l 656 958 l 670 951 l 680 943 l 686 930 l 689 918 l 688 905 l 684 891 l 675 880 l 663 872 l 650 868 l 148 868 l 148 543 l 442 543 l 458 536 l 471 525 l 479 510 l 480 491 l 476 477 l 468 465 l 456 457 l 441 452 l 148 452 l 146 30 l 140 14 l 127 1 l 113 -5 l 96 -7 l 80 -1 l 68 8 l 58 22 l 56 39 z "},"G":{"ha":827,"x_min":56,"x_max":772,"o":"m 726 810 l 768 726 l 772 707 l 769 690 l 760 675 l 746 663 l 731 659 l 709 662 l 692 675 q 666 722 681 690 q 647 761 651 754 l 574 834 l 507 868 l 362 868 l 294 834 l 222 761 l 184 688 l 148 574 l 148 380 l 184 266 l 222 191 l 294 118 l 362 84 l 507 84 l 574 118 l 647 191 l 681 258 l 681 327 l 517 327 l 499 331 l 487 338 l 479 347 l 473 358 l 472 370 l 473 384 l 477 395 l 486 406 l 496 412 l 517 418 l 732 418 l 747 412 l 760 403 l 768 389 l 772 373 l 772 245 l 768 229 l 720 136 l 625 42 l 537 -3 l 525 -7 l 351 -7 l 332 -3 l 243 42 l 152 132 l 144 140 l 100 231 l 56 366 l 56 589 l 100 722 l 146 814 l 240 909 l 335 958 l 350 960 l 518 960 l 537 956 l 628 910 l 716 821 l 726 810 z "},"H":{"ha":785,"x_min":56,"x_max":731,"o":"m 731 38 q 689 -7 724 -1 l 675 -5 l 662 -1 l 651 7 l 644 18 l 640 31 l 639 452 l 148 452 l 146 30 l 140 14 l 127 1 l 113 -5 l 96 -7 l 80 -1 l 68 8 l 58 22 l 56 39 l 56 916 l 58 929 l 64 940 l 73 949 l 84 958 l 98 960 l 111 959 l 123 954 l 134 945 l 141 935 l 146 924 l 148 543 l 639 543 l 639 922 q 678 960 647 951 l 690 960 l 701 958 l 711 951 l 726 935 l 731 916 l 731 38 z "},"I":{"ha":202,"x_min":56,"x_max":148,"o":"m 56 39 l 56 917 l 60 933 l 71 947 l 85 958 l 104 960 l 119 956 l 133 945 l 142 933 l 148 917 l 148 37 l 142 19 l 133 5 l 118 -4 l 100 -7 l 83 -3 l 69 7 l 60 20 l 56 39 z "},"J":{"ha":618,"x_min":56,"x_max":564,"o":"m 472 254 l 472 917 l 476 935 l 487 948 l 503 958 l 521 960 l 537 956 l 551 945 l 560 933 l 564 917 l 564 245 q 541 174 557 220 q 519 109 525 127 l 513 95 l 460 42 l 370 -3 l 358 -7 l 256 -5 l 164 41 l 153 47 l 110 91 l 100 107 l 57 239 l 56 334 l 58 347 l 65 358 l 75 368 l 85 373 l 99 377 l 113 374 l 125 369 l 134 361 l 142 350 l 148 336 l 148 254 l 183 148 l 212 118 l 279 84 l 340 84 l 407 118 l 437 148 l 472 254 z "},"K":{"ha":785,"x_min":56,"x_max":731,"o":"m 56 39 l 56 916 l 58 929 l 64 940 l 73 949 l 84 958 l 99 960 l 113 959 l 125 952 l 134 944 l 142 933 l 148 921 l 148 442 l 654 947 l 667 956 l 682 960 l 697 959 l 711 951 l 724 937 l 731 920 l 730 902 l 719 884 l 370 534 l 722 65 l 730 52 l 731 38 l 728 23 l 722 12 l 707 -1 l 688 -7 l 667 -3 l 651 8 l 304 469 l 148 311 l 148 38 l 146 26 l 141 16 l 132 4 l 119 -3 l 104 -7 l 90 -5 l 76 0 l 65 11 l 58 23 l 56 39 z "},"L":{"ha":703,"x_min":56,"x_max":647,"o":"m 56 39 l 56 917 l 60 933 l 71 947 l 85 958 l 104 960 l 119 956 l 133 945 l 142 932 l 148 917 l 148 84 l 605 84 l 623 79 l 636 69 l 644 54 l 647 37 l 643 20 l 635 7 l 621 -3 l 605 -7 l 102 -7 l 83 -3 l 69 7 l 60 20 l 56 39 z "},"M":{"ha":869,"x_min":56,"x_max":814,"o":"m 56 39 l 56 914 l 58 929 l 66 943 l 75 951 l 84 958 l 96 960 l 107 960 l 118 958 l 127 951 l 136 943 l 142 933 l 435 168 l 727 933 l 739 949 l 758 959 l 777 959 l 798 949 l 810 933 l 814 914 l 814 38 l 811 23 l 804 9 l 795 1 l 783 -4 l 769 -7 l 755 -5 l 743 0 l 734 9 l 727 20 l 722 34 l 722 665 l 476 20 l 469 9 l 460 0 l 448 -5 l 435 -7 l 420 -5 l 410 0 l 400 9 l 393 20 l 148 665 l 148 33 l 141 16 l 130 3 l 115 -5 l 98 -7 l 80 -3 l 68 8 l 58 22 l 56 39 z "},"N":{"ha":785,"x_min":56,"x_max":731,"o":"m 639 918 q 678 960 644 951 l 690 960 l 701 958 l 711 951 l 726 935 l 731 916 l 731 39 l 728 24 l 722 12 l 705 -1 l 686 -7 l 663 -3 l 648 11 l 148 762 l 148 34 l 141 16 l 130 4 l 115 -4 l 99 -7 l 81 -3 l 68 7 l 58 22 l 56 39 l 56 914 l 58 928 l 64 940 l 80 954 l 100 960 l 122 956 l 137 941 l 639 190 l 639 918 z "},"O":{"ha":869,"x_min":56,"x_max":814,"o":"m 362 868 l 296 834 l 222 761 l 186 688 l 148 574 l 148 380 l 186 266 l 222 191 l 296 118 l 362 84 l 507 84 l 574 118 l 647 191 l 684 266 l 722 380 l 722 574 l 684 688 l 647 761 l 574 834 l 507 868 l 362 868 m 247 914 l 332 956 l 343 960 l 518 960 l 536 956 l 624 913 q 675 863 643 895 q 718 821 707 831 l 726 812 l 769 722 l 811 594 l 814 582 l 814 366 l 768 228 l 720 136 l 633 49 l 623 41 l 532 -5 l 518 -7 l 343 -7 q 288 20 323 1 q 240 45 254 38 l 152 132 l 144 140 l 100 231 l 58 358 l 56 370 l 56 586 l 100 720 l 149 817 l 236 906 l 247 914 z "},"P":{"ha":785,"x_min":56,"x_max":731,"o":"m 148 502 l 469 502 l 576 537 l 605 567 l 639 633 l 639 736 l 605 803 l 576 831 l 469 868 l 148 868 l 148 502 m 56 39 l 56 916 l 57 928 l 62 939 l 79 954 l 99 960 l 479 960 q 524 947 500 955 q 574 930 547 940 q 617 916 602 921 l 627 911 l 682 856 l 727 766 l 731 754 l 730 613 q 705 559 723 593 q 682 514 688 525 l 633 464 l 624 457 l 484 411 l 148 410 l 146 27 l 138 12 l 127 1 l 113 -5 l 96 -7 l 80 -1 l 68 8 l 58 22 l 56 39 z "},"Q":{"ha":869,"x_min":56,"x_max":814,"o":"m 362 868 l 294 834 l 222 761 l 184 688 l 148 574 l 148 380 l 184 266 l 222 191 l 294 118 l 362 84 l 507 84 l 524 94 l 438 179 l 433 190 l 430 201 l 430 213 l 433 224 l 445 239 l 460 248 l 477 251 l 496 247 l 509 239 l 601 146 l 647 191 l 684 266 l 722 380 l 722 574 l 684 688 l 647 761 l 574 834 l 507 868 l 362 868 m 247 914 l 332 956 l 345 960 l 528 959 l 628 909 l 716 821 l 726 810 l 769 722 l 811 594 l 814 582 l 814 370 q 789 296 806 343 q 768 231 773 248 l 726 142 l 718 132 l 665 80 l 758 -12 l 766 -23 l 772 -42 l 769 -60 l 761 -73 l 747 -84 l 735 -90 l 722 -91 l 711 -88 l 700 -81 l 591 24 l 537 -3 l 522 -7 l 350 -7 l 335 -4 l 240 45 l 152 132 l 142 142 l 100 231 l 56 363 l 56 586 l 100 722 l 144 812 q 235 905 159 829 l 247 914 z "},"R":{"ha":785,"x_min":56,"x_max":731,"o":"m 148 543 l 469 543 l 576 579 l 605 609 l 639 675 l 639 736 l 605 803 l 576 831 l 469 868 l 148 868 l 148 543 m 56 39 l 56 916 l 57 928 l 62 939 l 79 954 l 99 960 l 479 960 q 524 947 500 955 q 574 930 547 940 q 617 916 602 921 l 627 911 l 681 857 l 728 764 l 731 749 l 731 662 l 728 650 l 681 556 l 629 503 q 587 487 610 495 q 534 469 563 479 q 490 454 506 460 l 476 452 l 726 61 l 730 50 l 731 38 l 730 24 l 724 14 l 707 -1 l 688 -7 l 665 -3 l 648 9 l 368 452 l 148 452 l 146 30 l 140 14 l 127 1 l 113 -5 l 96 -7 l 80 -1 l 68 8 l 58 22 l 56 39 z "},"S":{"ha":785,"x_min":56,"x_max":731,"o":"m 633 905 l 718 821 l 727 807 l 731 791 l 728 772 l 718 757 l 703 747 l 692 743 l 681 743 l 670 746 l 658 751 l 576 831 l 469 868 l 316 868 l 210 831 l 148 769 l 148 716 l 180 650 l 213 618 l 286 582 l 534 499 l 623 454 q 682 397 633 446 l 730 302 l 731 290 l 731 163 l 726 141 q 670 85 707 121 q 625 42 633 50 l 484 -5 l 302 -7 l 163 41 q 109 92 142 57 q 69 132 75 126 l 61 142 l 56 160 l 58 178 l 66 193 l 80 205 l 102 210 l 122 205 l 133 197 l 210 121 l 316 84 l 469 84 l 576 121 l 639 183 l 639 278 l 605 345 l 574 377 l 500 412 l 251 496 l 164 540 l 155 547 l 106 597 l 58 690 l 56 704 l 56 791 l 61 811 l 161 911 l 302 960 l 483 960 l 617 916 l 633 905 z "},"T":{"ha":785,"x_min":56,"x_max":731,"o":"m 347 39 l 347 868 l 92 869 l 73 878 l 61 891 l 56 911 l 58 930 l 65 941 l 75 951 l 85 958 l 99 960 l 685 960 l 701 958 l 712 949 l 722 940 l 730 926 l 731 913 l 728 899 l 722 887 l 711 876 l 700 871 l 685 868 l 439 868 l 439 34 l 433 18 l 422 4 l 408 -4 l 391 -7 l 373 -3 l 359 7 l 350 22 l 347 39 z "},"U":{"ha":785,"x_min":56,"x_max":731,"o":"m 56 289 l 56 918 l 61 935 l 72 948 l 88 958 l 106 960 l 121 956 l 133 947 l 142 933 l 148 918 l 148 296 l 183 189 l 251 121 l 358 84 l 427 84 l 534 121 l 602 189 l 639 296 l 640 924 l 644 935 l 651 945 l 661 952 l 673 959 l 684 960 l 696 959 l 707 954 l 716 945 l 727 932 l 731 916 l 731 282 l 682 140 l 591 49 l 575 38 l 449 -4 l 437 -7 l 343 -5 l 209 39 l 194 47 l 104 140 l 58 275 l 56 289 z "},"V":{"ha":869,"x_min":56,"x_max":814,"o":"m 433 -7 q 392 22 406 -3 l 58 899 l 56 916 l 60 932 l 66 943 l 75 951 l 88 958 l 100 960 l 114 959 l 125 952 l 134 944 l 142 935 l 435 168 l 727 932 l 736 947 l 750 958 l 768 960 l 787 956 l 800 947 l 810 933 l 814 917 l 811 901 l 476 20 l 469 9 l 460 0 l 448 -5 l 433 -7 z "},"W":{"ha":1034,"x_min":56,"x_max":979,"o":"m 264 27 l 56 905 l 56 924 l 64 941 l 72 949 l 83 958 l 96 960 l 107 960 l 119 956 l 129 948 l 137 940 l 142 929 l 308 236 l 473 929 l 479 939 l 486 948 l 496 954 l 507 959 l 519 960 l 530 958 l 541 952 l 551 945 l 557 935 l 562 925 l 726 236 l 890 928 l 902 945 l 920 958 l 941 960 l 962 949 l 971 941 l 977 930 l 979 918 l 979 905 l 769 27 l 762 11 l 753 3 l 743 -4 l 731 -7 l 718 -7 l 707 -3 l 696 4 l 688 12 l 682 23 l 517 716 l 351 23 l 345 9 l 334 0 l 321 -5 l 305 -7 l 292 -4 l 279 4 l 270 15 l 264 27 z "},"X":{"ha":785,"x_min":56,"x_max":731,"o":"m 647 14 l 393 395 l 136 8 l 118 -4 l 98 -7 l 77 0 l 62 15 l 57 27 l 56 39 l 57 52 l 62 62 l 338 476 l 61 891 l 56 910 l 57 926 l 65 941 l 77 952 l 94 959 l 110 959 l 125 954 l 137 943 l 393 559 l 650 944 l 669 958 l 689 960 l 708 952 l 724 937 l 730 926 l 731 914 l 730 902 l 724 890 l 449 476 l 727 57 l 731 41 l 728 23 l 719 9 l 707 -1 l 690 -7 l 674 -5 l 658 1 l 647 14 z "},"Y":{"ha":869,"x_min":56,"x_max":814,"o":"m 389 480 l 64 887 l 57 902 l 56 917 l 58 932 l 66 944 l 81 956 l 100 960 l 118 958 l 133 945 l 435 571 l 735 945 l 750 956 l 766 960 l 784 958 l 799 948 l 808 935 l 814 920 l 812 903 l 806 887 l 480 480 l 480 35 l 476 19 l 468 7 l 454 -3 l 441 -7 l 422 -5 l 406 3 l 395 16 l 389 34 l 389 480 z "},"Z":{"ha":785,"x_min":56,"x_max":731,"o":"m 98 -7 q 56 42 57 3 l 58 54 l 62 64 l 598 868 l 95 868 q 56 909 61 880 l 56 920 l 58 930 l 64 940 l 79 954 l 100 960 l 685 960 l 699 958 l 711 951 l 724 939 l 730 922 l 730 906 l 724 890 l 187 84 l 692 84 q 731 46 723 76 l 731 34 l 728 22 l 722 12 l 705 -1 l 686 -7 l 98 -7 z "},"[":{"ha":494,"x_min":56,"x_max":439,"o":"m 56 -252 l 56 1081 l 57 1092 l 62 1105 l 72 1115 l 83 1122 l 98 1126 l 393 1126 l 404 1124 l 418 1119 l 429 1109 l 437 1097 l 439 1082 l 438 1067 l 430 1054 l 420 1044 l 408 1038 l 395 1035 l 148 1035 l 148 -208 l 401 -209 l 419 -216 l 431 -228 l 439 -245 l 438 -264 l 431 -277 l 422 -288 l 411 -294 l 397 -298 l 100 -298 l 83 -294 l 68 -285 l 58 -270 l 56 -252 z "},"\\":{"ha":785,"x_min":56,"x_max":731,"o":"m 644 -110 l 61 892 l 56 910 l 57 928 l 66 943 l 80 954 l 96 960 l 114 959 l 129 949 l 140 939 l 726 -65 l 731 -81 l 730 -99 l 720 -114 l 707 -126 l 690 -132 l 673 -130 l 656 -122 l 644 -110 z "},"]":{"ha":494,"x_min":56,"x_max":439,"o":"m 404 -297 l 393 -298 l 98 -298 l 83 -294 l 71 -288 l 62 -277 l 57 -263 l 57 -244 l 62 -228 l 75 -216 l 94 -209 l 347 -208 l 347 1035 l 100 1035 l 85 1038 l 73 1044 l 62 1055 l 57 1067 l 56 1084 l 58 1099 l 66 1109 l 77 1119 l 92 1124 l 397 1126 l 411 1122 l 423 1115 l 431 1104 l 438 1090 l 439 -254 l 437 -269 l 429 -282 l 418 -292 l 404 -297 z "},"^":{"ha":369,"x_min":56,"x_max":313,"o":"m 146 639 l 60 770 l 56 783 l 56 795 l 58 807 l 65 818 l 77 827 l 94 833 l 110 833 l 125 827 l 137 817 l 184 746 l 231 815 l 241 826 l 254 833 l 270 834 l 285 831 l 297 825 l 305 814 l 312 800 l 313 787 l 309 772 l 220 635 l 203 623 l 182 618 l 163 624 l 146 639 z "},"_":{"ha":869,"x_min":56,"x_max":814,"o":"m 768 -91 l 99 -91 l 80 -85 l 66 -75 l 58 -60 l 56 -42 l 60 -24 l 69 -12 l 81 -3 l 99 1 l 770 1 l 788 -3 l 802 -14 l 811 -30 l 814 -46 l 810 -62 l 800 -77 l 787 -85 l 768 -91 z "},"`":{"ha":327,"x_min":56,"x_max":273,"o":"m 184 643 l 57 901 l 56 918 l 61 935 l 72 948 l 88 958 l 103 960 l 117 958 l 129 949 l 140 939 l 270 678 l 273 661 l 269 644 l 258 631 l 243 621 l 228 618 l 210 621 l 195 629 l 184 643 z "},"a":{"ha":701,"x_min":56,"x_max":646,"o":"m 555 477 l 490 543 l 423 576 l 320 576 l 252 543 l 182 472 l 146 365 l 146 296 l 182 189 l 252 118 l 320 84 l 423 84 l 490 118 l 555 183 l 555 477 m 555 39 l 555 53 l 538 41 l 454 -3 l 442 -7 l 298 -5 l 198 45 l 103 140 l 56 281 l 56 382 l 103 521 l 201 620 l 290 663 l 305 669 l 445 667 l 538 621 l 555 609 l 556 629 l 560 643 l 568 655 l 582 663 l 597 669 l 614 667 l 629 658 l 640 646 l 644 635 l 646 624 l 646 33 l 640 16 l 629 3 l 614 -5 l 597 -7 l 581 -3 l 567 8 l 559 22 l 555 39 z "},"b":{"ha":703,"x_min":56,"x_max":647,"o":"m 148 183 l 213 118 l 279 84 l 382 84 l 449 118 l 519 189 l 556 296 l 556 365 l 519 472 l 449 543 l 382 576 l 279 576 l 213 543 l 148 477 l 148 183 m 56 39 l 56 917 l 60 933 l 71 947 l 85 958 l 104 960 l 119 956 l 133 947 l 141 935 l 148 920 l 148 609 l 164 623 l 248 663 l 267 669 l 403 667 q 457 643 423 661 q 502 620 491 625 l 593 529 l 601 515 l 646 381 l 647 286 q 623 211 639 259 q 602 151 606 163 l 595 134 l 505 45 l 411 -3 l 395 -7 l 258 -5 l 163 41 l 148 53 l 146 27 l 136 9 l 118 -4 l 107 -7 l 96 -7 l 80 -1 l 66 8 l 58 22 l 56 39 z "},"c":{"ha":701,"x_min":56,"x_max":646,"o":"m 605 210 q 646 165 646 197 l 644 153 l 640 140 l 544 45 l 444 -5 l 300 -5 l 289 -3 l 201 42 l 103 140 l 56 279 l 56 381 l 103 521 l 198 617 l 289 663 l 300 667 l 444 667 l 538 621 q 570 593 553 609 q 604 559 586 578 q 633 529 623 540 l 642 518 l 646 505 l 646 487 l 640 473 l 629 461 l 617 454 l 602 452 l 590 453 l 578 457 q 530 503 559 472 q 490 543 500 533 l 423 576 l 320 576 l 252 543 l 182 472 l 146 365 l 146 296 l 182 189 l 252 118 l 320 84 l 423 84 l 490 118 l 571 198 l 581 206 l 593 210 l 605 210 z "},"d":{"ha":703,"x_min":56,"x_max":647,"o":"m 556 477 l 490 543 l 423 576 l 321 576 l 254 543 l 183 472 l 148 365 l 148 296 l 183 189 l 254 118 l 321 84 l 423 84 l 490 118 l 556 183 l 556 477 m 556 39 l 556 53 l 538 41 l 454 -3 l 444 -5 l 308 -7 l 290 -3 l 201 43 l 110 132 l 102 146 l 57 281 l 56 374 l 57 387 l 100 511 l 107 526 l 198 617 l 290 663 l 308 669 l 445 667 q 498 643 465 661 q 540 621 530 625 l 556 609 l 556 921 l 562 936 l 572 948 l 586 958 l 604 960 l 621 956 l 633 945 l 643 932 l 647 917 l 647 37 l 643 19 l 633 5 l 618 -4 l 600 -7 l 583 -3 l 570 7 l 559 20 l 556 39 z "},"e":{"ha":703,"x_min":56,"x_max":647,"o":"m 165 418 l 556 418 l 556 445 l 522 511 l 490 543 l 423 576 l 321 576 l 254 543 l 183 472 l 165 418 m 605 210 q 647 172 636 205 l 647 160 l 644 148 l 635 132 l 547 45 l 453 -3 l 435 -7 l 308 -7 l 293 -4 l 198 45 l 104 138 l 57 279 l 56 372 q 80 452 62 401 q 103 519 98 502 q 156 575 121 540 q 198 617 191 610 l 290 663 l 301 667 l 437 669 l 452 665 l 544 618 l 598 563 l 643 475 l 646 465 l 647 369 l 642 350 l 635 340 l 625 334 l 616 328 l 604 327 l 148 327 l 148 296 l 183 189 l 254 118 l 321 84 l 423 84 l 490 118 l 571 198 l 581 206 l 593 209 l 605 210 z "},"f":{"ha":534,"x_min":56,"x_max":479,"o":"m 56 629 q 100 669 68 667 l 180 669 l 180 757 l 228 895 l 236 906 q 332 956 251 916 l 351 960 l 437 960 l 452 956 l 464 948 l 473 936 l 479 922 l 479 907 l 476 895 l 469 884 l 461 876 l 452 871 l 437 868 l 361 868 l 305 841 l 273 741 l 273 669 l 393 669 l 406 667 l 419 659 l 430 648 l 438 635 l 439 620 l 435 605 l 427 593 l 416 583 l 404 578 l 273 576 l 273 35 l 267 16 l 254 3 l 237 -5 l 220 -7 l 205 -1 l 191 8 l 183 20 l 180 37 l 180 576 l 100 576 l 83 581 l 71 587 l 61 600 l 56 614 l 56 629 z "},"g":{"ha":703,"x_min":56,"x_max":647,"o":"m 556 477 l 490 543 l 423 576 l 321 576 l 254 543 l 183 472 l 148 365 l 148 296 l 183 189 l 254 118 l 321 84 l 423 84 l 490 118 l 556 183 l 556 477 m 556 -38 l 556 53 l 540 41 l 446 -5 l 300 -5 l 289 -3 l 198 45 l 110 132 l 100 149 l 57 281 l 56 372 q 79 447 62 400 q 100 513 95 494 l 110 529 l 197 617 l 294 665 l 308 669 l 445 667 l 540 621 l 556 609 l 556 629 l 562 643 l 571 655 l 585 665 l 601 669 l 618 665 l 633 655 l 643 643 l 647 623 l 647 -50 l 602 -184 l 595 -198 l 543 -248 l 452 -296 l 437 -298 l 298 -297 l 203 -251 l 193 -243 l 186 -232 l 180 -212 l 184 -191 l 198 -175 l 218 -167 l 231 -165 l 243 -168 l 321 -208 l 423 -208 l 490 -174 l 519 -144 l 556 -38 z "},"h":{"ha":661,"x_min":56,"x_max":605,"o":"m 56 39 l 56 917 l 60 933 l 71 947 l 85 958 l 104 960 l 119 956 l 133 947 l 142 935 l 148 920 l 148 567 l 201 620 l 290 663 l 305 669 l 446 667 l 541 621 l 552 613 l 559 602 l 605 460 l 605 37 l 601 20 l 593 8 l 581 -1 l 567 -7 l 551 -5 l 536 0 l 524 9 l 517 23 l 514 39 l 514 449 l 480 548 l 423 576 l 321 576 l 254 543 l 148 437 l 146 30 l 140 14 l 127 1 l 113 -5 l 96 -7 l 80 -1 l 68 8 l 58 22 l 56 39 z "},"i":{"ha":202,"x_min":56,"x_max":148,"o":"m 56 39 l 56 627 l 61 643 l 72 656 l 88 665 l 106 669 l 121 663 l 134 654 l 142 640 l 148 625 l 148 35 l 141 18 l 132 4 l 117 -4 l 99 -7 l 81 -3 l 68 7 l 58 22 l 56 39 m 57 860 l 56 872 l 57 922 l 61 936 l 71 947 l 85 958 l 104 960 l 121 956 l 134 944 l 142 935 l 148 921 l 148 871 l 142 853 l 132 838 l 121 830 l 109 826 l 96 826 l 81 830 l 72 837 l 62 848 l 57 860 z "},"j":{"ha":411,"x_min":56,"x_max":355,"o":"m 264 -79 l 264 625 l 269 643 l 279 656 l 294 665 l 312 669 l 330 663 l 343 654 l 351 640 l 355 625 l 354 -98 l 311 -228 l 304 -240 l 293 -248 l 205 -294 l 193 -298 l 98 -298 l 81 -294 l 69 -286 l 60 -273 l 56 -254 l 58 -236 l 68 -221 l 80 -213 l 95 -208 l 174 -208 l 231 -179 l 264 -79 m 266 860 l 264 872 l 266 922 l 270 936 l 279 947 l 294 958 l 312 960 l 330 956 l 343 944 l 351 935 l 355 921 l 355 871 l 351 853 l 340 838 l 331 830 l 316 826 l 304 826 l 290 830 l 281 837 l 271 848 l 266 860 z "},"k":{"ha":661,"x_min":56,"x_max":605,"o":"m 605 37 q 567 -7 601 4 l 555 -7 l 541 -3 l 532 3 l 266 305 l 148 186 l 148 37 l 144 22 l 137 9 l 127 1 l 114 -5 l 100 -7 l 85 -4 l 73 3 l 64 12 l 57 24 l 56 39 l 56 917 l 60 933 l 71 947 l 85 958 l 104 960 l 119 956 l 133 947 l 142 933 l 148 917 l 148 316 l 487 656 l 500 663 l 514 669 l 529 667 l 541 661 l 556 648 l 563 632 l 563 613 l 556 595 l 331 369 l 595 68 l 602 54 l 605 37 z "},"l":{"ha":202,"x_min":56,"x_max":148,"o":"m 56 39 l 56 917 l 60 933 l 71 947 l 85 958 l 104 960 l 119 956 l 133 945 l 142 933 l 148 917 l 148 37 l 142 19 l 133 5 l 118 -4 l 100 -7 l 83 -3 l 69 7 l 60 20 l 56 39 z "},"m":{"ha":1119,"x_min":56,"x_max":1063,"o":"m 56 39 l 56 624 l 57 635 l 62 646 l 69 654 l 77 661 l 95 669 l 111 667 l 126 661 l 138 648 l 144 639 l 148 628 l 148 567 l 201 620 l 290 663 l 307 669 l 437 669 l 454 663 l 538 621 l 551 614 l 562 597 l 579 540 l 658 618 l 749 663 l 761 669 l 905 667 l 998 621 l 1008 614 l 1017 604 l 1061 469 l 1063 458 l 1063 37 l 1062 24 l 1057 15 l 1042 0 l 1023 -7 l 1000 -3 l 983 8 l 974 26 l 972 39 l 972 449 l 939 548 l 882 576 l 779 576 l 712 543 l 605 437 l 605 37 l 600 16 l 585 0 l 566 -7 l 543 -4 l 526 8 l 515 26 l 514 39 l 514 449 l 480 548 l 423 576 l 321 576 l 254 543 l 148 437 l 146 30 l 140 14 l 127 1 l 113 -5 l 96 -7 l 80 -1 l 68 8 l 58 22 l 56 39 z "},"n":{"ha":661,"x_min":56,"x_max":605,"o":"m 56 39 l 56 624 l 58 639 l 66 651 l 81 663 l 100 669 l 119 663 l 134 654 l 142 642 l 148 629 l 148 567 l 201 620 l 290 663 l 304 669 l 445 667 l 456 663 l 547 616 l 556 606 q 572 562 564 586 q 590 507 581 537 q 605 460 600 476 l 605 38 l 602 22 l 594 9 l 586 1 l 575 -4 l 563 -7 l 551 -5 l 538 -1 l 529 5 l 521 14 l 515 24 l 514 39 l 514 449 l 480 548 l 423 576 l 321 576 l 254 543 l 148 437 l 146 30 l 140 14 l 127 1 l 113 -5 l 96 -7 l 80 -1 l 68 8 l 58 22 l 56 39 z "},"o":{"ha":742,"x_min":56,"x_max":688,"o":"m 320 576 l 252 543 l 182 472 l 146 365 l 146 296 l 182 189 l 252 118 l 320 84 l 423 84 l 490 118 l 562 189 l 595 296 l 595 365 l 562 472 l 490 543 l 423 576 l 320 576 m 206 623 l 289 663 l 300 667 l 446 667 l 545 617 l 635 529 l 643 514 l 686 387 l 688 372 l 688 281 l 643 149 l 635 132 l 545 45 l 450 -4 l 435 -7 l 308 -7 l 292 -3 l 197 45 l 109 132 l 100 148 l 56 281 l 56 382 l 103 521 l 193 613 l 206 623 z "},"p":{"ha":703,"x_min":56,"x_max":647,"o":"m 148 183 l 213 118 l 279 84 l 382 84 l 449 118 l 519 189 l 556 296 l 556 365 l 519 472 l 449 543 l 382 576 l 279 576 l 213 543 l 148 477 l 148 183 m 56 -252 l 56 623 l 58 639 l 68 652 l 81 663 l 99 669 l 117 665 l 130 656 l 141 643 l 148 629 l 148 609 l 163 621 l 258 667 l 395 669 l 410 665 l 506 617 l 593 529 l 602 513 l 646 381 l 647 289 q 624 214 640 260 q 602 148 608 167 l 593 132 l 505 45 l 414 -3 l 403 -5 l 256 -5 l 163 41 l 148 53 l 148 -252 l 146 -267 l 137 -281 l 125 -292 l 111 -297 l 95 -298 l 79 -293 l 66 -282 l 58 -269 l 56 -252 z "},"q":{"ha":703,"x_min":56,"x_max":647,"o":"m 556 477 l 490 543 l 423 576 l 321 576 l 254 543 l 183 472 l 148 365 l 148 296 l 183 189 l 254 118 l 321 84 l 423 84 l 490 118 l 556 183 l 556 477 m 556 -252 l 556 53 l 540 41 l 445 -5 l 308 -7 l 292 -3 l 198 45 l 109 134 l 100 149 l 57 277 l 56 288 l 57 381 l 104 521 l 198 617 l 297 667 l 309 669 l 445 667 l 540 621 l 556 609 l 556 629 l 562 644 l 574 658 l 589 667 l 606 669 l 624 662 l 637 650 l 646 635 l 647 623 l 647 -256 l 642 -274 l 631 -288 l 617 -296 l 598 -298 l 582 -294 l 568 -285 l 559 -270 l 556 -252 z "},"r":{"ha":536,"x_min":56,"x_max":480,"o":"m 56 39 l 56 624 l 57 636 l 62 647 l 77 661 l 96 669 l 117 665 l 133 655 l 141 643 l 148 629 l 148 567 l 201 618 l 296 667 l 308 669 l 437 669 l 449 665 l 460 661 l 475 644 l 480 624 l 475 601 l 469 591 l 461 585 l 450 579 l 438 576 l 321 576 l 254 543 l 183 472 l 148 365 l 148 39 l 146 26 l 137 11 l 126 0 l 111 -5 l 95 -7 l 79 -1 l 66 9 l 58 23 l 56 39 z "},"s":{"ha":661,"x_min":56,"x_max":605,"o":"m 560 601 l 601 517 l 605 502 l 604 486 l 597 471 l 586 460 l 571 453 l 560 452 l 547 453 l 536 458 l 526 465 l 486 543 l 387 576 l 275 576 l 175 543 l 153 498 l 178 449 l 241 415 l 449 373 l 538 330 l 553 320 q 568 291 560 307 q 586 256 576 275 q 601 225 595 236 l 605 206 l 605 161 l 602 149 l 555 53 l 544 43 q 468 16 518 33 q 407 -4 418 0 l 395 -7 l 259 -5 l 127 38 l 115 45 l 103 60 l 60 144 l 57 156 l 56 171 l 61 186 l 71 198 l 85 208 l 99 210 l 111 209 l 123 205 l 133 197 l 141 186 l 175 118 l 275 84 l 387 84 l 486 118 l 514 175 l 514 194 l 483 254 l 419 288 l 214 328 l 122 373 l 110 382 q 60 477 87 425 l 56 498 l 60 517 l 107 609 l 115 618 l 258 667 l 395 669 q 468 646 422 662 q 534 624 514 629 l 548 614 l 560 601 z "},"t":{"ha":534,"x_min":56,"x_max":479,"o":"m 180 206 l 180 576 l 100 576 l 84 579 l 72 587 l 62 597 l 57 612 l 56 625 l 58 639 l 65 650 l 75 659 l 85 665 l 100 669 l 180 669 l 180 922 l 187 937 l 198 949 l 213 959 l 229 960 l 244 956 l 258 947 l 267 935 l 273 921 l 273 669 l 404 667 l 418 661 l 427 651 l 437 639 l 439 625 l 438 610 l 430 595 l 419 585 l 406 578 l 393 576 l 273 576 l 273 213 l 305 113 l 362 84 l 438 84 l 458 77 l 472 65 l 479 49 l 479 31 l 473 14 l 460 0 l 442 -7 l 346 -7 l 332 -3 l 243 42 l 232 52 l 225 64 l 182 191 l 180 206 z "},"u":{"ha":661,"x_min":56,"x_max":605,"o":"m 56 206 l 56 624 l 60 643 l 72 656 l 92 667 l 104 669 l 115 667 l 125 661 l 134 654 l 146 635 l 148 623 l 148 213 l 180 113 l 237 84 l 340 84 l 407 118 l 514 225 l 515 631 l 519 643 l 526 654 l 536 661 l 548 667 l 562 669 l 574 665 l 586 659 l 594 651 l 602 639 l 605 624 l 605 38 l 601 19 l 589 4 l 574 -5 l 556 -7 l 538 -1 l 525 9 l 518 20 l 514 34 l 514 95 l 460 43 l 365 -4 l 353 -7 l 227 -7 l 212 -4 l 121 41 l 106 53 q 80 128 96 79 q 58 191 64 178 l 56 206 z "},"v":{"ha":703,"x_min":56,"x_max":647,"o":"m 315 9 q 176 330 266 122 q 58 605 87 538 l 56 625 l 60 643 l 66 652 l 76 661 l 88 665 l 100 669 l 111 667 l 123 662 l 133 655 l 140 646 l 351 156 l 562 643 l 572 656 l 587 665 l 604 669 l 621 663 l 635 654 l 644 639 l 647 624 l 644 606 l 393 19 l 385 8 l 374 0 l 363 -5 l 350 -7 l 338 -5 l 327 1 l 315 9 z "},"w":{"ha":868,"x_min":56,"x_max":812,"o":"m 222 26 l 56 612 l 56 633 l 60 644 l 66 652 l 84 665 l 96 669 l 107 669 l 118 663 l 127 658 l 141 640 l 267 206 l 392 640 l 404 656 l 422 667 l 445 667 l 463 656 l 472 647 l 477 636 l 600 206 l 726 640 l 738 658 l 757 667 l 779 667 l 798 656 l 806 647 l 811 636 l 812 624 l 811 612 l 644 26 l 633 8 l 625 0 l 616 -4 l 604 -7 l 593 -7 l 582 -3 l 572 3 l 564 11 l 559 20 l 433 456 l 308 18 l 300 7 l 289 -1 l 277 -5 l 263 -7 l 250 -4 l 237 3 l 229 14 l 222 26 z "},"x":{"ha":661,"x_min":56,"x_max":605,"o":"m 524 11 l 331 256 l 132 5 l 115 -4 l 98 -7 l 77 0 l 64 12 l 58 24 l 56 39 l 57 52 l 64 64 l 273 331 l 62 598 l 56 616 l 57 632 l 64 647 l 75 659 l 91 667 l 106 669 l 121 663 l 133 654 l 331 404 l 529 655 l 545 665 l 564 669 l 583 661 l 597 648 l 602 636 l 605 623 l 604 610 l 597 597 l 389 331 l 595 66 l 601 57 l 605 41 l 602 24 l 595 9 l 583 0 l 568 -5 l 552 -5 l 536 0 l 524 11 z "},"y":{"ha":743,"x_min":56,"x_max":689,"o":"m 433 18 l 347 -153 l 255 -245 l 164 -294 l 152 -297 l 94 -297 l 77 -292 l 65 -282 l 57 -267 l 56 -248 l 60 -232 l 71 -218 l 80 -212 l 94 -209 l 132 -208 l 198 -174 l 273 -100 l 343 41 l 100 606 l 98 624 l 100 639 l 110 652 l 122 663 l 138 669 l 157 665 l 172 656 l 183 643 l 393 156 l 604 646 l 612 655 l 623 662 l 633 667 l 646 669 l 656 665 l 669 659 l 678 652 l 685 642 l 689 624 l 685 604 l 433 18 z "},"z":{"ha":661,"x_min":56,"x_max":605,"o":"m 96 -7 q 56 34 65 -3 l 56 45 l 60 57 l 65 66 l 465 576 l 94 578 l 80 581 l 71 587 l 62 597 l 58 606 l 56 620 l 57 632 l 61 643 l 66 652 l 81 663 l 102 669 l 562 669 l 576 665 l 590 656 l 600 643 l 605 628 l 604 612 l 597 595 l 195 84 l 568 83 l 579 80 l 589 73 l 597 65 l 602 54 l 605 42 l 604 30 l 600 18 l 594 8 l 579 -3 l 562 -7 l 96 -7 z "},"{":{"ha":411,"x_min":56,"x_max":355,"o":"m 355 -252 q 312 -298 351 -292 l 301 -297 l 290 -294 l 206 -251 l 194 -244 l 148 -194 l 100 -102 l 98 -85 l 98 -1 l 100 12 l 146 104 l 189 151 l 222 217 l 222 270 l 157 335 l 72 380 l 60 393 l 56 411 l 58 430 l 71 449 q 157 494 98 464 l 222 559 l 222 612 l 189 678 l 144 724 l 102 811 l 98 829 l 98 916 l 102 932 l 148 1024 l 194 1073 l 206 1081 l 290 1122 l 308 1126 l 326 1123 l 340 1115 l 350 1101 l 355 1084 l 353 1063 l 340 1046 l 252 1001 l 222 970 l 189 903 l 189 842 l 222 774 l 266 730 l 309 642 l 312 631 l 313 537 l 308 518 l 301 507 l 217 423 l 205 414 q 257 366 225 397 q 301 321 289 334 l 308 309 l 313 292 l 313 206 l 309 187 l 267 100 l 259 91 l 222 53 l 189 -14 l 189 -75 l 222 -141 l 252 -174 l 334 -214 l 343 -221 l 350 -231 l 354 -241 l 355 -252 z "},"|":{"ha":202,"x_min":56,"x_max":148,"o":"m 56 -170 l 56 959 l 60 975 l 71 989 l 85 998 l 104 1001 l 119 997 l 133 987 l 142 974 l 148 958 l 148 -172 l 142 -189 l 133 -203 l 118 -213 l 100 -216 l 83 -212 l 69 -201 l 60 -187 l 56 -170 z "},"}":{"ha":411,"x_min":56,"x_max":355,"o":"m 100 -298 q 56 -254 57 -292 l 57 -243 l 61 -231 l 68 -221 q 117 -194 84 -210 q 157 -174 149 -178 l 189 -141 l 222 -75 l 222 -14 l 189 53 l 144 99 l 102 186 l 98 203 l 98 292 l 104 312 l 115 326 l 222 406 l 195 422 l 110 507 l 102 519 l 98 533 l 98 624 l 100 639 l 146 730 l 189 774 l 222 842 l 222 903 l 189 970 l 157 1001 l 79 1040 l 64 1054 l 57 1072 l 56 1088 l 62 1104 l 75 1118 l 95 1126 l 115 1123 l 214 1076 l 264 1023 l 311 930 l 313 916 l 313 829 l 311 817 l 266 724 l 222 678 l 189 612 l 189 559 l 254 494 l 340 449 l 351 431 l 355 411 l 351 395 l 340 380 l 189 267 l 189 217 l 222 151 l 266 104 l 311 12 l 313 -1 l 313 -85 l 311 -102 l 264 -194 l 217 -244 q 121 -294 186 -262 l 100 -298 z "},"~":{"ha":703,"x_min":56,"x_max":647,"o":"m 148 437 l 148 368 l 144 355 l 138 346 l 126 334 l 110 327 l 92 328 l 75 335 l 62 349 l 56 365 l 56 457 l 57 468 l 61 477 q 89 507 71 488 q 113 532 107 526 l 130 541 l 141 543 l 227 543 l 241 540 l 487 418 l 540 418 l 556 433 l 557 509 l 566 525 l 581 537 l 600 543 l 623 537 l 639 524 l 647 503 l 647 412 l 643 395 l 635 382 l 590 338 l 579 331 l 566 327 l 475 327 l 461 330 l 216 452 l 163 452 l 148 437 z "},"¡":{"ha":202,"x_min":56,"x_max":148,"o":"m 95 659 q 56 705 57 671 l 57 755 l 61 769 l 71 780 l 85 791 l 104 793 l 121 789 l 134 777 l 142 768 l 148 754 l 148 704 l 142 686 l 132 673 l 121 663 l 109 659 l 95 659 m 148 498 l 148 -132 l 141 -149 l 130 -163 l 115 -171 l 98 -174 l 81 -170 l 69 -160 l 60 -148 l 56 -130 l 56 502 l 61 518 l 71 532 l 85 540 l 103 543 l 121 538 l 134 529 l 144 514 l 148 498 z "},"¢":{"ha":701,"x_min":56,"x_max":646,"o":"m 250 121 l 410 576 l 320 576 l 252 543 l 182 472 l 148 365 l 148 296 l 182 189 l 250 121 m 604 210 q 646 170 640 203 l 646 156 l 642 144 l 633 132 l 545 45 l 453 -3 l 435 -7 l 302 -7 l 270 -102 l 263 -114 l 250 -125 l 236 -130 l 221 -132 l 208 -127 l 194 -119 l 186 -110 l 180 -96 l 180 -83 l 182 -72 l 220 34 l 194 47 l 104 138 q 88 182 96 159 q 71 236 80 206 q 56 282 61 266 l 56 381 l 102 517 l 110 529 l 197 617 l 290 663 l 308 669 l 442 669 l 477 769 l 490 785 l 509 792 l 525 792 l 541 787 l 555 773 l 563 757 l 564 746 q 543 683 557 723 q 525 628 529 643 l 551 613 l 639 524 l 643 514 l 646 503 l 646 490 l 643 479 l 633 465 l 618 456 l 601 452 l 583 454 q 535 499 564 468 q 494 540 506 530 l 335 84 l 423 84 l 490 118 l 571 198 l 581 206 l 591 209 l 604 210 z "},"£":{"ha":785,"x_min":56,"x_max":731,"o":"m 609 84 q 647 35 646 73 l 644 23 l 639 12 l 624 -1 l 601 -7 l 100 -7 l 88 -5 l 75 1 l 66 9 l 60 19 l 56 33 l 56 46 l 61 61 l 72 73 l 85 81 l 103 84 l 138 334 l 138 452 l 96 452 l 75 460 l 65 468 l 58 480 l 56 494 l 57 507 l 65 526 l 83 538 l 99 543 l 138 543 l 183 762 l 273 899 l 281 909 l 293 916 l 423 959 l 518 960 q 593 937 547 954 q 659 916 640 921 l 674 906 l 684 892 l 727 808 l 731 795 l 730 779 l 724 765 l 713 754 l 701 746 l 689 743 l 675 745 l 662 749 l 652 755 l 644 766 l 610 834 l 511 868 l 442 868 l 339 833 l 270 730 l 232 543 l 445 541 l 460 536 l 472 524 l 479 509 l 480 491 l 476 477 l 468 465 l 456 457 l 442 452 l 231 452 l 231 327 l 195 84 l 609 84 z "},"¤":{"ha":785,"x_min":56,"x_max":731,"o":"m 358 659 l 251 624 l 183 556 l 148 449 l 148 380 l 183 273 l 251 205 l 358 168 l 427 168 l 534 205 l 602 273 l 639 380 l 639 449 l 602 556 l 534 624 l 427 659 l 358 659 m 191 694 q 212 707 199 703 l 342 750 l 437 751 q 509 728 464 745 q 575 707 555 712 l 594 694 l 647 773 l 659 787 l 675 792 l 692 793 l 708 787 l 720 774 l 727 765 l 731 753 l 731 742 l 727 730 l 659 628 l 678 610 l 685 598 l 731 460 l 730 361 l 685 229 l 678 218 l 659 199 l 724 106 l 728 95 l 731 80 l 730 68 l 722 54 l 712 45 l 699 38 l 685 35 l 670 38 l 656 45 l 647 54 l 594 133 l 585 125 q 449 79 555 114 l 435 76 l 342 77 l 212 121 l 191 133 l 138 54 l 126 42 l 110 37 l 94 37 l 77 42 l 65 53 l 60 62 l 56 75 l 56 85 l 60 99 l 125 199 l 109 218 l 102 229 l 57 361 l 56 461 l 102 598 l 109 610 l 125 628 l 60 727 l 56 745 l 58 762 l 66 777 l 81 789 l 99 793 l 117 791 l 127 785 q 164 736 142 770 q 191 694 186 701 z "},"¥":{"ha":869,"x_min":56,"x_max":814,"o":"m 389 452 l 180 452 l 161 458 l 146 472 l 138 491 l 141 513 l 152 529 l 170 540 l 183 543 l 339 543 l 64 887 l 57 902 l 56 917 l 58 930 l 66 943 l 80 956 l 99 960 l 118 958 l 133 945 l 435 571 l 735 945 l 749 956 l 765 960 l 783 958 l 798 948 l 808 936 l 814 921 l 812 905 l 807 888 l 530 543 l 685 543 l 700 540 l 718 529 l 728 513 l 731 491 l 724 472 l 708 458 l 689 452 l 480 452 l 480 377 l 696 374 l 713 366 l 726 351 l 731 334 l 728 313 l 722 304 l 712 294 l 703 289 l 690 285 l 480 285 l 480 33 l 475 18 l 467 5 l 454 -3 l 441 -7 l 422 -5 l 407 3 l 396 15 l 389 31 l 389 285 l 178 285 l 164 290 l 152 298 l 142 311 l 138 326 l 140 342 l 148 357 l 160 369 l 175 374 l 389 377 l 389 452 z "},"¦":{"ha":202,"x_min":56,"x_max":148,"o":"m 56 -170 l 56 293 l 61 309 l 72 324 l 88 334 l 106 335 l 121 331 l 133 321 l 142 308 l 148 293 l 148 -174 l 141 -190 l 132 -205 l 117 -213 l 99 -216 l 81 -212 l 68 -201 l 58 -186 l 56 -170 m 56 456 l 56 960 l 61 977 l 72 990 l 88 1000 l 106 1001 l 121 997 l 133 987 l 142 975 l 148 960 l 148 452 l 141 435 l 132 420 l 117 412 l 99 410 l 81 414 l 68 423 l 58 439 l 56 456 z "},"§":{"ha":618,"x_min":56,"x_max":564,"o":"m 244 533 l 180 469 l 148 403 l 148 342 l 180 275 l 254 199 l 374 127 l 439 191 l 472 258 l 472 320 l 439 387 l 365 461 l 244 533 m 187 1 q 231 -39 217 0 l 229 -53 l 221 -72 l 189 -106 l 189 -117 l 220 -176 l 279 -208 l 340 -208 l 400 -176 l 430 -117 l 430 -56 l 400 7 l 194 132 l 107 220 l 58 313 l 56 331 l 56 415 l 58 430 l 106 524 l 163 582 l 153 589 l 144 598 l 99 692 l 98 705 l 99 800 l 144 894 l 152 905 q 256 959 168 914 l 361 959 q 415 935 381 952 q 457 913 449 917 l 467 906 q 495 853 477 888 q 518 808 513 818 l 521 798 l 522 741 l 517 727 l 509 715 l 465 673 l 453 663 l 441 659 l 426 659 q 389 704 391 671 l 391 716 l 400 735 l 430 766 l 430 777 l 400 837 l 340 868 l 279 868 l 220 837 l 189 777 l 189 716 l 220 654 l 425 530 l 514 441 l 560 350 l 564 334 l 564 245 l 560 229 l 514 137 l 457 79 l 467 72 l 475 62 l 521 -33 l 522 -43 l 522 -129 l 518 -148 l 475 -235 l 468 -243 l 458 -251 l 362 -297 l 269 -298 l 256 -297 l 163 -251 l 153 -244 q 99 -137 149 -237 l 98 -81 l 100 -69 l 106 -60 l 153 -11 l 164 -4 l 175 0 l 187 1 z "},"¨":{"ha":452,"x_min":56,"x_max":397,"o":"m 148 830 l 148 745 l 141 726 l 130 711 l 114 703 l 96 701 l 79 707 l 64 720 l 56 742 l 56 833 l 61 853 l 71 864 l 83 872 l 98 876 l 113 875 l 126 869 l 137 859 l 144 846 l 148 830 m 397 830 l 397 745 l 392 726 l 381 711 l 363 703 l 346 701 l 330 707 l 313 720 l 305 742 l 305 833 l 311 853 l 321 864 l 334 872 l 347 876 l 362 875 l 377 869 l 388 859 l 395 846 l 397 830 z "},"©":{"ha":784,"x_min":56,"x_max":730,"o":"m 358 701 l 250 665 l 182 597 l 148 490 l 148 380 l 182 273 l 250 205 l 358 168 l 426 168 l 534 205 l 602 273 l 639 380 l 639 490 l 602 597 l 534 665 l 426 701 l 358 701 m 212 749 l 343 792 l 444 792 l 583 745 l 675 654 l 682 646 l 730 505 l 730 363 l 682 224 l 591 132 l 582 125 l 444 77 l 342 77 l 201 125 l 110 216 l 103 224 l 56 365 l 56 507 l 104 647 l 194 739 l 212 749 m 454 663 l 538 621 l 551 613 l 560 598 l 563 585 l 563 570 l 556 556 l 547 545 l 537 538 l 525 536 l 513 534 l 499 538 l 423 576 l 361 576 l 301 545 l 273 486 l 273 384 l 301 324 l 361 293 l 423 293 l 500 331 l 521 335 l 540 330 l 555 315 l 563 297 l 563 278 l 555 263 l 541 250 l 449 205 l 435 201 l 339 203 l 244 248 l 235 256 l 227 269 l 184 353 l 180 363 l 182 509 l 228 602 l 235 613 l 244 621 l 331 663 l 342 667 l 437 669 l 454 663 z "},"ª":{"ha":618,"x_min":56,"x_max":564,"o":"m 391 445 l 338 418 l 408 418 l 397 429 l 391 445 m 389 761 l 340 785 l 279 785 l 213 751 l 180 719 l 148 652 l 148 591 l 178 532 l 237 502 l 298 502 l 365 534 l 389 559 l 389 761 m 399 859 q 427 876 408 869 l 439 876 l 457 871 l 472 857 l 477 846 l 480 831 l 480 454 l 475 433 l 461 418 l 521 418 l 534 415 l 545 408 l 555 400 l 562 389 l 564 377 l 562 358 l 552 342 l 536 331 l 518 327 l 99 327 l 79 332 l 64 346 l 57 362 l 57 382 l 65 400 l 79 412 l 99 418 l 198 418 l 121 457 l 109 467 q 60 562 76 529 l 56 576 l 56 665 l 58 681 l 106 772 l 159 826 l 248 872 l 264 876 l 358 876 l 369 872 l 399 859 z "},"«":{"ha":494,"x_min":56,"x_max":439,"o":"m 236 446 l 368 578 l 382 583 l 399 585 l 412 581 l 425 571 l 435 560 l 439 544 l 438 529 l 431 515 l 334 414 l 431 312 l 438 298 l 439 283 l 435 269 l 425 256 l 412 247 l 397 243 l 382 244 l 368 250 l 236 382 l 227 396 l 222 414 l 227 431 l 236 446 m 69 446 l 201 578 l 216 583 l 232 585 l 245 581 l 258 571 l 269 560 l 273 544 l 271 529 l 266 515 l 167 414 l 266 312 l 271 298 l 273 283 l 269 269 l 258 256 l 245 247 l 231 243 l 216 244 l 201 250 l 69 382 l 60 396 l 56 414 l 60 431 l 69 446 z "},"¬":{"ha":785,"x_min":56,"x_max":731,"o":"m 639 368 l 98 368 l 80 373 l 66 385 l 58 400 l 56 418 l 60 433 l 69 448 l 83 456 l 99 460 l 685 460 l 699 457 l 711 452 l 720 442 l 728 429 l 731 415 l 731 240 l 727 229 l 720 218 l 711 210 l 701 205 l 684 201 l 665 206 l 651 216 l 642 231 l 639 245 l 639 368 z "},"­":{"ha":536,"x_min":56,"x_max":480,"o":"m 102 460 l 442 460 l 458 453 l 471 442 l 479 425 l 480 407 l 475 393 l 467 381 l 454 372 l 439 368 l 95 368 l 79 373 l 65 385 l 58 400 l 56 416 l 60 433 l 69 448 l 84 457 l 102 460 z "},"®":{"ha":784,"x_min":56,"x_max":730,"o":"m 313 460 l 423 460 l 472 483 l 472 553 l 423 576 l 313 576 l 313 460 m 560 229 l 602 273 l 639 380 l 639 490 l 602 597 l 534 665 l 426 701 l 358 701 l 250 665 l 250 663 l 267 669 l 444 667 l 454 663 l 538 621 l 555 606 l 562 594 l 564 582 l 564 454 l 562 441 l 555 427 l 543 418 l 473 382 l 557 270 l 564 250 l 560 229 m 250 206 l 358 168 l 426 168 l 522 201 l 509 203 l 498 208 l 486 214 l 369 368 l 313 368 l 313 245 l 309 231 l 300 216 l 285 206 l 269 201 l 250 206 m 222 247 l 222 624 l 225 640 l 182 597 l 148 490 l 148 380 l 182 273 l 225 229 l 222 247 m 212 749 l 343 792 l 444 792 l 583 745 l 675 654 l 682 646 l 730 505 l 730 363 l 682 224 l 591 132 l 582 125 l 444 77 l 342 77 l 201 125 l 110 216 l 103 224 l 56 365 l 56 507 l 104 647 l 194 739 l 212 749 z "},"¯":{"ha":536,"x_min":56,"x_max":480,"o":"m 102 834 l 442 834 l 458 827 l 471 817 l 479 800 l 480 783 l 475 768 l 467 755 l 454 747 l 439 743 l 95 743 l 79 749 l 65 760 l 58 774 l 56 792 l 60 808 l 69 822 l 84 831 l 102 834 z "},"°":{"ha":369,"x_min":56,"x_max":313,"o":"m 163 659 l 148 644 l 148 600 l 163 585 l 208 585 l 222 600 l 222 644 l 208 659 l 163 659 m 60 684 q 75 703 66 693 q 96 723 84 712 q 113 741 107 734 l 130 750 l 141 751 l 228 751 l 250 745 l 301 694 l 311 678 l 313 665 l 313 579 l 312 568 l 307 557 l 256 506 l 240 495 l 227 494 l 141 494 l 130 495 l 119 500 l 66 551 l 57 570 l 56 669 l 60 684 z "},"±":{"ha":618,"x_min":56,"x_max":564,"o":"m 355 210 l 518 210 l 530 209 l 545 199 l 559 186 l 564 170 l 563 152 l 556 138 l 547 129 l 534 122 l 521 118 l 100 118 l 84 121 l 71 129 l 61 141 l 56 156 l 57 174 l 62 189 l 75 201 l 91 209 l 264 210 l 264 368 l 91 369 l 75 377 l 64 388 l 57 401 l 56 418 l 60 431 l 66 445 l 79 454 l 92 458 l 264 460 l 264 631 l 270 644 l 279 655 l 290 663 l 304 669 l 321 667 l 336 659 l 347 648 l 354 633 l 355 460 l 526 458 l 540 454 l 552 446 l 560 433 l 564 419 l 563 403 l 556 388 l 543 377 l 529 369 l 355 368 l 355 210 z "},"²":{"ha":452,"x_min":56,"x_max":397,"o":"m 98 410 q 56 450 62 416 l 56 464 l 60 475 l 66 486 l 274 651 l 305 716 l 305 803 l 256 826 l 195 826 l 119 789 l 100 785 l 81 789 l 68 800 l 58 815 l 56 831 l 61 853 l 76 868 l 165 914 l 182 918 l 270 918 l 282 916 l 374 869 l 387 861 l 393 849 l 397 831 l 397 705 l 393 686 l 345 591 l 232 502 l 354 502 q 397 452 397 495 l 395 439 l 389 429 l 381 419 l 369 414 l 351 410 l 98 410 z "},"³":{"ha":452,"x_min":56,"x_max":397,"o":"m 195 826 l 119 789 l 100 785 l 81 789 l 68 800 l 58 815 l 56 831 l 61 853 l 76 868 l 165 914 l 183 918 l 270 918 l 283 916 l 377 868 l 389 856 l 396 838 l 397 746 l 396 734 l 387 716 l 346 677 l 381 656 l 391 647 l 396 633 l 397 498 l 396 484 l 389 469 l 374 458 l 288 414 l 277 411 l 183 410 l 170 412 l 76 460 l 64 472 l 57 488 l 57 507 l 64 524 l 77 536 l 95 543 l 107 543 l 118 540 l 195 502 l 256 502 l 305 525 l 305 594 l 256 618 l 221 618 l 205 624 l 194 631 l 187 640 l 182 651 l 180 663 l 184 684 l 197 699 l 217 708 l 248 709 l 305 766 l 305 803 l 256 826 l 195 826 z "},"´":{"ha":327,"x_min":56,"x_max":273,"o":"m 60 685 l 189 940 l 201 952 l 218 960 l 236 959 l 252 951 l 264 940 l 270 928 l 273 913 l 270 899 l 138 637 l 126 625 l 111 620 l 94 618 l 77 625 l 65 636 l 57 651 l 56 669 l 60 685 z "},"µ":{"ha":661,"x_min":56,"x_max":605,"o":"m 56 -170 l 56 623 l 61 643 l 69 655 l 80 663 l 95 669 l 109 669 l 122 662 l 133 655 l 141 643 l 148 631 l 148 141 l 205 84 l 332 84 l 395 148 l 430 254 l 430 623 l 431 635 l 444 652 l 458 663 l 479 669 l 498 662 l 507 655 l 515 647 l 521 636 l 522 625 l 522 100 l 537 84 l 571 83 l 583 77 l 593 71 l 601 60 l 605 46 l 605 31 l 600 18 l 587 3 l 571 -5 l 518 -7 l 507 -5 l 487 5 l 444 49 l 437 58 l 381 4 l 370 -3 l 358 -7 l 180 -7 l 163 -1 l 148 11 l 148 -171 l 141 -190 l 133 -203 l 121 -212 l 106 -216 l 91 -214 l 76 -209 l 65 -197 l 58 -184 l 56 -170 z "},"¶":{"ha":618,"x_min":56,"x_max":564,"o":"m 472 -170 l 472 917 l 476 933 l 487 947 l 503 958 l 519 960 l 536 956 l 552 945 l 560 932 l 564 916 l 564 -172 l 560 -189 l 548 -203 l 534 -213 l 517 -216 l 500 -212 l 486 -201 l 475 -187 l 472 -170 m 347 864 l 251 831 l 183 764 l 148 656 l 148 629 l 183 522 l 251 454 l 347 422 l 347 864 m 347 327 l 203 374 l 109 468 l 100 481 l 57 612 l 56 669 l 104 812 l 195 907 l 212 916 l 339 959 l 396 960 l 412 956 l 426 944 l 437 930 l 439 914 l 439 -171 l 435 -187 l 426 -201 l 412 -212 l 397 -216 l 380 -214 l 363 -205 l 353 -190 l 347 -174 l 347 327 z "},"·":{"ha":202,"x_min":56,"x_max":148,"o":"m 57 400 l 56 414 l 57 464 l 61 477 l 71 488 l 85 499 l 104 502 l 121 498 l 134 486 l 142 475 l 148 463 l 148 412 l 142 395 l 132 381 l 122 372 l 110 368 l 96 368 l 83 372 l 72 380 l 62 389 l 57 400 z "},"¸":{"ha":411,"x_min":56,"x_max":355,"o":"m 164 247 l 73 294 l 60 312 l 56 334 l 60 349 l 69 363 l 83 372 l 99 377 l 119 372 l 184 340 l 233 365 l 258 414 l 233 463 l 160 502 l 149 511 l 141 525 l 138 537 l 138 582 l 142 600 l 152 612 l 161 620 l 174 625 l 187 627 l 208 621 l 222 606 l 229 590 l 231 567 l 290 537 l 304 525 l 351 431 l 355 411 l 350 393 l 308 308 l 298 296 l 199 245 l 182 243 l 164 247 z "},"¹":{"ha":285,"x_min":56,"x_max":231,"o":"m 190 876 q 231 833 227 867 l 231 454 l 228 439 l 220 426 l 208 415 l 193 410 l 175 411 l 159 418 l 146 430 l 138 448 l 138 719 l 125 708 l 111 703 l 95 701 l 79 707 l 66 718 l 58 732 l 56 749 l 58 765 l 68 779 l 157 867 l 167 872 l 179 876 l 190 876 z "},"º":{"ha":618,"x_min":56,"x_max":564,"o":"m 382 785 l 321 785 l 252 751 l 222 719 l 189 652 l 189 591 l 218 532 l 279 502 l 340 502 l 407 534 l 439 567 l 472 633 l 472 694 l 442 754 l 382 785 m 518 327 l 99 327 l 77 332 l 62 347 l 56 366 l 57 387 l 68 404 l 84 415 l 100 418 l 240 418 l 163 457 l 151 467 q 122 521 140 484 q 102 562 104 557 l 98 576 l 98 665 l 100 682 l 148 773 l 201 827 l 298 875 l 395 876 l 412 872 l 498 829 l 507 822 l 515 812 l 563 715 l 564 621 l 562 606 l 517 518 l 509 507 l 460 460 l 380 418 l 519 418 l 532 415 l 543 411 l 553 401 l 562 389 l 564 373 l 562 359 l 556 346 l 545 336 l 532 330 l 518 327 z "},"»":{"ha":494,"x_min":56,"x_max":439,"o":"m 161 414 l 68 507 l 60 518 l 56 536 l 58 555 l 66 570 l 80 581 l 94 585 l 107 585 l 121 581 l 132 574 l 262 445 l 270 430 l 273 414 l 270 397 l 262 384 l 132 254 l 121 247 l 109 243 l 95 243 l 80 247 l 66 258 l 58 274 l 56 292 l 60 309 q 117 370 79 332 q 161 414 156 408 m 328 414 l 235 507 l 227 518 l 222 536 l 225 555 l 233 570 l 247 581 l 259 585 l 274 585 l 288 581 l 298 574 l 427 445 l 437 430 l 439 414 l 437 397 l 427 384 l 298 254 l 288 247 l 275 243 l 262 243 l 247 247 l 233 258 l 225 274 l 222 292 l 227 309 q 284 370 245 332 q 328 414 323 408 z "},"¼":{"ha":785,"x_min":56,"x_max":731,"o":"m 514 288 l 449 210 l 514 210 l 514 288 m 559 -7 q 514 39 518 0 l 514 118 l 340 119 l 326 126 l 313 137 l 307 153 l 305 170 l 309 182 l 315 193 l 525 445 l 543 457 l 566 460 l 579 456 l 591 448 l 600 435 l 605 420 l 605 210 l 686 210 l 703 206 l 715 198 l 726 186 l 730 174 l 731 159 q 686 118 722 122 l 605 118 l 604 30 l 597 12 l 582 -1 l 571 -5 l 559 -7 m 233 918 q 273 875 269 909 l 273 496 l 270 480 l 262 468 l 248 457 l 235 452 l 217 453 l 199 460 l 187 472 l 180 488 l 180 761 l 167 750 l 153 745 l 136 743 l 121 749 l 109 760 l 100 773 l 98 791 l 102 807 l 110 821 l 198 909 l 209 914 l 221 918 l 233 918 m 68 194 l 570 739 l 585 749 l 602 751 l 620 747 l 635 738 l 643 724 l 647 707 l 644 692 l 636 677 l 133 130 l 118 121 l 102 118 l 83 122 l 69 130 l 60 146 l 56 163 l 58 179 l 68 194 z "},"½":{"ha":785,"x_min":56,"x_max":731,"o":"m 431 -7 q 389 33 399 -3 l 389 46 l 393 58 l 400 69 l 606 235 l 639 300 l 639 345 l 590 368 l 529 368 l 453 331 l 433 327 l 415 331 l 401 342 l 392 357 l 389 373 l 395 395 l 410 410 l 499 456 l 515 460 l 602 460 l 616 457 l 708 411 l 718 403 l 727 392 l 731 373 l 730 279 q 705 227 723 259 q 684 184 688 194 l 673 171 l 566 84 l 688 84 q 731 37 727 80 l 728 23 l 722 12 l 713 4 l 704 -3 l 686 -7 l 431 -7 m 233 918 q 273 875 269 909 l 273 496 l 270 480 l 262 468 l 248 457 l 235 452 l 217 453 l 199 460 l 187 472 l 180 488 l 180 761 l 167 750 l 153 745 l 136 743 l 121 749 l 109 760 l 100 773 l 98 791 l 102 807 l 110 821 l 198 909 l 209 914 l 221 918 l 233 918 m 68 194 l 570 739 l 585 749 l 602 751 l 620 747 l 635 738 l 643 724 l 647 707 l 644 692 l 636 677 l 133 130 l 118 121 l 102 118 l 83 122 l 69 130 l 60 146 l 56 163 l 58 179 l 68 194 z "},"¾":{"ha":827,"x_min":56,"x_max":772,"o":"m 556 288 l 490 210 l 556 210 l 556 288 m 600 -7 q 556 39 560 0 l 556 118 l 382 119 l 366 126 l 355 137 l 349 153 l 347 170 l 351 182 l 357 193 l 567 445 l 585 457 l 606 460 l 621 456 l 633 448 l 642 435 l 647 420 l 647 210 l 728 210 l 745 206 l 757 198 l 766 186 l 770 174 l 772 159 q 728 118 762 122 l 647 118 l 646 30 l 639 12 l 624 -1 l 613 -5 l 600 -7 m 195 826 l 119 789 l 100 785 l 81 789 l 68 800 l 58 815 l 56 831 l 61 853 l 76 868 l 165 914 l 183 918 l 270 918 l 283 916 l 377 868 l 389 857 l 396 841 l 396 739 l 388 719 l 370 705 l 388 692 l 393 682 l 397 671 l 397 537 l 395 525 l 388 511 l 374 500 l 278 453 l 183 452 l 170 454 l 76 502 l 64 513 l 57 529 l 57 547 l 64 566 l 77 578 l 95 585 l 107 585 l 118 582 l 195 543 l 256 543 l 305 567 l 305 636 l 256 659 l 221 659 l 205 665 l 194 673 l 187 682 l 182 693 l 180 705 l 182 718 l 187 730 l 194 739 l 205 746 l 221 751 l 256 751 l 305 774 l 305 803 l 256 826 l 195 826 m 110 194 l 612 739 l 627 749 l 644 751 l 661 747 l 677 738 l 685 724 l 689 707 l 686 692 l 678 677 l 175 130 l 160 121 l 142 118 l 125 122 l 111 130 l 102 146 l 98 163 l 100 179 l 110 194 z "},"¿":{"ha":703,"x_min":56,"x_max":647,"o":"m 345 659 q 305 705 307 671 l 307 755 l 311 769 l 321 780 l 336 791 l 354 793 l 370 789 l 385 777 l 393 768 l 397 754 l 397 704 l 393 686 l 382 673 l 372 663 l 358 659 l 345 659 m 56 80 l 56 129 l 60 140 l 66 152 l 77 161 l 94 167 l 109 168 l 123 163 l 134 153 l 142 140 l 148 126 l 148 92 l 180 24 l 213 -7 l 279 -41 l 423 -41 l 490 -7 l 522 24 l 556 92 l 556 153 l 522 220 l 490 251 l 327 334 l 315 345 l 308 357 l 305 370 l 307 506 l 311 518 l 320 530 l 331 538 l 345 543 l 359 541 l 374 536 l 387 526 l 395 514 l 397 499 l 397 400 l 538 330 q 570 300 551 320 q 598 273 590 279 l 643 183 l 647 171 l 646 69 l 597 -27 l 543 -83 l 454 -127 l 442 -132 l 259 -132 q 209 -108 240 -125 q 163 -84 178 -91 l 153 -77 l 104 -27 l 60 61 l 56 80 z "},"À":{"ha":869,"x_min":56,"x_max":814,"o":"m 395 1067 l 267 1325 l 264 1343 l 270 1359 l 281 1374 l 297 1382 l 311 1385 l 326 1382 l 339 1375 l 350 1364 l 477 1103 l 480 1086 l 477 1069 l 467 1055 l 453 1046 l 437 1043 l 419 1046 l 406 1054 l 395 1067 m 279 377 l 590 377 l 435 785 l 279 377 m 58 56 l 393 932 l 403 947 l 418 958 l 437 960 l 453 956 l 468 945 l 477 930 l 811 54 l 814 38 l 810 20 l 804 9 l 796 3 l 785 -4 l 773 -7 l 761 -7 l 749 -3 l 739 4 l 731 12 l 726 22 l 625 285 l 244 285 l 144 22 l 137 9 l 125 0 l 110 -5 l 94 -5 l 79 -1 l 66 9 l 58 23 l 56 41 l 58 56 z "},"Á":{"ha":869,"x_min":56,"x_max":814,"o":"m 395 1109 l 522 1366 l 536 1378 l 553 1385 l 570 1383 l 586 1377 l 597 1366 l 602 1352 l 605 1337 l 602 1324 l 472 1062 l 461 1050 l 445 1044 l 427 1043 l 411 1050 l 400 1061 l 392 1077 l 389 1093 l 395 1109 m 279 377 l 590 377 l 435 785 l 279 377 m 58 56 l 393 932 l 403 947 l 418 958 l 437 960 l 453 956 l 468 945 l 477 930 l 811 54 l 814 38 l 810 20 l 804 9 l 796 3 l 785 -4 l 773 -7 l 761 -7 l 749 -3 l 739 4 l 731 12 l 726 22 l 625 285 l 244 285 l 144 22 l 137 9 l 125 0 l 110 -5 l 94 -5 l 79 -1 l 66 9 l 58 23 l 56 41 l 58 56 z "},"Â":{"ha":869,"x_min":56,"x_max":814,"o":"m 437 1133 l 389 1061 l 373 1047 l 355 1043 l 339 1046 l 323 1054 l 311 1067 l 308 1080 l 307 1092 l 309 1103 l 313 1114 l 401 1242 l 416 1256 l 437 1260 l 456 1256 l 471 1242 l 559 1114 l 563 1103 l 566 1092 l 564 1081 l 560 1067 l 551 1054 l 533 1046 l 517 1043 l 499 1047 l 483 1061 l 437 1133 m 279 377 l 590 377 l 435 785 l 279 377 m 58 56 l 393 932 l 403 947 l 418 958 l 437 960 l 453 956 l 468 945 l 477 930 l 811 54 l 814 38 l 810 20 l 804 9 l 796 3 l 785 -4 l 773 -7 l 761 -7 l 749 -3 l 739 4 l 731 12 l 726 22 l 625 285 l 244 285 l 144 22 l 137 9 l 125 0 l 110 -5 l 94 -5 l 79 -1 l 66 9 l 58 23 l 56 41 l 58 56 z "},"Ã":{"ha":869,"x_min":56,"x_max":814,"o":"m 336 1111 l 336 1085 l 334 1073 l 324 1058 l 311 1047 l 293 1043 l 275 1046 l 259 1054 l 248 1067 l 244 1089 l 244 1135 l 248 1152 l 256 1162 l 301 1206 l 311 1213 l 321 1217 l 377 1218 l 395 1213 l 406 1206 l 476 1135 l 521 1135 l 536 1150 l 536 1177 l 541 1195 l 553 1208 l 568 1215 l 586 1218 l 604 1213 l 618 1200 l 627 1183 l 628 1127 l 623 1108 l 616 1099 l 571 1055 l 562 1048 l 552 1044 l 457 1043 l 444 1044 l 426 1055 l 354 1126 l 351 1126 l 336 1111 m 279 377 l 590 377 l 435 785 l 279 377 m 58 56 l 393 932 l 403 947 l 418 958 l 437 960 l 453 956 l 468 945 l 477 930 l 811 54 l 814 38 l 810 20 l 804 9 l 796 3 l 785 -4 l 773 -7 l 761 -7 l 749 -3 l 739 4 l 731 12 l 726 22 l 625 285 l 244 285 l 144 22 l 137 9 l 125 0 l 110 -5 l 94 -5 l 79 -1 l 66 9 l 58 23 l 56 41 l 58 56 z "},"Ä":{"ha":869,"x_min":56,"x_max":814,"o":"m 357 1172 l 357 1086 l 351 1066 l 340 1053 l 324 1044 l 305 1043 l 289 1048 l 274 1062 l 266 1084 l 266 1175 l 271 1195 l 281 1206 l 293 1214 l 307 1218 l 323 1217 l 336 1211 l 347 1200 l 354 1188 l 357 1172 m 606 1172 l 606 1086 l 601 1066 l 590 1053 l 574 1044 l 556 1043 l 538 1048 l 524 1062 l 515 1084 l 515 1175 l 521 1195 l 530 1206 l 543 1214 l 557 1218 l 572 1217 l 586 1211 l 597 1200 l 604 1188 l 606 1172 m 279 377 l 590 377 l 435 785 l 279 377 m 58 56 l 393 932 l 403 947 l 418 958 l 437 960 l 453 956 l 468 945 l 477 930 l 811 54 l 814 38 l 810 20 l 804 9 l 796 3 l 785 -4 l 773 -7 l 761 -7 l 749 -3 l 739 4 l 731 12 l 726 22 l 625 285 l 244 285 l 144 22 l 137 9 l 125 0 l 110 -5 l 94 -5 l 79 -1 l 66 9 l 58 23 l 56 41 l 58 56 z "},"Å":{"ha":869,"x_min":56,"x_max":814,"o":"m 414 1118 l 399 1103 l 399 1058 l 414 1043 l 458 1043 l 473 1058 l 473 1103 l 458 1118 l 414 1118 m 311 1142 l 363 1199 l 382 1208 l 393 1210 l 479 1210 l 502 1203 l 553 1153 l 563 1137 l 566 1123 l 566 1038 l 564 1027 l 559 1016 l 509 964 l 491 952 l 477 951 l 460 951 l 468 945 l 477 930 l 811 54 l 814 38 l 810 20 l 804 9 l 796 3 l 785 -4 l 773 -7 l 761 -7 l 749 -3 l 739 4 l 731 12 l 726 22 l 625 285 l 244 285 l 144 22 l 137 9 l 125 0 l 110 -5 l 94 -5 l 79 -1 l 66 9 l 58 23 l 56 41 l 58 56 l 393 932 l 403 947 l 408 951 l 393 951 l 382 952 l 370 959 l 317 1008 l 308 1028 l 307 1126 l 311 1142 m 279 377 l 590 377 l 435 785 l 279 377 z "},"Æ":{"ha":1008,"x_min":62,"x_max":945,"o":"m 438 377 l 438 690 l 302 377 l 438 377 m 66 57 l 442 932 l 450 945 l 465 956 l 483 960 l 902 960 l 918 956 l 932 947 l 940 936 l 944 925 l 945 913 l 944 902 l 939 890 l 930 880 l 920 872 l 909 869 l 529 868 l 529 543 l 783 543 l 798 537 l 810 526 l 818 513 l 821 498 l 818 480 l 810 468 l 798 457 l 783 452 l 529 452 l 529 84 l 909 83 l 921 79 l 930 72 l 939 64 l 944 53 l 945 41 l 944 27 l 940 16 l 933 7 l 918 -3 l 901 -7 l 481 -7 l 471 -5 l 461 -1 l 445 14 l 438 35 l 438 285 l 264 285 l 151 20 l 142 8 l 130 -1 l 115 -7 l 99 -5 l 83 0 l 72 11 l 64 24 l 62 41 l 66 57 z "},"Ç":{"ha":827,"x_min":56,"x_max":772,"o":"m 726 293 q 772 248 765 289 l 768 228 l 726 142 l 718 132 l 628 45 l 534 -4 l 518 -7 l 467 -7 l 475 -14 l 480 -31 l 483 -54 l 541 -83 l 556 -96 l 602 -189 l 609 -210 l 602 -228 l 562 -312 l 551 -326 l 453 -374 l 433 -378 l 416 -373 l 326 -327 l 311 -308 l 308 -288 l 311 -273 l 323 -256 l 336 -248 l 350 -244 l 372 -248 l 437 -281 l 486 -255 l 511 -208 l 486 -159 l 411 -119 l 400 -110 l 395 -96 l 392 -83 l 392 -39 l 395 -20 l 403 -9 l 407 -7 l 345 -7 l 331 -3 l 243 42 l 152 132 l 144 140 l 100 231 l 56 366 l 56 589 l 100 722 l 146 814 l 240 909 l 335 958 l 350 960 l 518 960 l 537 956 l 628 910 l 716 821 l 726 810 l 768 726 l 772 707 l 769 690 l 760 675 l 746 663 l 731 659 l 709 662 l 692 675 q 666 722 681 690 q 647 761 651 754 l 574 834 l 507 868 l 362 868 l 294 834 l 222 761 l 184 688 l 148 574 l 148 380 l 184 266 l 222 191 l 294 118 l 362 84 l 507 84 l 574 118 l 647 191 l 686 271 l 701 286 l 712 292 l 726 293 z "},"È":{"ha":743,"x_min":56,"x_max":689,"o":"m 331 1067 l 203 1325 l 199 1343 l 206 1359 l 217 1374 l 233 1382 l 247 1385 l 262 1382 l 275 1375 l 286 1364 l 414 1103 l 416 1086 l 414 1069 l 403 1055 l 389 1046 l 372 1043 l 355 1046 l 342 1054 l 331 1067 m 648 84 q 689 46 684 75 l 689 35 l 686 23 l 681 12 l 665 -1 l 644 -7 l 99 -7 l 81 -3 l 68 7 l 58 22 l 56 39 l 56 916 l 58 928 l 64 940 l 80 954 l 100 960 l 644 960 l 656 958 l 670 951 l 680 943 l 686 930 l 689 918 l 688 905 l 684 891 l 675 880 l 663 872 l 650 868 l 148 868 l 148 543 l 442 543 l 456 537 l 469 528 l 477 514 l 480 498 l 477 480 l 469 467 l 456 457 l 442 452 l 148 452 l 148 84 l 648 84 z "},"É":{"ha":743,"x_min":56,"x_max":689,"o":"m 331 1109 l 458 1366 l 472 1378 l 488 1385 l 506 1383 l 522 1377 l 533 1366 l 538 1352 l 541 1337 l 538 1324 l 408 1062 l 397 1050 l 381 1044 l 363 1043 l 347 1050 l 336 1061 l 328 1077 l 326 1093 l 331 1109 m 648 84 q 689 46 684 75 l 689 35 l 686 23 l 681 12 l 665 -1 l 644 -7 l 99 -7 l 81 -3 l 68 7 l 58 22 l 56 39 l 56 916 l 58 928 l 64 940 l 80 954 l 100 960 l 644 960 l 656 958 l 670 951 l 680 943 l 686 930 l 689 918 l 688 905 l 684 891 l 675 880 l 663 872 l 650 868 l 148 868 l 148 543 l 442 543 l 456 537 l 469 528 l 477 514 l 480 498 l 477 480 l 469 467 l 456 457 l 442 452 l 148 452 l 148 84 l 648 84 z "},"Ê":{"ha":743,"x_min":56,"x_max":689,"o":"m 372 1133 l 326 1061 l 309 1047 l 292 1043 l 275 1046 l 258 1054 l 247 1067 l 244 1080 l 243 1092 l 245 1103 l 250 1114 l 338 1242 l 353 1256 l 372 1260 l 392 1256 l 407 1242 l 495 1114 l 499 1103 l 502 1092 l 500 1081 l 496 1067 l 486 1054 l 469 1046 l 453 1043 l 435 1047 l 419 1061 l 372 1133 m 648 84 q 689 46 684 75 l 689 35 l 686 23 l 681 12 l 665 -1 l 644 -7 l 99 -7 l 81 -3 l 68 7 l 58 22 l 56 39 l 56 916 l 58 928 l 64 940 l 80 954 l 100 960 l 644 960 l 656 958 l 670 951 l 680 943 l 686 930 l 689 918 l 688 905 l 684 891 l 675 880 l 663 872 l 650 868 l 148 868 l 148 543 l 442 543 l 456 537 l 469 528 l 477 514 l 480 498 l 477 480 l 469 467 l 456 457 l 442 452 l 148 452 l 148 84 l 648 84 z "},"Ë":{"ha":743,"x_min":56,"x_max":689,"o":"m 293 1172 l 293 1086 l 288 1066 l 277 1053 l 259 1044 l 241 1043 l 225 1048 l 210 1062 l 201 1084 l 201 1175 l 208 1195 l 217 1206 l 229 1214 l 243 1218 l 258 1217 l 273 1211 l 283 1200 l 290 1188 l 293 1172 m 543 1172 l 543 1086 l 537 1066 l 526 1053 l 510 1044 l 491 1043 l 475 1048 l 460 1062 l 452 1084 l 452 1175 l 457 1195 l 467 1206 l 479 1214 l 494 1218 l 509 1217 l 522 1211 l 533 1200 l 540 1188 l 543 1172 m 648 84 q 689 46 684 75 l 689 35 l 686 23 l 681 12 l 665 -1 l 644 -7 l 99 -7 l 81 -3 l 68 7 l 58 22 l 56 39 l 56 916 l 58 928 l 64 940 l 80 954 l 100 960 l 644 960 l 656 958 l 670 951 l 680 943 l 686 930 l 689 918 l 688 905 l 684 891 l 675 880 l 663 872 l 650 868 l 148 868 l 148 543 l 442 543 l 456 537 l 469 528 l 477 514 l 480 498 l 477 480 l 469 467 l 456 457 l 442 452 l 148 452 l 148 84 l 648 84 z "},"Ì":{"ha":202,"x_min":-66,"x_max":151,"o":"m 61 1067 l -66 1325 l -66 1343 l -61 1359 l -50 1374 l -37 1382 l -19 1385 l -5 1382 l 5 1375 l 16 1364 l 148 1103 l 151 1086 l 144 1069 l 136 1055 l 119 1046 l 106 1043 l 85 1046 l 72 1054 l 61 1067 m 56 39 l 56 917 l 60 933 l 71 947 l 85 958 l 104 960 l 119 956 l 133 945 l 142 933 l 148 917 l 148 37 l 142 19 l 133 5 l 118 -4 l 100 -7 l 83 -3 l 69 7 l 60 20 l 56 39 z "},"Í":{"ha":202,"x_min":56,"x_max":275,"o":"m 61 1109 l 191 1366 l 203 1378 l 220 1385 l 239 1383 l 255 1377 l 267 1366 l 273 1352 l 275 1337 l 273 1324 l 141 1062 l 127 1050 l 114 1044 l 95 1043 l 80 1050 l 66 1061 l 58 1077 l 58 1093 l 61 1109 m 56 39 l 56 917 l 60 933 l 71 947 l 85 958 l 104 960 l 119 956 l 133 945 l 142 933 l 148 917 l 148 37 l 142 19 l 133 5 l 118 -4 l 100 -7 l 83 -3 l 69 7 l 60 20 l 56 39 z "},"Î":{"ha":202,"x_min":-24,"x_max":233,"o":"m 104 1133 l 57 1061 l 42 1047 l 23 1043 l 7 1046 l -9 1054 l -20 1067 l -23 1080 l -24 1092 l -22 1103 l -18 1114 l 69 1242 l 84 1256 l 104 1260 l 123 1256 l 138 1242 l 227 1114 l 231 1103 l 233 1092 l 232 1081 l 228 1067 l 218 1054 l 201 1046 l 184 1043 l 167 1047 l 152 1061 l 104 1133 m 56 39 l 56 917 l 60 933 l 71 947 l 85 958 l 104 960 l 119 956 l 133 945 l 142 933 l 148 917 l 148 37 l 142 19 l 133 5 l 118 -4 l 100 -7 l 83 -3 l 69 7 l 60 20 l 56 39 z "},"Ï":{"ha":202,"x_min":-66,"x_max":275,"o":"m 24 1172 l 24 1086 l 19 1066 l 8 1053 l -8 1044 l -26 1043 l -43 1048 l -58 1062 l -66 1084 l -66 1175 l -61 1195 l -52 1206 l -39 1214 l -24 1218 l -9 1217 l 4 1211 l 15 1200 l 22 1188 l 24 1172 m 275 1172 l 275 1086 l 270 1066 l 258 1053 l 241 1044 l 224 1043 l 208 1048 l 191 1062 l 183 1084 l 183 1175 l 189 1195 l 198 1206 l 212 1214 l 225 1218 l 240 1217 l 254 1211 l 266 1200 l 273 1188 l 275 1172 m 56 39 l 56 917 l 60 933 l 71 947 l 85 958 l 104 960 l 119 956 l 133 945 l 142 933 l 148 917 l 148 37 l 142 19 l 133 5 l 118 -4 l 100 -7 l 83 -3 l 69 7 l 60 20 l 56 39 z "},"Ð":{"ha":924,"x_min":62,"x_max":863,"o":"m 279 84 l 518 84 l 625 121 l 696 191 l 732 266 l 770 380 l 770 574 l 732 688 l 696 761 l 625 831 l 518 868 l 279 868 l 279 543 l 452 541 l 467 536 l 477 526 l 484 513 l 487 498 l 484 481 l 477 468 l 465 458 l 452 453 l 279 452 l 279 84 m 187 39 l 187 452 l 107 452 l 94 454 l 80 461 l 71 471 l 65 483 l 62 498 l 64 511 l 71 524 l 80 533 l 94 540 l 107 543 l 187 543 l 187 916 l 193 936 l 209 952 l 218 958 l 229 960 l 528 960 q 605 935 556 952 q 673 913 654 918 q 724 863 692 895 q 766 821 755 831 l 773 812 l 818 722 l 863 586 l 861 363 l 818 231 l 773 141 q 742 109 758 125 q 705 73 726 92 q 674 42 685 53 l 533 -5 l 228 -7 l 213 -1 l 198 8 l 190 22 l 187 39 z "},"Ñ":{"ha":785,"x_min":56,"x_max":731,"o":"m 294 1111 l 294 1085 l 292 1073 l 283 1058 l 270 1047 l 252 1043 l 233 1046 l 220 1054 l 209 1067 l 203 1089 l 203 1135 l 209 1152 l 217 1162 l 262 1206 l 270 1213 l 281 1217 l 336 1218 l 353 1213 l 363 1206 l 437 1135 l 480 1135 l 495 1150 l 495 1177 l 500 1195 l 511 1208 l 528 1215 l 544 1218 l 564 1213 l 578 1200 l 586 1183 l 586 1127 l 581 1108 l 575 1099 l 530 1055 l 519 1048 l 511 1044 l 416 1043 l 403 1044 l 387 1055 l 313 1126 l 311 1126 l 294 1111 m 639 918 q 678 960 644 951 l 690 960 l 701 958 l 711 951 l 726 935 l 731 916 l 731 39 l 728 24 l 722 12 l 705 -1 l 686 -7 l 663 -3 l 648 11 l 148 762 l 148 34 l 141 16 l 130 4 l 115 -4 l 99 -7 l 81 -3 l 68 7 l 58 22 l 56 39 l 56 914 l 58 928 l 64 940 l 80 954 l 100 960 l 122 956 l 137 941 l 639 190 l 639 918 z "},"Ò":{"ha":869,"x_min":56,"x_max":814,"o":"m 389 1067 l 262 1325 l 258 1343 l 264 1359 l 275 1374 l 292 1382 l 305 1385 l 320 1382 l 334 1375 l 345 1364 l 472 1103 l 475 1086 l 472 1069 l 461 1055 l 448 1046 l 430 1043 l 414 1046 l 400 1054 l 389 1067 m 362 868 l 296 834 l 222 761 l 186 688 l 148 574 l 148 380 l 186 266 l 222 191 l 296 118 l 362 84 l 507 84 l 574 118 l 647 191 l 684 266 l 722 380 l 722 574 l 684 688 l 647 761 l 574 834 l 507 868 l 362 868 m 247 914 l 332 956 l 343 960 l 518 960 l 536 956 l 624 913 q 675 863 643 895 q 718 821 707 831 l 726 812 l 769 722 l 811 594 l 814 582 l 814 366 l 768 228 l 720 136 l 633 49 l 623 41 l 532 -5 l 518 -7 l 343 -7 q 288 20 323 1 q 240 45 254 38 l 152 132 l 144 140 l 100 231 l 58 358 l 56 370 l 56 586 l 100 720 l 149 817 l 236 906 l 247 914 z "},"Ó":{"ha":869,"x_min":56,"x_max":814,"o":"m 389 1109 l 517 1366 l 530 1378 l 547 1385 l 564 1383 l 581 1377 l 591 1366 l 597 1352 l 600 1337 l 597 1324 l 467 1062 l 456 1050 l 439 1044 l 422 1043 l 406 1050 l 395 1061 l 387 1077 l 384 1093 l 389 1109 m 362 868 l 296 834 l 222 761 l 186 688 l 148 574 l 148 380 l 186 266 l 222 191 l 296 118 l 362 84 l 507 84 l 574 118 l 647 191 l 684 266 l 722 380 l 722 574 l 684 688 l 647 761 l 574 834 l 507 868 l 362 868 m 247 914 l 332 956 l 343 960 l 518 960 l 536 956 l 624 913 q 675 863 643 895 q 718 821 707 831 l 726 812 l 769 722 l 811 594 l 814 582 l 814 366 l 768 228 l 720 136 l 633 49 l 623 41 l 532 -5 l 518 -7 l 343 -7 q 288 20 323 1 q 240 45 254 38 l 152 132 l 144 140 l 100 231 l 58 358 l 56 370 l 56 586 l 100 720 l 149 817 l 236 906 l 247 914 z "},"Ô":{"ha":869,"x_min":56,"x_max":814,"o":"m 430 1133 l 384 1061 l 368 1047 l 350 1043 l 334 1046 l 316 1054 l 305 1067 l 302 1080 l 301 1092 l 304 1103 l 308 1114 l 396 1242 l 411 1256 l 430 1260 l 450 1256 l 465 1242 l 553 1114 l 557 1103 l 560 1092 l 559 1081 l 555 1067 l 544 1054 l 528 1046 l 511 1043 l 494 1047 l 477 1061 l 430 1133 m 362 868 l 296 834 l 222 761 l 186 688 l 148 574 l 148 380 l 186 266 l 222 191 l 296 118 l 362 84 l 507 84 l 574 118 l 647 191 l 684 266 l 722 380 l 722 574 l 684 688 l 647 761 l 574 834 l 507 868 l 362 868 m 247 914 l 332 956 l 343 960 l 518 960 l 536 956 l 624 913 q 675 863 643 895 q 718 821 707 831 l 726 812 l 769 722 l 811 594 l 814 582 l 814 366 l 768 228 l 720 136 l 633 49 l 623 41 l 532 -5 l 518 -7 l 343 -7 q 288 20 323 1 q 240 45 254 38 l 152 132 l 144 140 l 100 231 l 58 358 l 56 370 l 56 586 l 100 720 l 149 817 l 236 906 l 247 914 z "},"Õ":{"ha":869,"x_min":56,"x_max":814,"o":"m 331 1111 l 331 1085 l 328 1073 l 317 1058 l 305 1047 l 288 1043 l 270 1046 l 254 1054 l 243 1067 l 239 1089 l 239 1135 l 243 1152 l 251 1162 l 296 1206 l 305 1213 l 315 1217 l 370 1218 l 389 1213 l 400 1206 l 471 1135 l 515 1135 l 530 1150 l 530 1177 l 536 1195 l 547 1208 l 563 1215 l 581 1218 l 598 1213 l 613 1200 l 621 1183 l 623 1127 l 617 1108 l 610 1099 l 566 1055 l 556 1048 l 545 1044 l 452 1043 l 438 1044 l 420 1055 l 349 1126 l 346 1126 l 331 1111 m 362 868 l 296 834 l 222 761 l 186 688 l 148 574 l 148 380 l 186 266 l 222 191 l 296 118 l 362 84 l 507 84 l 574 118 l 647 191 l 684 266 l 722 380 l 722 574 l 684 688 l 647 761 l 574 834 l 507 868 l 362 868 m 247 914 l 332 956 l 343 960 l 518 960 l 536 956 l 624 913 q 675 863 643 895 q 718 821 707 831 l 726 812 l 769 722 l 811 594 l 814 582 l 814 366 l 768 228 l 720 136 l 633 49 l 623 41 l 532 -5 l 518 -7 l 343 -7 q 288 20 323 1 q 240 45 254 38 l 152 132 l 144 140 l 100 231 l 58 358 l 56 370 l 56 586 l 100 720 l 149 817 l 236 906 l 247 914 z "},"Ö":{"ha":869,"x_min":56,"x_max":814,"o":"m 351 1172 l 351 1086 l 346 1066 l 335 1053 l 317 1044 l 300 1043 l 283 1048 l 269 1062 l 259 1084 l 259 1175 l 266 1195 l 275 1206 l 288 1214 l 301 1218 l 316 1217 l 331 1211 l 342 1200 l 349 1188 l 351 1172 m 601 1172 l 601 1086 l 595 1066 l 585 1053 l 568 1044 l 551 1043 l 533 1048 l 518 1062 l 510 1084 l 510 1175 l 515 1195 l 525 1206 l 537 1214 l 552 1218 l 567 1217 l 581 1211 l 591 1200 l 598 1188 l 601 1172 m 362 868 l 296 834 l 222 761 l 186 688 l 148 574 l 148 380 l 186 266 l 222 191 l 296 118 l 362 84 l 507 84 l 574 118 l 647 191 l 684 266 l 722 380 l 722 574 l 684 688 l 647 761 l 574 834 l 507 868 l 362 868 m 247 914 l 332 956 l 343 960 l 518 960 l 536 956 l 624 913 q 675 863 643 895 q 718 821 707 831 l 726 812 l 769 722 l 811 594 l 814 582 l 814 366 l 768 228 l 720 136 l 633 49 l 623 41 l 532 -5 l 518 -7 l 343 -7 q 288 20 323 1 q 240 45 254 38 l 152 132 l 144 140 l 100 231 l 58 358 l 56 370 l 56 586 l 100 720 l 149 817 l 236 906 l 247 914 z "},"×":{"ha":632,"x_min":62,"x_max":571,"o":"m 494 174 l 316 349 l 134 168 l 119 161 l 103 160 l 88 165 l 73 176 l 65 189 l 62 205 l 64 220 l 72 233 l 251 414 l 71 595 l 64 612 l 62 628 l 68 644 l 79 656 l 92 665 l 107 669 l 122 667 l 136 658 l 316 479 l 499 659 l 514 667 l 530 669 l 545 662 l 560 651 l 568 639 l 571 624 l 570 609 l 562 594 l 382 414 l 559 237 l 567 225 l 571 210 l 570 193 l 563 179 l 552 168 l 537 161 l 521 160 l 506 164 l 494 174 z "},"Ø":{"ha":883,"x_min":62,"x_max":821,"o":"m 624 792 l 256 163 l 301 118 l 368 84 l 514 84 l 581 118 l 652 191 l 690 266 l 730 380 l 730 574 l 690 688 l 652 761 l 624 792 m 368 868 l 301 834 l 229 761 l 191 688 l 155 574 l 155 380 l 191 266 l 199 247 l 552 849 l 514 868 l 368 868 m 254 914 l 339 956 l 355 960 l 530 960 l 543 956 l 597 928 l 652 1023 l 662 1034 l 677 1040 l 693 1043 l 708 1039 l 722 1031 l 731 1021 l 736 1008 l 738 996 l 735 983 l 673 873 l 726 821 q 774 722 734 806 l 818 593 l 821 581 l 819 365 l 774 231 l 731 140 q 703 110 718 125 q 669 77 688 95 q 640 49 651 60 l 631 41 l 544 -3 l 532 -7 l 354 -7 l 339 -3 l 250 42 l 210 80 l 142 -33 l 134 -41 l 123 -46 l 113 -49 l 102 -49 l 83 -42 l 69 -30 l 62 -11 l 62 7 q 107 88 76 37 q 146 153 138 140 l 107 231 l 62 363 l 62 587 l 107 722 l 152 812 q 241 905 182 845 l 254 914 z "},"Ù":{"ha":785,"x_min":56,"x_max":731,"o":"m 353 1067 l 225 1325 l 222 1343 l 228 1359 l 239 1374 l 255 1382 l 270 1385 l 283 1382 l 297 1375 l 308 1364 l 437 1103 l 439 1086 l 437 1069 l 425 1055 l 411 1046 l 395 1043 l 378 1046 l 363 1054 l 353 1067 m 56 289 l 56 918 l 61 935 l 72 948 l 88 958 l 106 960 l 121 956 l 133 947 l 142 933 l 148 918 l 148 296 l 183 189 l 251 121 l 358 84 l 427 84 l 534 121 l 602 189 l 639 296 l 640 924 l 644 935 l 651 945 l 661 952 l 673 959 l 684 960 l 696 959 l 707 954 l 716 945 l 727 932 l 731 916 l 731 282 l 682 140 l 591 49 l 575 38 l 449 -4 l 437 -7 l 343 -5 l 209 39 l 194 47 l 104 140 l 58 275 l 56 289 z "},"Ú":{"ha":785,"x_min":56,"x_max":731,"o":"m 353 1109 l 480 1366 l 495 1378 l 511 1385 l 528 1383 l 544 1377 l 556 1366 l 562 1352 l 564 1337 l 562 1324 l 430 1062 l 419 1050 l 403 1044 l 387 1043 l 369 1050 l 358 1061 l 350 1077 l 347 1093 l 353 1109 m 56 289 l 56 918 l 61 935 l 72 948 l 88 958 l 106 960 l 121 956 l 133 947 l 142 933 l 148 918 l 148 296 l 183 189 l 251 121 l 358 84 l 427 84 l 534 121 l 602 189 l 639 296 l 640 924 l 644 935 l 651 945 l 661 952 l 673 959 l 684 960 l 696 959 l 707 954 l 716 945 l 727 932 l 731 916 l 731 282 l 682 140 l 591 49 l 575 38 l 449 -4 l 437 -7 l 343 -5 l 209 39 l 194 47 l 104 140 l 58 275 l 56 289 z "},"Û":{"ha":785,"x_min":56,"x_max":731,"o":"m 395 1133 l 347 1061 l 332 1047 l 313 1043 l 297 1046 l 281 1054 l 270 1067 l 267 1080 l 266 1092 l 269 1103 l 273 1114 l 359 1242 l 374 1256 l 395 1260 l 414 1256 l 429 1242 l 517 1114 l 521 1103 l 524 1092 l 522 1081 l 518 1067 l 509 1054 l 491 1046 l 475 1043 l 457 1047 l 442 1061 l 395 1133 m 56 289 l 56 918 l 61 935 l 72 948 l 88 958 l 106 960 l 121 956 l 133 947 l 142 933 l 148 918 l 148 296 l 183 189 l 251 121 l 358 84 l 427 84 l 534 121 l 602 189 l 639 296 l 640 924 l 644 935 l 651 945 l 661 952 l 673 959 l 684 960 l 696 959 l 707 954 l 716 945 l 727 932 l 731 916 l 731 282 l 682 140 l 591 49 l 575 38 l 449 -4 l 437 -7 l 343 -5 l 209 39 l 194 47 l 104 140 l 58 275 l 56 289 z "},"Ü":{"ha":785,"x_min":56,"x_max":731,"o":"m 315 1172 l 315 1086 l 309 1066 l 298 1053 l 282 1044 l 264 1043 l 247 1048 l 232 1062 l 224 1084 l 224 1175 l 229 1195 l 239 1206 l 251 1214 l 266 1218 l 281 1217 l 294 1211 l 305 1200 l 312 1188 l 315 1172 m 566 1172 l 566 1086 l 560 1066 l 548 1053 l 532 1044 l 514 1043 l 498 1048 l 481 1062 l 473 1084 l 473 1175 l 479 1195 l 488 1206 l 502 1214 l 515 1218 l 530 1217 l 544 1211 l 556 1200 l 563 1188 l 566 1172 m 56 289 l 56 918 l 61 935 l 72 948 l 88 958 l 106 960 l 121 956 l 133 947 l 142 933 l 148 918 l 148 296 l 183 189 l 251 121 l 358 84 l 427 84 l 534 121 l 602 189 l 639 296 l 640 924 l 644 935 l 651 945 l 661 952 l 673 959 l 684 960 l 696 959 l 707 954 l 716 945 l 727 932 l 731 916 l 731 282 l 682 140 l 591 49 l 575 38 l 449 -4 l 437 -7 l 343 -5 l 209 39 l 194 47 l 104 140 l 58 275 l 56 289 z "},"Ý":{"ha":869,"x_min":56,"x_max":814,"o":"m 392 1109 l 519 1366 l 533 1378 l 551 1385 l 567 1383 l 583 1377 l 594 1366 l 600 1352 l 602 1337 l 600 1324 l 469 1062 l 458 1050 l 442 1044 l 425 1043 l 408 1050 l 397 1061 l 389 1077 l 387 1093 l 392 1109 m 389 480 l 64 887 l 57 902 l 56 917 l 58 932 l 66 944 l 81 956 l 100 960 l 118 958 l 133 945 l 435 571 l 735 945 l 750 956 l 766 960 l 784 958 l 799 948 l 808 935 l 814 920 l 812 903 l 806 887 l 480 480 l 480 35 l 476 19 l 468 7 l 454 -3 l 441 -7 l 422 -5 l 406 3 l 395 16 l 389 34 l 389 480 z "},"Þ":{"ha":799,"x_min":62,"x_max":738,"o":"m 155 293 l 476 293 l 583 330 l 613 358 l 646 425 l 646 528 l 613 594 l 583 624 l 476 659 l 155 659 l 155 293 m 62 39 l 62 917 l 66 933 l 77 947 l 94 958 l 111 960 l 125 958 l 137 948 l 148 937 l 153 924 l 155 751 l 488 751 l 624 707 l 639 699 l 688 647 l 735 555 l 738 540 l 738 411 l 734 395 l 688 305 l 639 255 l 624 245 l 487 201 l 155 201 l 155 38 l 149 16 l 138 4 l 126 -3 l 111 -7 l 96 -5 l 83 0 l 72 11 l 65 23 l 62 39 z "},"ß":{"ha":758,"x_min":62,"x_max":696,"o":"m 312 -7 q 271 35 278 -1 l 273 49 l 277 60 l 283 71 l 296 79 l 309 84 l 389 84 l 456 118 l 487 151 l 521 217 l 521 320 l 487 387 l 414 460 l 338 499 l 327 506 l 320 515 l 313 526 l 312 538 l 313 552 l 320 563 l 327 572 l 338 579 l 349 583 l 472 585 l 538 618 l 571 650 l 604 716 l 604 811 l 547 868 l 495 868 l 426 834 l 354 761 l 275 604 l 236 484 l 194 321 l 151 62 l 141 50 l 129 39 l 114 35 l 98 37 l 83 43 l 71 53 l 64 68 l 62 83 l 106 340 l 148 510 l 190 639 l 279 815 l 368 906 l 380 914 l 464 956 l 475 959 l 570 960 l 582 958 l 591 952 l 684 863 l 692 849 l 696 831 l 696 701 l 692 686 l 648 601 l 642 590 l 591 543 l 506 499 l 563 439 l 609 350 l 613 338 l 612 195 q 587 142 605 175 q 566 100 570 110 l 559 91 l 510 43 l 418 -3 l 401 -7 l 312 -7 z "},"à":{"ha":701,"x_min":56,"x_max":646,"o":"m 408 776 l 281 1034 l 281 1051 l 286 1067 l 297 1082 l 311 1090 l 328 1093 l 342 1090 l 353 1084 l 363 1073 l 495 811 l 498 795 l 491 777 l 483 764 l 467 754 l 453 751 l 433 754 l 419 762 l 408 776 m 555 477 l 490 543 l 423 576 l 320 576 l 252 543 l 182 472 l 146 365 l 146 296 l 182 189 l 252 118 l 320 84 l 423 84 l 490 118 l 555 183 l 555 477 m 555 39 l 555 53 l 538 41 l 454 -3 l 442 -7 l 298 -5 l 198 45 l 103 140 l 56 281 l 56 382 l 103 521 l 201 620 l 290 663 l 305 669 l 445 667 l 538 621 l 555 609 l 556 629 l 560 643 l 568 655 l 582 663 l 597 669 l 614 667 l 629 658 l 640 646 l 644 635 l 646 624 l 646 33 l 640 16 l 629 3 l 614 -5 l 597 -7 l 581 -3 l 567 8 l 559 22 l 555 39 z "},"á":{"ha":701,"x_min":56,"x_max":646,"o":"m 408 818 l 538 1074 l 551 1086 l 567 1093 l 586 1092 l 602 1085 l 614 1074 l 620 1061 l 623 1046 l 620 1032 l 488 770 l 475 758 l 461 753 l 442 751 l 427 758 l 414 769 l 406 785 l 406 802 l 408 818 m 555 477 l 490 543 l 423 576 l 320 576 l 252 543 l 182 472 l 146 365 l 146 296 l 182 189 l 252 118 l 320 84 l 423 84 l 490 118 l 555 183 l 555 477 m 555 39 l 555 53 l 538 41 l 454 -3 l 442 -7 l 298 -5 l 198 45 l 103 140 l 56 281 l 56 382 l 103 521 l 201 620 l 290 663 l 305 669 l 445 667 l 538 621 l 555 609 l 556 629 l 560 643 l 568 655 l 582 663 l 597 669 l 614 667 l 629 658 l 640 646 l 644 635 l 646 624 l 646 33 l 640 16 l 629 3 l 614 -5 l 597 -7 l 581 -3 l 567 8 l 559 22 l 555 39 z "},"â":{"ha":701,"x_min":56,"x_max":646,"o":"m 452 841 l 404 769 l 389 755 l 370 751 l 354 754 l 338 762 l 327 776 l 324 788 l 323 800 l 326 811 l 330 822 l 416 951 l 431 964 l 452 968 l 471 964 l 486 951 l 574 822 l 578 811 l 581 800 l 579 789 l 575 776 l 566 762 l 548 754 l 532 751 l 514 755 l 499 769 l 452 841 m 555 477 l 490 543 l 423 576 l 320 576 l 252 543 l 182 472 l 146 365 l 146 296 l 182 189 l 252 118 l 320 84 l 423 84 l 490 118 l 555 183 l 555 477 m 555 39 l 555 53 l 538 41 l 454 -3 l 442 -7 l 298 -5 l 198 45 l 103 140 l 56 281 l 56 382 l 103 521 l 201 620 l 290 663 l 305 669 l 445 667 l 538 621 l 555 609 l 556 629 l 560 643 l 568 655 l 582 663 l 597 669 l 614 667 l 629 658 l 640 646 l 644 635 l 646 624 l 646 33 l 640 16 l 629 3 l 614 -5 l 597 -7 l 581 -3 l 567 8 l 559 22 l 555 39 z "},"ã":{"ha":701,"x_min":56,"x_max":646,"o":"m 351 819 l 351 793 l 349 780 l 339 766 l 327 755 l 308 751 l 290 754 l 275 762 l 264 776 l 259 798 l 259 844 l 264 860 l 273 871 l 316 914 l 327 921 l 336 925 l 392 926 l 410 921 l 420 914 l 491 844 l 536 844 l 552 859 l 552 886 l 557 903 l 568 917 l 583 924 l 601 926 l 620 921 l 633 909 l 642 891 l 643 836 l 637 817 l 631 807 l 586 764 l 576 757 l 567 753 l 472 751 l 458 753 l 442 764 l 369 834 l 366 834 l 351 819 m 555 477 l 490 543 l 423 576 l 320 576 l 252 543 l 182 472 l 146 365 l 146 296 l 182 189 l 252 118 l 320 84 l 423 84 l 490 118 l 555 183 l 555 477 m 555 39 l 555 53 l 538 41 l 454 -3 l 442 -7 l 298 -5 l 198 45 l 103 140 l 56 281 l 56 382 l 103 521 l 201 620 l 290 663 l 305 669 l 445 667 l 538 621 l 555 609 l 556 629 l 560 643 l 568 655 l 582 663 l 597 669 l 614 667 l 629 658 l 640 646 l 644 635 l 646 624 l 646 33 l 640 16 l 629 3 l 614 -5 l 597 -7 l 581 -3 l 567 8 l 559 22 l 555 39 z "},"ä":{"ha":701,"x_min":56,"x_max":646,"o":"m 372 880 l 372 795 l 366 774 l 355 761 l 339 753 l 321 751 l 304 757 l 289 770 l 281 792 l 281 883 l 286 903 l 296 914 l 308 922 l 323 926 l 338 925 l 351 920 l 362 909 l 369 895 l 372 880 m 623 880 l 623 795 l 617 774 l 605 761 l 589 753 l 571 751 l 555 757 l 538 770 l 530 792 l 530 883 l 536 903 l 545 914 l 559 922 l 572 926 l 587 925 l 601 920 l 613 909 l 620 895 l 623 880 m 555 477 l 490 543 l 423 576 l 320 576 l 252 543 l 182 472 l 146 365 l 146 296 l 182 189 l 252 118 l 320 84 l 423 84 l 490 118 l 555 183 l 555 477 m 555 39 l 555 53 l 538 41 l 454 -3 l 442 -7 l 298 -5 l 198 45 l 103 140 l 56 281 l 56 382 l 103 521 l 201 620 l 290 663 l 305 669 l 445 667 l 538 621 l 555 609 l 556 629 l 560 643 l 568 655 l 582 663 l 597 669 l 614 667 l 629 658 l 640 646 l 644 635 l 646 624 l 646 33 l 640 16 l 629 3 l 614 -5 l 597 -7 l 581 -3 l 567 8 l 559 22 l 555 39 z "},"å":{"ha":701,"x_min":56,"x_max":646,"o":"m 429 918 l 414 903 l 414 859 l 429 844 l 473 844 l 488 859 l 488 903 l 473 918 l 429 918 m 327 941 l 380 998 l 397 1008 l 408 1009 l 495 1009 l 517 1002 l 568 952 l 578 936 l 581 924 l 581 837 l 579 826 l 574 815 l 524 764 l 507 753 l 494 751 l 408 751 l 397 753 l 387 758 l 334 808 l 324 827 l 323 926 l 327 941 m 555 477 l 490 543 l 423 576 l 320 576 l 252 543 l 182 472 l 146 365 l 146 296 l 182 189 l 252 118 l 320 84 l 423 84 l 490 118 l 555 183 l 555 477 m 555 39 l 555 53 l 538 41 l 454 -3 l 442 -7 l 298 -5 l 198 45 l 103 140 l 56 281 l 56 382 l 103 521 l 201 620 l 290 663 l 305 669 l 445 667 l 538 621 l 555 609 l 556 629 l 560 643 l 568 655 l 582 663 l 597 669 l 614 667 l 629 658 l 640 646 l 644 635 l 646 624 l 646 33 l 640 16 l 629 3 l 614 -5 l 597 -7 l 581 -3 l 567 8 l 559 22 l 555 39 z "},"æ":{"ha":1175,"x_min":62,"x_max":1112,"o":"m 563 477 l 498 543 l 430 576 l 328 576 l 262 543 l 190 472 l 155 365 l 155 296 l 190 189 l 262 118 l 328 84 l 430 84 l 498 118 l 563 183 l 563 477 m 654 418 l 1021 418 l 1021 445 l 987 511 l 956 543 l 888 576 l 787 576 l 719 543 l 654 477 l 654 418 m 563 39 l 563 53 l 545 41 l 461 -3 l 450 -7 l 307 -5 q 254 20 286 3 q 208 43 221 38 l 117 133 l 107 149 l 65 275 l 62 289 l 64 382 l 107 513 l 114 525 l 208 618 l 297 663 l 311 669 l 453 667 l 547 621 l 563 609 l 564 633 l 575 652 l 583 661 l 593 665 l 604 669 l 617 669 l 633 661 l 647 647 l 652 631 l 654 609 l 670 621 l 764 667 l 905 669 l 920 663 l 1010 617 l 1062 564 l 1109 471 l 1112 457 l 1112 369 l 1109 355 l 1101 343 l 1088 331 l 1067 327 l 654 327 l 654 183 l 719 118 l 787 84 l 888 84 l 956 118 l 1036 198 l 1047 206 l 1059 210 l 1074 210 l 1086 206 l 1097 197 l 1105 187 l 1111 175 l 1112 161 l 1109 148 l 1103 136 l 1009 43 l 920 -3 l 909 -7 l 764 -5 l 670 41 l 654 53 l 652 27 l 643 9 l 625 -4 l 614 -7 l 602 -7 l 587 -1 l 574 8 l 566 22 l 563 39 z "},"ç":{"ha":701,"x_min":56,"x_max":646,"o":"m 605 210 q 646 165 646 197 l 644 153 l 640 140 l 544 45 l 444 -5 l 407 -5 l 414 -12 l 422 -30 l 422 -53 l 483 -81 l 498 -95 l 544 -187 l 547 -209 l 541 -227 l 500 -311 l 491 -324 l 392 -373 l 374 -377 l 355 -372 l 267 -326 l 252 -307 l 247 -286 l 252 -271 l 262 -255 l 275 -247 l 292 -243 l 311 -247 l 378 -279 l 425 -254 l 450 -206 l 425 -157 l 353 -118 l 342 -109 l 334 -95 l 331 -81 l 331 -38 l 336 -19 l 345 -8 l 347 -5 l 300 -5 l 289 -3 l 201 42 l 103 140 l 56 279 l 56 381 l 103 521 l 198 617 l 289 663 l 300 667 l 444 667 l 538 621 q 570 593 553 609 q 604 559 586 578 q 633 529 623 540 l 642 518 l 646 505 l 646 487 l 640 473 l 629 461 l 617 454 l 602 452 l 590 453 l 578 457 q 530 503 559 472 q 490 543 500 533 l 423 576 l 320 576 l 252 543 l 182 472 l 146 365 l 146 296 l 182 189 l 252 118 l 320 84 l 423 84 l 490 118 l 571 198 l 581 206 l 593 210 l 605 210 z "},"è":{"ha":703,"x_min":56,"x_max":647,"o":"m 395 776 l 267 1034 l 264 1051 l 270 1067 l 281 1082 l 297 1090 l 311 1093 l 326 1090 l 339 1084 l 350 1073 l 477 811 l 480 795 l 477 777 l 467 764 l 453 754 l 437 751 l 419 754 l 406 762 l 395 776 m 165 418 l 556 418 l 556 445 l 522 511 l 490 543 l 423 576 l 321 576 l 254 543 l 183 472 l 165 418 m 605 210 q 647 172 636 205 l 647 160 l 644 148 l 635 132 l 547 45 l 453 -3 l 435 -7 l 308 -7 l 293 -4 l 198 45 l 104 138 l 57 279 l 56 372 q 80 452 62 401 q 103 519 98 502 q 156 575 121 540 q 198 617 191 610 l 290 663 l 301 667 l 437 669 l 452 665 l 544 618 l 598 563 l 643 475 l 646 465 l 647 369 l 642 350 l 635 340 l 625 334 l 616 328 l 604 327 l 148 327 l 148 296 l 183 189 l 254 118 l 321 84 l 423 84 l 490 118 l 571 198 l 581 206 l 593 209 l 605 210 z "},"é":{"ha":703,"x_min":56,"x_max":647,"o":"m 395 818 l 522 1074 l 536 1086 l 553 1093 l 570 1092 l 586 1085 l 597 1074 l 602 1061 l 605 1046 l 602 1032 l 472 770 l 461 758 l 445 753 l 427 751 l 411 758 l 400 769 l 392 785 l 389 802 l 395 818 m 165 418 l 556 418 l 556 445 l 522 511 l 490 543 l 423 576 l 321 576 l 254 543 l 183 472 l 165 418 m 605 210 q 647 172 636 205 l 647 160 l 644 148 l 635 132 l 547 45 l 453 -3 l 435 -7 l 308 -7 l 293 -4 l 198 45 l 104 138 l 57 279 l 56 372 q 80 452 62 401 q 103 519 98 502 q 156 575 121 540 q 198 617 191 610 l 290 663 l 301 667 l 437 669 l 452 665 l 544 618 l 598 563 l 643 475 l 646 465 l 647 369 l 642 350 l 635 340 l 625 334 l 616 328 l 604 327 l 148 327 l 148 296 l 183 189 l 254 118 l 321 84 l 423 84 l 490 118 l 571 198 l 581 206 l 593 209 l 605 210 z "},"ê":{"ha":703,"x_min":56,"x_max":647,"o":"m 437 841 l 389 769 l 373 755 l 355 751 l 339 754 l 323 762 l 311 776 l 308 788 l 307 800 l 309 811 l 313 822 l 401 951 l 416 964 l 437 968 l 456 964 l 471 951 l 559 822 l 563 811 l 566 800 l 564 789 l 560 776 l 551 762 l 533 754 l 517 751 l 499 755 l 483 769 l 437 841 m 165 418 l 556 418 l 556 445 l 522 511 l 490 543 l 423 576 l 321 576 l 254 543 l 183 472 l 165 418 m 605 210 q 647 172 636 205 l 647 160 l 644 148 l 635 132 l 547 45 l 453 -3 l 435 -7 l 308 -7 l 293 -4 l 198 45 l 104 138 l 57 279 l 56 372 q 80 452 62 401 q 103 519 98 502 q 156 575 121 540 q 198 617 191 610 l 290 663 l 301 667 l 437 669 l 452 665 l 544 618 l 598 563 l 643 475 l 646 465 l 647 369 l 642 350 l 635 340 l 625 334 l 616 328 l 604 327 l 148 327 l 148 296 l 183 189 l 254 118 l 321 84 l 423 84 l 490 118 l 571 198 l 581 206 l 593 209 l 605 210 z "},"ë":{"ha":703,"x_min":56,"x_max":647,"o":"m 357 880 l 357 795 l 351 774 l 340 761 l 324 753 l 305 751 l 289 757 l 274 770 l 266 792 l 266 883 l 271 903 l 281 914 l 293 922 l 307 926 l 323 925 l 336 920 l 347 909 l 354 895 l 357 880 m 606 880 l 606 795 l 601 774 l 590 761 l 574 753 l 556 751 l 538 757 l 524 770 l 515 792 l 515 883 l 521 903 l 530 914 l 543 922 l 557 926 l 572 925 l 586 920 l 597 909 l 604 895 l 606 880 m 165 418 l 556 418 l 556 445 l 522 511 l 490 543 l 423 576 l 321 576 l 254 543 l 183 472 l 165 418 m 605 210 q 647 172 636 205 l 647 160 l 644 148 l 635 132 l 547 45 l 453 -3 l 435 -7 l 308 -7 l 293 -4 l 198 45 l 104 138 l 57 279 l 56 372 q 80 452 62 401 q 103 519 98 502 q 156 575 121 540 q 198 617 191 610 l 290 663 l 301 667 l 437 669 l 452 665 l 544 618 l 598 563 l 643 475 l 646 465 l 647 369 l 642 350 l 635 340 l 625 334 l 616 328 l 604 327 l 148 327 l 148 296 l 183 189 l 254 118 l 321 84 l 423 84 l 490 118 l 571 198 l 581 206 l 593 209 l 605 210 z "},"ì":{"ha":202,"x_min":-66,"x_max":151,"o":"m 61 1067 l -66 1325 l -66 1343 l -61 1359 l -50 1374 l -37 1382 l -19 1385 l -5 1382 l 5 1375 l 16 1364 l 148 1103 l 151 1086 l 144 1069 l 136 1055 l 119 1046 l 106 1043 l 85 1046 l 72 1054 l 61 1067 m 56 39 l 56 627 l 61 643 l 72 656 l 88 665 l 106 669 l 121 663 l 134 654 l 142 640 l 148 625 l 148 35 l 141 18 l 132 4 l 117 -4 l 99 -7 l 81 -3 l 68 7 l 58 22 l 56 39 m 57 860 l 56 872 l 57 922 l 61 936 l 71 947 l 85 958 l 104 960 l 121 956 l 134 944 l 142 935 l 148 921 l 148 871 l 142 853 l 132 838 l 121 830 l 109 826 l 96 826 l 81 830 l 72 837 l 62 848 l 57 860 z "},"í":{"ha":202,"x_min":56,"x_max":275,"o":"m 61 1109 l 191 1366 l 203 1378 l 220 1385 l 239 1383 l 255 1377 l 267 1366 l 273 1352 l 275 1337 l 273 1324 l 141 1062 l 127 1050 l 114 1044 l 95 1043 l 80 1050 l 66 1061 l 58 1077 l 58 1093 l 61 1109 m 56 39 l 56 627 l 61 643 l 72 656 l 88 665 l 106 669 l 121 663 l 134 654 l 142 640 l 148 625 l 148 35 l 141 18 l 132 4 l 117 -4 l 99 -7 l 81 -3 l 68 7 l 58 22 l 56 39 m 57 860 l 56 872 l 57 922 l 61 936 l 71 947 l 85 958 l 104 960 l 121 956 l 134 944 l 142 935 l 148 921 l 148 871 l 142 853 l 132 838 l 121 830 l 109 826 l 96 826 l 81 830 l 72 837 l 62 848 l 57 860 z "},"î":{"ha":202,"x_min":-24,"x_max":233,"o":"m 104 1133 l 57 1061 l 42 1047 l 23 1043 l 7 1046 l -9 1054 l -20 1067 l -23 1080 l -24 1092 l -22 1103 l -18 1114 l 69 1242 l 84 1256 l 104 1260 l 123 1256 l 138 1242 l 227 1114 l 231 1103 l 233 1092 l 232 1081 l 228 1067 l 218 1054 l 201 1046 l 184 1043 l 167 1047 l 152 1061 l 104 1133 m 56 39 l 56 627 l 61 643 l 72 656 l 88 665 l 106 669 l 121 663 l 134 654 l 142 640 l 148 625 l 148 35 l 141 18 l 132 4 l 117 -4 l 99 -7 l 81 -3 l 68 7 l 58 22 l 56 39 m 57 860 l 56 872 l 57 922 l 61 936 l 71 947 l 85 958 l 104 960 l 121 956 l 134 944 l 142 935 l 148 921 l 148 871 l 142 853 l 132 838 l 121 830 l 109 826 l 96 826 l 81 830 l 72 837 l 62 848 l 57 860 z "},"ï":{"ha":202,"x_min":-66,"x_max":275,"o":"m 24 1172 l 24 1086 l 19 1066 l 8 1053 l -8 1044 l -26 1043 l -43 1048 l -58 1062 l -66 1084 l -66 1175 l -61 1195 l -52 1206 l -39 1214 l -24 1218 l -9 1217 l 4 1211 l 15 1200 l 22 1188 l 24 1172 m 275 1172 l 275 1086 l 270 1066 l 258 1053 l 241 1044 l 224 1043 l 208 1048 l 191 1062 l 183 1084 l 183 1175 l 189 1195 l 198 1206 l 212 1214 l 225 1218 l 240 1217 l 254 1211 l 266 1200 l 273 1188 l 275 1172 m 56 39 l 56 627 l 61 643 l 72 656 l 88 665 l 106 669 l 121 663 l 134 654 l 142 640 l 148 625 l 148 35 l 141 18 l 132 4 l 117 -4 l 99 -7 l 81 -3 l 68 7 l 58 22 l 56 39 m 57 860 l 56 872 l 57 922 l 61 936 l 71 947 l 85 958 l 104 960 l 121 956 l 134 944 l 142 935 l 148 921 l 148 871 l 142 853 l 132 838 l 121 830 l 109 826 l 96 826 l 81 830 l 72 837 l 62 848 l 57 860 z "},"ð":{"ha":715,"x_min":62,"x_max":652,"o":"m 562 477 l 498 543 l 430 576 l 327 576 l 259 543 l 189 472 l 153 365 l 153 296 l 189 189 l 259 118 l 327 84 l 430 84 l 498 118 l 562 183 l 562 477 m 557 613 l 562 609 l 562 616 l 524 727 l 487 783 l 433 716 l 419 705 l 403 701 l 388 703 l 372 709 l 361 720 l 355 732 l 353 745 l 354 755 l 358 768 l 425 850 l 294 916 l 283 924 l 273 940 l 271 960 l 277 978 l 289 993 l 309 1001 l 332 998 l 484 922 l 572 1028 l 585 1038 l 602 1043 l 623 1040 l 639 1031 l 650 1016 l 652 993 l 646 972 l 548 856 l 606 766 l 652 629 l 652 160 l 650 146 q 621 113 636 130 q 585 77 605 96 q 553 46 564 57 l 453 -5 l 441 -7 l 307 -5 l 296 -3 l 209 42 l 110 140 l 62 279 l 62 381 l 110 521 l 206 617 l 296 663 l 307 667 l 450 667 l 545 621 l 557 613 z "},"ñ":{"ha":661,"x_min":56,"x_max":605,"o":"m 231 819 l 231 793 l 228 780 l 218 766 l 206 755 l 187 751 l 170 754 l 155 762 l 142 776 l 138 798 l 138 844 l 142 860 l 152 871 l 195 914 l 206 921 l 216 925 l 271 926 l 289 921 l 300 914 l 370 844 l 415 844 l 430 859 l 430 886 l 437 903 l 448 917 l 463 924 l 480 926 l 499 921 l 513 909 l 521 891 l 522 836 l 517 817 l 510 807 l 465 764 l 456 757 l 446 753 l 351 751 l 338 753 l 321 764 l 248 834 l 245 834 l 231 819 m 56 39 l 56 624 l 58 639 l 66 651 l 81 663 l 100 669 l 119 663 l 134 654 l 142 642 l 148 629 l 148 567 l 201 620 l 290 663 l 304 669 l 445 667 l 456 663 l 547 616 l 556 606 q 572 562 564 586 q 590 507 581 537 q 605 460 600 476 l 605 38 l 602 22 l 594 9 l 586 1 l 575 -4 l 563 -7 l 551 -5 l 538 -1 l 529 5 l 521 14 l 515 24 l 514 39 l 514 449 l 480 548 l 423 576 l 321 576 l 254 543 l 148 437 l 146 30 l 140 14 l 127 1 l 113 -5 l 96 -7 l 80 -1 l 68 8 l 58 22 l 56 39 z "},"ò":{"ha":742,"x_min":56,"x_max":688,"o":"m 331 774 l 203 1032 l 201 1050 l 208 1066 l 218 1081 l 233 1089 l 248 1092 l 263 1089 l 275 1082 l 286 1072 l 415 810 l 418 793 l 414 776 l 404 762 l 389 753 l 373 750 l 355 753 l 342 761 l 331 774 m 320 576 l 252 543 l 182 472 l 146 365 l 146 296 l 182 189 l 252 118 l 320 84 l 423 84 l 490 118 l 562 189 l 595 296 l 595 365 l 562 472 l 490 543 l 423 576 l 320 576 m 206 623 l 289 663 l 300 667 l 446 667 l 545 617 l 635 529 l 643 514 l 686 387 l 688 372 l 688 281 l 643 149 l 635 132 l 545 45 l 450 -4 l 435 -7 l 308 -7 l 292 -3 l 197 45 l 109 132 l 100 148 l 56 281 l 56 382 l 103 521 l 193 613 l 206 623 z "},"ó":{"ha":742,"x_min":56,"x_max":688,"o":"m 331 817 l 460 1073 l 472 1085 l 488 1092 l 507 1090 l 524 1084 l 534 1073 l 540 1059 l 543 1044 l 540 1031 l 410 769 l 397 757 l 382 751 l 363 750 l 349 757 l 336 768 l 328 784 l 327 800 l 331 817 m 320 576 l 252 543 l 182 472 l 146 365 l 146 296 l 182 189 l 252 118 l 320 84 l 423 84 l 490 118 l 562 189 l 595 296 l 595 365 l 562 472 l 490 543 l 423 576 l 320 576 m 206 623 l 289 663 l 300 667 l 446 667 l 545 617 l 635 529 l 643 514 l 686 387 l 688 372 l 688 281 l 643 149 l 635 132 l 545 45 l 450 -4 l 435 -7 l 308 -7 l 292 -3 l 197 45 l 109 132 l 100 148 l 56 281 l 56 382 l 103 521 l 193 613 l 206 623 z "},"ô":{"ha":742,"x_min":56,"x_max":688,"o":"m 372 838 l 326 768 l 311 754 l 292 750 l 275 753 l 258 761 l 247 774 l 244 787 l 244 799 q 248 810 245 803 q 250 821 250 818 l 339 949 l 353 963 l 372 967 l 392 963 l 408 949 l 495 821 l 500 810 l 503 799 l 500 788 l 498 774 l 486 761 l 469 753 l 453 750 l 437 754 l 419 768 l 372 838 m 320 576 l 252 543 l 182 472 l 146 365 l 146 296 l 182 189 l 252 118 l 320 84 l 423 84 l 490 118 l 562 189 l 595 296 l 595 365 l 562 472 l 490 543 l 423 576 l 320 576 m 206 623 l 289 663 l 300 667 l 446 667 l 545 617 l 635 529 l 643 514 l 686 387 l 688 372 l 688 281 l 643 149 l 635 132 l 545 45 l 450 -4 l 435 -7 l 308 -7 l 292 -3 l 197 45 l 109 132 l 100 148 l 56 281 l 56 382 l 103 521 l 193 613 l 206 623 z "},"õ":{"ha":742,"x_min":56,"x_max":688,"o":"m 273 818 l 273 792 l 270 779 l 262 765 l 247 754 l 231 750 l 212 753 l 197 761 l 186 774 l 180 796 l 180 842 l 186 859 l 194 869 l 239 913 l 247 920 l 258 924 l 313 925 l 331 920 l 342 913 l 414 842 l 458 842 l 472 857 l 472 884 l 477 902 l 488 916 l 506 922 l 522 925 l 541 920 l 556 907 l 564 890 l 564 834 l 559 815 l 553 806 l 509 762 l 498 755 l 488 751 l 395 750 l 381 751 l 363 762 l 292 833 l 289 833 l 273 818 m 320 576 l 252 543 l 182 472 l 146 365 l 146 296 l 182 189 l 252 118 l 320 84 l 423 84 l 490 118 l 562 189 l 595 296 l 595 365 l 562 472 l 490 543 l 423 576 l 320 576 m 206 623 l 289 663 l 300 667 l 446 667 l 545 617 l 635 529 l 643 514 l 686 387 l 688 372 l 688 281 l 643 149 l 635 132 l 545 45 l 450 -4 l 435 -7 l 308 -7 l 292 -3 l 197 45 l 109 132 l 100 148 l 56 281 l 56 382 l 103 521 l 193 613 l 206 623 z "},"ö":{"ha":742,"x_min":56,"x_max":688,"o":"m 294 879 l 294 793 l 289 773 l 278 760 l 262 751 l 241 750 l 225 755 l 212 769 l 203 791 l 203 882 l 209 902 l 217 913 l 231 921 l 244 925 l 258 924 l 273 918 l 283 907 l 292 894 l 294 879 m 544 879 l 544 793 l 538 773 l 528 760 l 511 751 l 491 750 l 475 755 l 461 769 l 453 791 l 453 882 l 458 902 l 467 913 l 480 921 l 495 925 l 509 924 l 522 918 l 533 907 l 541 894 l 544 879 m 320 576 l 252 543 l 182 472 l 146 365 l 146 296 l 182 189 l 252 118 l 320 84 l 423 84 l 490 118 l 562 189 l 595 296 l 595 365 l 562 472 l 490 543 l 423 576 l 320 576 m 206 623 l 289 663 l 300 667 l 446 667 l 545 617 l 635 529 l 643 514 l 686 387 l 688 372 l 688 281 l 643 149 l 635 132 l 545 45 l 450 -4 l 435 -7 l 308 -7 l 292 -3 l 197 45 l 109 132 l 100 148 l 56 281 l 56 382 l 103 521 l 193 613 l 206 623 z "},"÷":{"ha":716,"x_min":62,"x_max":654,"o":"m 312 206 l 312 255 l 317 270 l 328 281 l 343 290 l 359 293 l 378 289 l 392 278 l 399 269 l 403 254 l 404 205 l 400 186 l 389 172 l 378 164 l 366 160 l 353 160 l 340 164 l 328 171 l 320 180 l 313 193 l 312 206 m 609 368 l 104 368 l 85 373 l 72 385 l 64 400 l 62 418 l 66 433 l 76 448 l 90 456 l 104 460 l 613 460 l 629 454 l 643 445 l 651 429 l 654 411 l 650 395 l 640 381 l 625 372 l 609 368 m 351 576 q 312 623 313 586 l 312 673 l 317 686 l 328 697 l 343 707 l 359 709 l 378 705 l 392 694 l 400 684 l 403 671 l 404 621 l 400 602 l 389 589 l 378 581 l 365 576 l 351 576 z "},"ø":{"ha":758,"x_min":62,"x_max":696,"o":"m 560 480 l 264 117 l 328 84 l 430 84 l 498 118 l 568 189 l 604 296 l 604 365 l 568 472 l 560 480 m 328 576 l 262 543 l 190 472 l 155 365 l 155 296 l 190 189 l 198 180 l 495 544 l 430 576 l 328 576 m 213 623 l 297 663 l 308 667 l 444 669 l 461 663 l 553 617 l 616 693 l 625 701 l 637 708 l 651 709 l 663 707 l 677 701 l 688 690 l 694 677 l 696 662 l 693 647 q 654 597 681 628 q 618 553 627 566 l 643 528 l 650 517 l 694 385 l 696 373 l 696 282 l 647 140 l 557 49 l 547 41 l 461 -3 l 452 -5 l 315 -7 l 297 -3 l 206 45 l 138 -38 l 121 -47 l 102 -49 l 83 -42 l 71 -27 l 62 -9 l 64 8 l 72 24 l 140 109 l 115 133 l 109 144 l 64 277 l 62 288 l 62 380 l 111 521 l 201 613 l 213 623 z "},"ù":{"ha":661,"x_min":56,"x_max":605,"o":"m 290 776 l 163 1034 l 161 1051 l 167 1067 l 178 1082 l 193 1090 l 209 1093 l 222 1090 l 235 1084 l 245 1073 l 374 811 l 378 795 l 373 777 l 363 764 l 349 754 l 334 751 l 315 754 l 301 762 l 290 776 m 56 206 l 56 624 l 60 643 l 72 656 l 92 667 l 104 669 l 115 667 l 125 661 l 134 654 l 146 635 l 148 623 l 148 213 l 180 113 l 237 84 l 340 84 l 407 118 l 514 225 l 515 631 l 519 643 l 526 654 l 536 661 l 548 667 l 562 669 l 574 665 l 586 659 l 594 651 l 602 639 l 605 624 l 605 38 l 601 19 l 589 4 l 574 -5 l 556 -7 l 538 -1 l 525 9 l 518 20 l 514 34 l 514 95 l 460 43 l 365 -4 l 353 -7 l 227 -7 l 212 -4 l 121 41 l 106 53 q 80 128 96 79 q 58 191 64 178 l 56 206 z "},"ú":{"ha":661,"x_min":56,"x_max":605,"o":"m 290 818 l 419 1074 l 431 1086 l 449 1093 l 467 1092 l 483 1085 l 495 1074 l 500 1061 l 503 1046 l 500 1032 l 369 770 l 357 758 l 342 753 l 324 751 l 308 758 l 296 769 l 288 785 l 286 802 l 290 818 m 56 206 l 56 624 l 60 643 l 72 656 l 92 667 l 104 669 l 115 667 l 125 661 l 134 654 l 146 635 l 148 623 l 148 213 l 180 113 l 237 84 l 340 84 l 407 118 l 514 225 l 515 631 l 519 643 l 526 654 l 536 661 l 548 667 l 562 669 l 574 665 l 586 659 l 594 651 l 602 639 l 605 624 l 605 38 l 601 19 l 589 4 l 574 -5 l 556 -7 l 538 -1 l 525 9 l 518 20 l 514 34 l 514 95 l 460 43 l 365 -4 l 353 -7 l 227 -7 l 212 -4 l 121 41 l 106 53 q 80 128 96 79 q 58 191 64 178 l 56 206 z "},"û":{"ha":661,"x_min":56,"x_max":605,"o":"m 334 841 l 286 769 l 270 755 l 252 751 l 236 754 l 220 762 l 209 776 l 206 788 l 203 800 l 206 811 q 297 951 212 821 l 313 964 l 334 968 l 353 964 l 366 951 l 456 822 q 458 811 456 819 q 461 800 461 803 l 461 789 l 456 776 l 448 762 l 430 754 l 414 751 l 395 755 l 381 769 l 334 841 m 56 206 l 56 624 l 60 643 l 72 656 l 92 667 l 104 669 l 115 667 l 125 661 l 134 654 l 146 635 l 148 623 l 148 213 l 180 113 l 237 84 l 340 84 l 407 118 l 514 225 l 515 631 l 519 643 l 526 654 l 536 661 l 548 667 l 562 669 l 574 665 l 586 659 l 594 651 l 602 639 l 605 624 l 605 38 l 601 19 l 589 4 l 574 -5 l 556 -7 l 538 -1 l 525 9 l 518 20 l 514 34 l 514 95 l 460 43 l 365 -4 l 353 -7 l 227 -7 l 212 -4 l 121 41 l 106 53 q 80 128 96 79 q 58 191 64 178 l 56 206 z "},"ü":{"ha":661,"x_min":56,"x_max":605,"o":"m 252 880 l 252 795 l 247 774 l 236 761 l 220 753 l 203 751 l 186 757 l 170 770 l 161 792 l 161 883 l 167 903 l 178 914 l 189 922 l 203 926 l 220 925 l 233 920 l 244 909 l 250 895 l 252 880 m 503 880 l 503 795 l 498 774 l 486 761 l 469 753 l 453 751 l 437 757 l 419 770 l 411 792 l 411 883 l 416 903 l 427 914 l 439 922 l 453 926 l 469 925 l 483 920 l 495 909 l 500 895 l 503 880 m 56 206 l 56 624 l 60 643 l 72 656 l 92 667 l 104 669 l 115 667 l 125 661 l 134 654 l 146 635 l 148 623 l 148 213 l 180 113 l 237 84 l 340 84 l 407 118 l 514 225 l 515 631 l 519 643 l 526 654 l 536 661 l 548 667 l 562 669 l 574 665 l 586 659 l 594 651 l 602 639 l 605 624 l 605 38 l 601 19 l 589 4 l 574 -5 l 556 -7 l 538 -1 l 525 9 l 518 20 l 514 34 l 514 95 l 460 43 l 365 -4 l 353 -7 l 227 -7 l 212 -4 l 121 41 l 106 53 q 80 128 96 79 q 58 191 64 178 l 56 206 z "},"ý":{"ha":743,"x_min":56,"x_max":689,"o":"m 350 818 l 479 1074 l 491 1086 l 509 1093 l 526 1092 l 543 1085 l 555 1074 l 560 1061 l 563 1046 l 560 1032 l 429 770 l 416 758 l 401 753 l 384 751 l 368 758 l 355 769 l 347 785 l 346 802 l 350 818 m 433 18 l 347 -153 l 255 -245 l 164 -294 l 152 -297 l 94 -297 l 77 -292 l 65 -282 l 57 -267 l 56 -248 l 60 -232 l 71 -218 l 80 -212 l 94 -209 l 132 -208 l 198 -174 l 273 -100 l 343 41 l 100 606 l 98 624 l 100 639 l 110 652 l 122 663 l 138 669 l 157 665 l 172 656 l 183 643 l 393 156 l 604 646 l 612 655 l 623 662 l 633 667 l 646 669 l 656 665 l 669 659 l 678 652 l 685 642 l 689 624 l 685 604 l 433 18 z "},"þ":{"ha":716,"x_min":62,"x_max":654,"o":"m 155 183 l 220 118 l 286 84 l 389 84 l 456 118 l 526 189 l 563 296 l 563 365 l 526 472 l 456 543 l 389 576 l 286 576 l 220 543 l 155 477 l 155 183 m 62 -252 l 62 916 l 66 933 l 76 947 l 92 958 l 110 960 l 126 956 l 138 947 l 149 935 l 155 920 l 155 609 l 171 623 l 255 663 l 274 669 l 410 667 q 464 643 430 661 q 509 620 498 625 l 600 529 l 609 515 l 652 381 l 654 288 q 631 214 647 260 q 610 151 616 168 l 602 134 l 511 45 l 419 -3 l 401 -7 l 266 -5 q 212 19 245 1 q 170 41 178 37 l 155 53 l 155 -252 l 153 -267 l 144 -281 l 132 -292 l 118 -297 l 102 -298 l 85 -293 l 73 -282 l 65 -269 l 62 -252 z "},"ÿ":{"ha":743,"x_min":56,"x_max":689,"o":"m 313 880 l 313 795 l 308 774 l 297 761 l 281 753 l 262 751 l 244 757 l 231 770 l 222 792 l 222 883 l 228 903 l 236 914 l 250 922 l 264 926 l 278 925 l 292 920 l 302 909 l 311 895 l 313 880 m 564 880 l 564 795 l 559 774 l 547 761 l 530 753 l 511 751 l 495 757 l 480 770 l 472 792 l 472 883 l 477 903 l 486 914 l 500 922 l 514 926 l 528 925 l 541 920 l 553 909 l 562 895 l 564 880 m 433 18 l 347 -153 l 255 -245 l 164 -294 l 152 -297 l 94 -297 l 77 -292 l 65 -282 l 57 -267 l 56 -248 l 60 -232 l 71 -218 l 80 -212 l 94 -209 l 132 -208 l 198 -174 l 273 -100 l 343 41 l 100 606 l 98 624 l 100 639 l 110 652 l 122 663 l 138 669 l 157 665 l 172 656 l 183 643 l 393 156 l 604 646 l 612 655 l 623 662 l 633 667 l 646 669 l 656 665 l 669 659 l 678 652 l 685 642 l 689 624 l 685 604 l 433 18 z "},"Đ":{"ha":924,"x_min":56,"x_max":856,"o":"m 273 84 l 511 84 l 618 121 l 689 191 l 726 266 l 764 380 l 764 574 l 726 688 l 689 761 l 618 831 l 511 868 l 273 868 l 273 543 l 445 541 l 460 536 l 471 526 l 477 513 l 480 498 l 477 481 l 471 468 l 458 458 l 445 453 l 273 452 l 273 84 m 180 39 l 180 452 l 100 452 l 85 454 l 73 461 l 64 471 l 58 483 l 56 498 l 57 511 l 64 524 l 73 533 l 85 540 l 100 543 l 180 543 l 180 916 l 186 936 l 201 952 l 212 958 l 222 960 l 521 960 q 597 935 549 952 q 665 913 646 918 q 718 862 685 895 q 760 821 751 829 l 766 812 l 811 722 l 856 586 l 854 363 l 811 231 l 766 141 l 667 42 l 526 -5 l 221 -7 l 206 -1 l 191 8 l 183 22 l 180 39 z "},"đ":{"ha":799,"x_min":62,"x_max":738,"o":"m 563 477 l 498 543 l 430 576 l 328 576 l 262 543 l 190 472 l 155 365 l 155 296 l 190 189 l 262 118 l 328 84 l 430 84 l 498 118 l 563 183 l 563 477 m 563 39 l 563 53 l 545 41 l 461 -3 l 450 -5 l 315 -7 l 297 -3 l 209 43 l 117 132 l 109 146 l 64 281 l 62 374 l 64 387 l 107 511 l 114 526 l 206 617 l 297 663 l 315 669 l 452 667 q 505 643 472 661 q 547 621 537 625 l 563 609 l 563 701 l 349 703 l 334 708 l 321 720 l 313 736 l 312 754 l 316 768 l 326 779 l 338 788 l 351 793 l 563 793 l 563 916 l 564 926 l 571 940 l 582 951 l 595 959 l 612 960 l 625 958 l 637 948 l 647 939 l 652 925 l 654 793 l 696 793 l 713 788 l 726 779 l 732 769 l 736 758 l 738 745 l 735 734 l 731 722 l 724 713 l 712 707 l 696 701 l 654 701 l 652 27 l 646 12 l 635 1 l 620 -5 l 602 -7 l 587 -1 l 575 8 l 566 22 l 563 39 z "},"Ł":{"ha":966,"x_min":62,"x_max":905,"o":"m 229 39 l 229 340 l 127 289 l 110 285 l 92 288 l 75 298 l 65 315 l 62 334 l 68 354 l 83 369 l 229 442 l 229 918 l 235 935 l 244 948 l 259 958 l 278 960 l 293 956 l 307 947 l 316 935 l 321 918 l 321 487 l 422 538 l 439 543 l 456 540 l 472 532 l 481 518 l 487 500 l 486 488 l 483 477 l 476 468 l 468 460 l 321 387 l 321 84 l 863 84 l 879 79 l 892 69 l 902 54 l 905 37 l 901 20 l 891 7 l 878 -3 l 861 -7 l 275 -7 l 256 -3 l 243 7 l 232 20 l 229 39 z "},"ł":{"ha":467,"x_min":62,"x_max":404,"o":"m 187 39 l 187 328 l 130 290 l 118 286 l 107 285 l 90 289 l 73 300 l 65 315 l 62 334 l 66 351 l 79 365 l 187 439 l 187 918 l 193 935 l 203 948 l 218 958 l 236 960 l 251 956 l 266 947 l 275 935 l 279 918 l 279 500 l 336 537 l 349 541 l 359 543 l 378 538 l 392 528 l 401 513 l 404 495 l 399 476 l 388 463 l 279 389 l 279 38 l 275 19 l 267 7 l 252 -3 l 239 -7 l 224 -5 l 210 0 l 197 9 l 190 23 l 187 39 z "},"Ŧ":{"ha":799,"x_min":62,"x_max":738,"o":"m 354 39 l 354 368 l 232 368 l 221 369 l 208 377 l 197 387 l 190 400 l 187 414 l 190 429 l 197 442 l 209 453 l 221 458 l 232 460 l 354 460 l 354 868 l 99 869 l 80 878 l 68 891 l 62 911 l 65 930 l 72 941 l 81 951 l 94 958 l 106 960 l 692 960 l 708 958 l 719 949 l 730 940 l 736 926 l 738 913 l 735 899 l 730 887 l 718 876 l 707 871 l 692 868 l 446 868 l 446 460 l 567 460 l 581 458 l 594 450 l 605 439 l 612 425 l 613 408 l 609 395 l 601 384 l 590 374 l 578 369 l 446 368 l 446 39 l 445 26 l 438 12 l 425 0 l 410 -5 l 393 -7 l 378 -1 l 365 9 l 357 23 l 354 39 z "},"ŧ":{"ha":549,"x_min":62,"x_max":487,"o":"m 187 206 l 187 368 l 107 368 l 94 370 l 80 378 l 71 388 l 65 400 l 62 414 l 64 427 l 71 441 l 80 450 l 94 457 l 107 460 l 187 460 l 187 576 l 107 576 l 92 579 l 79 587 l 69 597 l 64 612 l 62 625 l 65 639 l 72 650 l 81 659 l 94 665 l 107 669 l 187 669 l 187 922 l 194 937 l 206 949 l 220 959 l 236 960 l 251 956 l 266 947 l 274 935 l 279 921 l 279 669 l 411 667 l 425 661 l 435 651 l 444 639 l 446 625 l 445 610 l 438 595 l 426 585 l 412 578 l 401 576 l 279 576 l 279 460 l 401 460 l 412 458 l 426 452 l 437 442 l 444 429 l 446 414 l 444 399 l 437 387 l 426 377 l 412 369 l 401 368 l 279 368 l 279 213 l 312 113 l 369 84 l 445 84 l 465 77 l 479 65 l 486 49 l 487 31 l 480 14 l 467 0 l 449 -7 l 353 -7 l 339 -3 l 250 42 l 239 52 l 232 64 l 190 191 l 187 206 z "},"ſ":{"ha":534,"x_min":56,"x_max":479,"o":"m 56 629 q 100 669 68 667 l 180 669 l 180 757 l 228 895 l 236 906 q 332 956 251 916 l 351 960 l 437 960 l 452 956 l 464 948 l 473 936 l 479 922 l 479 907 l 476 895 l 469 884 l 461 876 l 452 871 l 437 868 l 361 868 l 305 841 l 273 741 l 273 37 l 267 18 l 254 3 l 237 -5 l 220 -7 l 205 -1 l 191 8 l 183 20 l 180 37 l 180 576 l 100 576 l 83 581 l 71 587 l 61 600 l 56 614 l 56 629 z "},"Ǝ":{"ha":743,"x_min":56,"x_max":689,"o":"m 644 960 q 689 914 685 954 l 689 38 l 686 22 l 678 8 l 665 -1 l 650 -7 l 100 -7 q 56 38 60 -3 l 60 60 l 66 68 l 75 76 l 96 84 l 597 84 l 597 452 l 302 452 l 289 457 l 275 467 l 267 480 l 264 498 l 267 513 l 275 526 l 288 537 l 302 543 l 597 543 l 597 868 l 95 868 l 80 872 l 69 880 l 61 891 l 57 906 l 56 920 l 60 933 l 68 944 l 77 952 l 90 959 l 100 960 l 644 960 z "},"˄":{"ha":369,"x_min":56,"x_max":313,"o":"m 184 707 l 137 636 l 122 623 l 104 618 l 88 621 l 71 629 l 60 643 l 57 654 l 56 667 l 58 678 l 62 689 l 151 818 l 165 830 l 184 834 l 205 830 l 220 818 l 307 689 l 311 678 l 313 667 l 312 655 l 308 643 l 298 629 l 282 621 l 266 618 l 247 623 l 232 636 l 184 707 z "},"˅":{"ha":369,"x_min":56,"x_max":313,"o":"m 146 639 l 60 770 l 56 783 l 56 795 l 58 807 l 65 818 l 77 827 l 94 833 l 110 833 l 125 827 l 137 817 l 184 746 l 231 815 l 241 826 l 254 833 l 270 834 l 285 831 l 297 825 l 305 814 l 312 800 l 313 787 l 309 772 l 220 635 l 203 623 l 182 618 l 163 624 l 146 639 z "},"ˆ":{"ha":369,"x_min":56,"x_max":313,"o":"m 184 707 l 137 636 l 122 623 l 104 618 l 88 621 l 71 629 l 60 643 l 57 654 l 56 667 l 58 678 l 62 689 l 151 818 l 165 830 l 184 834 l 205 830 l 220 818 l 307 689 l 311 678 l 313 667 l 312 655 l 308 643 l 298 629 l 282 621 l 266 618 l 247 623 l 232 636 l 184 707 z "},"ˇ":{"ha":369,"x_min":56,"x_max":313,"o":"m 146 639 l 60 770 l 56 783 l 56 795 l 58 807 l 65 818 l 77 827 l 94 833 l 110 833 l 125 827 l 137 817 l 184 746 l 231 815 l 241 826 l 254 833 l 270 834 l 285 831 l 297 825 l 305 814 l 312 800 l 313 787 l 309 772 l 220 635 l 203 623 l 182 618 l 163 624 l 146 639 z "},"˒":{"ha":327,"x_min":56,"x_max":273,"o":"m 206 289 l 121 247 l 107 243 l 94 244 l 79 248 l 66 258 l 58 271 l 56 283 l 56 296 l 60 307 l 65 317 l 79 330 l 151 365 l 175 414 l 151 463 l 77 500 l 68 507 l 61 517 l 56 534 l 58 555 l 68 570 l 83 581 l 100 585 l 117 582 l 214 533 l 225 519 l 269 431 l 273 414 l 269 396 l 224 307 l 216 297 l 206 289 z "},"˓":{"ha":327,"x_min":56,"x_max":273,"o":"m 178 365 l 250 330 l 266 313 l 271 297 l 271 279 l 264 263 l 251 250 l 232 243 l 213 245 l 114 294 l 103 308 l 60 393 l 56 412 l 60 433 l 103 519 l 113 530 q 165 559 130 541 q 210 582 201 576 l 224 585 l 239 583 l 254 575 l 267 562 l 273 544 l 271 526 l 264 511 l 251 502 l 178 463 l 153 414 l 178 365 z "},"˘":{"ha":452,"x_min":56,"x_max":397,"o":"m 109 217 q 92 246 100 231 q 75 281 84 262 q 60 311 65 300 l 56 326 l 56 339 l 61 353 l 71 365 l 83 372 l 95 377 l 109 377 l 119 372 l 130 366 l 140 353 l 176 282 l 227 256 l 275 282 l 311 354 l 320 363 l 330 370 l 347 377 l 366 373 l 382 363 l 393 349 l 397 332 l 395 315 l 345 218 l 331 208 l 244 164 l 225 160 l 208 164 l 119 209 l 109 217 z "},"˙":{"ha":202,"x_min":56,"x_max":148,"o":"m 146 803 l 148 789 l 146 739 l 141 726 l 132 713 l 117 704 l 99 701 l 81 705 l 68 716 l 60 727 l 56 741 l 56 791 l 60 808 l 71 822 l 81 830 l 95 834 l 107 834 l 121 830 l 130 823 l 140 814 l 146 803 z "},"˚":{"ha":369,"x_min":56,"x_max":313,"o":"m 163 868 l 148 853 l 148 808 l 163 793 l 208 793 l 222 808 l 222 853 l 208 868 l 163 868 m 60 891 q 75 910 66 901 q 96 930 84 920 q 113 948 107 941 l 130 959 l 141 960 l 228 960 l 250 952 l 301 903 l 311 886 l 313 873 l 313 788 l 312 776 l 307 765 l 256 713 l 240 703 l 227 701 l 141 701 l 130 703 l 119 708 l 66 758 l 57 777 l 56 876 l 60 891 z "},"˛":{"ha":369,"x_min":56,"x_max":313,"o":"m 179 529 l 294 452 l 304 442 l 312 426 l 313 408 l 308 392 l 296 378 l 286 372 l 274 368 l 262 368 l 248 372 l 115 461 l 103 475 l 60 563 l 56 581 l 56 665 l 58 681 l 68 694 l 111 739 l 122 746 l 133 750 l 186 751 l 201 749 l 212 743 l 220 735 l 227 727 l 229 715 l 231 703 l 228 690 l 222 680 l 214 671 l 206 663 l 194 661 l 163 659 l 148 644 l 148 591 l 179 529 z "},"˜":{"ha":494,"x_min":56,"x_max":439,"o":"m 148 437 l 148 410 l 144 397 l 134 384 l 122 372 l 104 368 l 85 370 l 71 380 l 60 393 l 56 414 l 56 460 l 60 476 l 68 487 l 113 530 l 122 537 l 132 541 l 187 543 l 206 537 l 217 530 l 288 460 l 332 460 l 347 475 l 347 503 l 353 519 l 363 533 l 380 540 l 397 543 l 415 537 l 429 525 l 438 509 l 439 453 l 433 433 l 426 423 l 382 381 l 372 373 l 362 369 l 269 368 l 254 369 l 237 381 l 165 452 l 163 452 l 148 437 z "},"˝":{"ha":536,"x_min":56,"x_max":480,"o":"m 229 821 q 179 740 214 791 q 138 680 144 689 l 130 670 l 114 661 l 96 659 l 79 665 l 65 677 l 58 688 l 56 700 l 56 712 l 60 726 l 148 857 l 156 867 l 170 873 l 186 876 l 201 873 l 216 864 l 225 852 l 231 836 l 229 821 m 479 819 q 429 740 463 789 q 389 680 396 690 l 381 670 l 363 661 l 346 659 l 330 665 l 315 677 l 308 688 l 305 700 l 305 712 l 309 726 l 397 857 l 406 867 l 419 873 l 437 876 l 452 873 l 465 864 l 475 852 l 480 836 l 479 819 z "},"̂":{"ha":369,"x_min":56,"x_max":313,"o":"m 146 639 l 60 770 l 56 783 l 56 795 l 58 807 l 65 818 l 77 827 l 94 833 l 110 833 l 125 827 l 137 817 l 184 746 l 231 815 l 241 826 l 254 833 l 270 834 l 285 831 l 297 825 l 305 814 l 312 800 l 313 787 l 309 772 l 220 635 l 203 623 l 182 618 l 163 624 l 146 639 z "},"̌":{"ha":369,"x_min":56,"x_max":313,"o":"m 146 639 l 60 770 l 56 783 l 56 795 l 58 807 l 65 818 l 77 827 l 94 833 l 110 833 l 125 827 l 137 817 l 184 746 l 231 815 l 241 826 l 254 833 l 270 834 l 285 831 l 297 825 l 305 814 l 312 800 l 313 787 l 309 772 l 220 635 l 203 623 l 182 618 l 163 624 l 146 639 z "},"̛":{"ha":369,"x_min":56,"x_max":313,"o":"m 251 460 l 126 374 l 114 369 l 98 368 l 79 373 l 65 385 l 57 401 l 56 412 l 57 423 l 60 435 l 66 445 q 128 487 87 460 q 190 529 170 514 l 222 591 l 222 644 l 208 659 l 179 659 l 163 665 l 149 677 l 140 692 l 138 711 l 144 728 l 156 742 l 172 750 l 229 751 l 247 746 l 258 739 l 301 694 l 312 677 l 313 665 l 313 581 l 312 568 l 267 475 l 251 460 z "},"̦":{"ha":285,"x_min":56,"x_max":231,"o":"m 58 -153 l 146 64 l 160 76 l 175 83 l 193 83 l 210 77 l 221 68 l 228 56 l 231 41 l 229 27 l 140 -194 l 127 -208 l 114 -214 l 98 -216 l 80 -210 l 66 -199 l 58 -186 l 56 -170 l 58 -153 z "},"̧":{"ha":285,"x_min":56,"x_max":231,"o":"m 58 -153 l 146 64 l 160 76 l 175 83 l 193 83 l 210 77 l 221 68 l 228 56 l 231 41 l 229 27 l 140 -194 l 127 -208 l 114 -214 l 98 -216 l 80 -210 l 66 -199 l 58 -186 l 56 -170 l 58 -153 z "},"̴":{"ha":494,"x_min":56,"x_max":439,"o":"m 148 437 l 148 410 l 144 397 l 134 384 l 122 372 l 104 368 l 85 370 l 71 380 l 60 393 l 56 414 l 56 460 l 60 476 l 68 487 l 113 530 l 122 537 l 132 541 l 187 543 l 206 537 l 217 530 l 288 460 l 332 460 l 347 475 l 347 503 l 353 519 l 363 533 l 380 540 l 397 543 l 415 537 l 429 525 l 438 509 l 439 453 l 433 433 l 426 423 l 382 381 l 372 373 l 362 369 l 269 368 l 254 369 l 237 381 l 165 452 l 163 452 l 148 437 z "},"̵":{"ha":785,"x_min":56,"x_max":731,"o":"m 685 368 l 98 368 l 80 373 l 66 385 l 58 400 l 56 418 l 60 433 l 69 448 l 83 456 l 99 460 l 688 460 l 705 454 l 719 445 l 728 429 l 731 412 l 727 395 l 716 381 l 703 372 l 685 368 z "},"̶":{"ha":1035,"x_min":56,"x_max":981,"o":"m 935 368 l 99 368 l 81 372 l 68 384 l 58 399 l 56 416 l 60 431 l 69 446 l 83 456 l 99 460 l 937 460 l 954 456 l 968 446 l 978 430 l 981 412 l 977 396 l 967 382 l 952 372 l 935 368 z "},"Α":{"ha":869,"x_min":56,"x_max":814,"o":"m 279 377 l 590 377 l 435 785 l 279 377 m 58 56 l 393 932 l 403 947 l 418 958 l 437 960 l 453 956 l 468 945 l 477 930 l 811 54 l 814 38 l 810 20 l 804 9 l 796 3 l 785 -4 l 773 -7 l 761 -7 l 749 -3 l 739 4 l 731 12 l 726 22 l 625 285 l 244 285 l 144 22 l 137 9 l 125 0 l 110 -5 l 94 -5 l 79 -1 l 66 9 l 58 23 l 56 41 l 58 56 z "},"Β":{"ha":785,"x_min":56,"x_max":731,"o":"m 148 543 l 469 543 l 576 579 l 605 609 l 639 675 l 639 736 l 605 803 l 576 831 l 469 868 l 148 868 l 148 543 m 148 84 l 469 84 l 576 121 l 605 151 l 639 217 l 639 320 l 605 387 l 576 415 l 469 452 l 148 452 l 148 84 m 56 39 l 56 916 l 57 928 l 62 939 l 79 954 l 99 960 l 479 960 q 524 947 500 955 q 574 930 547 940 q 617 916 602 921 l 627 911 l 682 856 l 727 766 l 731 750 l 731 662 l 727 646 l 681 555 l 633 506 l 621 498 l 633 488 l 681 441 l 727 350 l 731 338 l 730 195 q 705 142 723 175 q 682 98 688 110 l 633 47 l 623 41 l 480 -7 l 96 -7 l 80 -1 l 68 8 l 58 22 l 56 39 z "},"Γ":{"ha":703,"x_min":56,"x_max":647,"o":"m 56 39 l 56 916 l 57 928 l 62 939 l 79 954 l 100 960 l 602 960 l 614 959 l 627 952 l 636 943 l 643 932 l 647 918 l 646 905 l 642 891 l 633 880 l 623 873 l 610 868 l 148 868 l 148 34 l 141 18 l 130 4 l 117 -4 l 99 -7 l 81 -3 l 68 7 l 58 22 l 56 39 z "},"Δ":{"ha":869,"x_min":56,"x_max":814,"o":"m 168 84 l 701 84 l 435 785 l 168 84 m 58 56 l 393 932 l 403 947 l 418 958 l 435 960 l 453 956 l 468 945 l 477 930 l 811 54 l 814 38 l 810 20 l 803 9 l 793 1 l 783 -4 l 769 -7 l 99 -7 l 77 -1 l 62 14 l 56 34 l 58 56 z "},"Ε":{"ha":743,"x_min":56,"x_max":689,"o":"m 648 84 q 689 46 684 75 l 689 35 l 686 23 l 681 12 l 665 -1 l 644 -7 l 99 -7 l 81 -3 l 68 7 l 58 22 l 56 39 l 56 916 l 58 928 l 64 940 l 80 954 l 100 960 l 644 960 l 656 958 l 670 951 l 680 943 l 686 930 l 689 918 l 688 905 l 684 891 l 675 880 l 663 872 l 650 868 l 148 868 l 148 543 l 442 543 l 456 537 l 469 528 l 477 514 l 480 498 l 477 480 l 469 467 l 456 457 l 442 452 l 148 452 l 148 84 l 648 84 z "},"Ζ":{"ha":785,"x_min":56,"x_max":731,"o":"m 98 -7 q 56 42 57 3 l 58 54 l 62 64 l 598 868 l 95 868 q 56 909 61 880 l 56 920 l 58 930 l 64 940 l 79 954 l 100 960 l 685 960 l 699 958 l 711 951 l 724 939 l 730 922 l 730 906 l 724 890 l 187 84 l 692 84 q 731 46 723 76 l 731 34 l 728 22 l 722 12 l 705 -1 l 686 -7 l 98 -7 z "},"Η":{"ha":785,"x_min":56,"x_max":731,"o":"m 731 38 q 689 -7 724 -1 l 675 -5 l 662 -1 l 651 7 l 644 18 l 640 31 l 639 452 l 148 452 l 146 30 l 140 14 l 127 1 l 113 -5 l 96 -7 l 80 -1 l 68 8 l 58 22 l 56 39 l 56 916 l 58 929 l 64 940 l 73 949 l 84 958 l 98 960 l 111 959 l 123 954 l 134 945 l 141 935 l 146 924 l 148 543 l 639 543 l 639 922 q 678 960 647 951 l 690 960 l 701 958 l 711 951 l 726 935 l 731 916 l 731 38 z "},"Θ":{"ha":869,"x_min":56,"x_max":814,"o":"m 560 452 l 301 453 l 285 458 l 273 471 l 266 487 l 266 506 l 270 519 l 278 530 l 290 538 l 304 543 l 568 541 l 585 536 l 595 525 l 604 510 l 605 494 l 600 476 l 590 464 l 576 454 l 560 452 m 362 868 l 296 834 l 222 761 l 186 688 l 148 574 l 148 380 l 186 266 l 222 191 l 296 118 l 362 84 l 507 84 l 574 118 l 647 191 l 684 266 l 722 380 l 722 574 l 684 688 l 647 761 l 574 834 l 507 868 l 362 868 m 247 914 l 332 956 l 343 960 l 518 960 l 536 956 l 624 913 q 675 863 643 895 q 718 821 707 831 l 726 812 l 769 722 l 811 594 l 814 582 l 814 366 l 768 228 l 720 136 l 633 49 l 623 41 l 532 -5 l 518 -7 l 343 -7 q 288 20 323 1 q 240 45 254 38 l 152 132 l 144 140 l 100 231 l 58 358 l 56 370 l 56 586 l 100 720 l 149 817 l 236 906 l 247 914 z "},"Ι":{"ha":202,"x_min":56,"x_max":148,"o":"m 56 39 l 56 917 l 60 933 l 71 947 l 85 958 l 104 960 l 119 956 l 133 945 l 142 933 l 148 917 l 148 37 l 142 19 l 133 5 l 118 -4 l 100 -7 l 83 -3 l 69 7 l 60 20 l 56 39 z "},"Κ":{"ha":785,"x_min":56,"x_max":731,"o":"m 56 39 l 56 916 l 58 929 l 64 940 l 73 949 l 84 958 l 99 960 l 113 959 l 125 952 l 134 944 l 142 933 l 148 921 l 148 442 l 654 947 l 667 956 l 682 960 l 697 959 l 711 951 l 724 937 l 731 920 l 730 902 l 719 884 l 370 534 l 722 65 l 730 52 l 731 38 l 728 23 l 722 12 l 707 -1 l 688 -7 l 667 -3 l 651 8 l 304 469 l 148 311 l 148 38 l 146 26 l 141 16 l 132 4 l 119 -3 l 104 -7 l 90 -5 l 76 0 l 65 11 l 58 23 l 56 39 z "},"Λ":{"ha":869,"x_min":56,"x_max":814,"o":"m 58 56 l 393 932 l 403 947 l 418 958 l 437 960 l 453 956 l 468 945 l 477 930 l 811 54 l 814 38 l 810 20 l 803 9 l 795 1 l 783 -4 l 769 -7 l 755 -5 l 745 0 l 735 8 l 727 18 l 435 785 l 141 18 l 130 4 l 117 -4 l 99 -7 l 81 -3 l 68 7 l 58 20 l 56 39 l 58 56 z "},"Μ":{"ha":869,"x_min":56,"x_max":814,"o":"m 56 39 l 56 914 l 58 929 l 66 943 l 75 951 l 84 958 l 96 960 l 107 960 l 118 958 l 127 951 l 136 943 l 142 933 l 435 168 l 727 933 l 739 949 l 758 959 l 777 959 l 798 949 l 810 933 l 814 914 l 814 38 l 811 23 l 804 9 l 795 1 l 783 -4 l 769 -7 l 755 -5 l 743 0 l 734 9 l 727 20 l 722 34 l 722 665 l 476 20 l 469 9 l 460 0 l 448 -5 l 435 -7 l 420 -5 l 410 0 l 400 9 l 393 20 l 148 665 l 148 33 l 141 16 l 130 3 l 115 -5 l 98 -7 l 80 -3 l 68 8 l 58 22 l 56 39 z "},"Ν":{"ha":785,"x_min":56,"x_max":731,"o":"m 639 918 q 678 960 644 951 l 690 960 l 701 958 l 711 951 l 726 935 l 731 916 l 731 39 l 728 24 l 722 12 l 705 -1 l 686 -7 l 663 -3 l 648 11 l 148 762 l 148 34 l 141 16 l 130 4 l 115 -4 l 99 -7 l 81 -3 l 68 7 l 58 22 l 56 39 l 56 914 l 58 928 l 64 940 l 80 954 l 100 960 l 122 956 l 137 941 l 639 190 l 639 918 z "},"Ξ":{"ha":785,"x_min":56,"x_max":731,"o":"m 685 -7 l 98 -7 l 80 -1 l 66 9 l 58 24 l 56 43 l 60 58 l 69 71 l 81 80 l 99 84 l 688 84 l 705 79 l 719 69 l 728 54 l 731 38 l 727 19 l 716 5 l 703 -3 l 685 -7 m 518 452 l 259 453 l 243 458 l 231 471 l 224 487 l 222 506 l 228 519 l 236 530 l 248 538 l 263 543 l 526 541 l 543 536 l 555 525 l 563 510 l 564 494 l 559 476 l 548 464 l 534 454 l 518 452 m 685 868 l 98 868 l 80 873 l 66 884 l 58 901 l 56 918 l 60 933 l 69 945 l 81 956 l 99 960 l 688 960 l 705 954 l 719 944 l 728 929 l 731 913 l 727 894 l 716 880 l 701 871 l 685 868 z "},"Ο":{"ha":869,"x_min":56,"x_max":814,"o":"m 362 868 l 296 834 l 222 761 l 186 688 l 148 574 l 148 380 l 186 266 l 222 191 l 296 118 l 362 84 l 507 84 l 574 118 l 647 191 l 684 266 l 722 380 l 722 574 l 684 688 l 647 761 l 574 834 l 507 868 l 362 868 m 247 914 l 332 956 l 343 960 l 518 960 l 536 956 l 624 913 q 675 863 643 895 q 718 821 707 831 l 726 812 l 769 722 l 811 594 l 814 582 l 814 366 l 768 228 l 720 136 l 633 49 l 623 41 l 532 -5 l 518 -7 l 343 -7 q 288 20 323 1 q 240 45 254 38 l 152 132 l 144 140 l 100 231 l 58 358 l 56 370 l 56 586 l 100 720 l 149 817 l 236 906 l 247 914 z "},"Π":{"ha":785,"x_min":56,"x_max":731,"o":"m 56 39 l 56 916 l 58 928 l 64 940 l 80 954 l 100 960 l 686 960 l 700 958 l 711 951 l 726 935 l 731 916 l 731 38 l 728 24 l 722 12 l 712 3 l 700 -4 l 688 -7 l 673 -5 l 659 0 l 650 9 l 643 20 l 639 35 l 639 868 l 148 868 l 148 34 l 141 18 l 130 4 l 117 -4 l 99 -7 l 81 -3 l 68 7 l 58 22 l 56 39 z "},"Ρ":{"ha":785,"x_min":56,"x_max":731,"o":"m 148 502 l 469 502 l 576 537 l 605 567 l 639 633 l 639 736 l 605 803 l 576 831 l 469 868 l 148 868 l 148 502 m 56 39 l 56 916 l 57 928 l 62 939 l 79 954 l 99 960 l 479 960 q 524 947 500 955 q 574 930 547 940 q 617 916 602 921 l 627 911 l 682 856 l 727 766 l 731 754 l 730 613 q 705 559 723 593 q 682 514 688 525 l 633 464 l 624 457 l 484 411 l 148 410 l 146 27 l 138 12 l 127 1 l 113 -5 l 96 -7 l 80 -1 l 68 8 l 58 22 l 56 39 z "},"Σ":{"ha":785,"x_min":56,"x_max":731,"o":"m 338 496 l 62 890 l 57 903 l 56 918 l 58 930 l 66 943 l 81 956 l 100 960 l 685 960 l 701 958 l 713 948 l 724 939 l 728 928 l 731 916 l 730 902 l 724 890 l 715 880 l 704 872 l 692 868 l 189 868 l 430 522 l 437 511 l 439 498 l 438 484 q 306 273 393 410 q 184 84 218 137 l 692 84 l 704 80 l 715 72 l 724 62 l 730 50 l 731 38 l 728 23 l 722 12 l 712 3 l 700 -4 l 685 -7 l 100 -7 l 80 -1 l 65 11 l 58 22 l 56 37 l 57 49 l 61 61 l 338 496 z "},"Τ":{"ha":785,"x_min":56,"x_max":731,"o":"m 347 39 l 347 868 l 92 869 l 73 878 l 61 891 l 56 911 l 58 930 l 65 941 l 75 951 l 85 958 l 99 960 l 685 960 l 701 958 l 712 949 l 722 940 l 730 926 l 731 913 l 728 899 l 722 887 l 711 876 l 700 871 l 685 868 l 439 868 l 439 34 l 433 18 l 422 4 l 408 -4 l 391 -7 l 373 -3 l 359 7 l 350 22 l 347 39 z "},"Υ":{"ha":785,"x_min":56,"x_max":731,"o":"m 148 777 l 148 701 l 140 681 l 127 669 l 111 661 l 94 659 l 76 667 l 62 681 l 56 699 l 56 791 l 58 804 l 107 902 l 157 949 l 170 958 l 182 960 l 273 960 l 283 958 l 294 951 l 347 899 l 393 808 l 439 899 l 491 951 l 505 958 l 515 960 l 602 960 l 614 959 l 632 948 l 680 901 l 728 804 l 731 791 l 730 694 l 724 682 l 715 671 l 704 663 l 690 659 l 677 659 l 663 665 l 652 673 l 644 685 l 639 703 l 639 777 l 605 845 l 582 868 l 537 868 l 514 845 l 477 772 l 439 617 l 439 35 l 435 20 l 429 9 l 419 1 l 407 -4 l 388 -7 l 368 0 l 354 14 l 347 34 l 347 617 l 308 772 l 273 845 l 248 868 l 205 868 l 180 845 l 148 777 z "},"Φ":{"ha":785,"x_min":56,"x_max":731,"o":"m 347 659 l 316 659 l 210 624 l 180 594 l 148 528 l 148 425 l 180 358 l 210 330 l 316 293 l 347 293 l 347 659 m 439 293 l 469 293 l 576 330 l 605 358 l 639 425 l 639 528 l 605 594 l 576 624 l 469 659 l 439 659 l 439 293 m 347 39 l 347 201 l 298 203 l 167 247 l 155 255 l 109 301 l 60 393 l 57 404 l 56 541 l 60 559 l 104 647 l 159 701 q 202 718 179 709 q 254 735 225 726 q 298 750 282 745 l 347 751 l 349 924 l 354 939 l 365 949 l 380 959 l 396 960 l 410 958 l 422 948 l 431 937 l 438 924 l 439 751 l 487 750 l 620 705 l 633 697 l 682 646 l 727 559 l 730 548 l 731 411 l 727 395 l 682 305 l 628 251 q 551 224 602 240 q 487 203 500 209 l 439 201 l 439 35 l 435 19 l 425 5 l 414 -1 l 401 -5 l 389 -7 l 374 -3 l 363 4 l 354 14 l 349 26 l 347 39 z "},"Χ":{"ha":785,"x_min":56,"x_max":731,"o":"m 647 14 l 393 395 l 136 8 l 118 -4 l 98 -7 l 77 0 l 62 15 l 57 27 l 56 39 l 57 52 l 62 62 l 338 476 l 61 891 l 56 910 l 57 926 l 65 941 l 77 952 l 94 959 l 110 959 l 125 954 l 137 943 l 393 559 l 650 944 l 669 958 l 689 960 l 708 952 l 724 937 l 730 926 l 731 914 l 730 902 l 724 890 l 449 476 l 727 57 l 731 41 l 728 23 l 719 9 l 707 -1 l 690 -7 l 674 -5 l 658 1 l 647 14 z "},"Ψ":{"ha":952,"x_min":56,"x_max":898,"o":"m 430 39 l 430 243 l 289 289 q 233 342 279 297 q 183 441 210 385 l 142 598 l 123 618 l 94 620 l 73 628 l 60 644 l 56 667 l 58 681 l 65 693 l 76 703 l 90 708 l 149 709 l 163 705 l 174 699 l 218 654 l 227 640 l 270 472 l 305 400 l 335 370 l 430 339 l 430 918 l 437 935 l 446 948 l 461 958 l 479 960 l 495 956 l 509 947 l 518 933 l 522 917 l 522 339 l 618 370 l 647 400 l 684 472 l 727 640 l 735 654 l 780 699 l 792 705 l 804 709 l 853 709 l 865 708 l 878 701 l 888 690 l 895 677 l 898 661 l 891 643 l 878 627 l 860 618 l 829 618 l 810 598 l 769 441 l 726 351 q 711 333 720 342 q 692 313 703 324 q 675 297 681 302 l 663 289 l 522 243 l 522 37 l 519 23 l 513 11 l 503 1 l 490 -5 l 476 -7 l 463 -4 l 450 1 l 439 12 l 433 24 l 430 39 z "},"Ω":{"ha":785,"x_min":56,"x_max":731,"o":"m 269 -7 l 95 -7 l 81 -3 l 71 4 l 62 14 l 57 24 l 56 43 l 60 58 l 69 72 l 83 80 l 100 84 l 198 84 l 100 315 l 57 486 l 56 673 l 104 812 l 198 909 l 212 916 l 342 959 l 444 959 l 575 916 l 591 905 l 682 812 l 728 678 l 731 663 l 730 486 l 686 315 l 587 84 l 686 84 l 701 81 l 713 73 l 726 61 l 730 47 l 730 31 l 726 16 l 715 4 l 703 -3 l 686 -7 l 513 -7 l 502 -4 l 490 3 l 481 9 l 476 20 l 472 38 l 475 56 l 600 346 l 639 503 l 639 656 l 602 764 l 534 831 l 427 868 l 358 868 l 251 831 l 183 764 l 148 656 l 148 503 l 186 346 l 312 47 l 312 27 l 302 9 l 288 -3 l 269 -7 z "},"α":{"ha":826,"x_min":56,"x_max":770,"o":"m 521 293 l 473 480 l 438 553 l 415 576 l 361 576 l 294 543 l 221 469 l 184 396 l 146 282 l 146 175 l 176 115 l 236 84 l 298 84 l 365 118 l 481 235 l 521 293 m 247 623 l 331 663 l 342 667 l 437 669 l 448 667 l 458 661 l 509 613 l 517 601 l 560 513 l 587 407 l 642 515 l 682 637 l 688 648 l 704 662 l 726 669 l 745 663 l 761 651 l 769 633 l 770 614 l 727 481 l 642 309 l 620 277 l 643 180 l 680 109 l 703 84 l 730 84 l 742 81 l 757 72 l 766 60 l 770 45 l 770 30 l 764 15 l 754 4 l 743 -3 l 732 -7 l 684 -7 l 669 -4 l 654 4 l 602 57 l 559 146 l 551 174 l 419 45 l 321 -5 l 309 -7 l 225 -7 l 214 -5 l 121 41 l 107 52 l 60 142 l 56 155 l 56 300 l 100 430 l 144 521 q 235 613 159 537 l 247 623 z "},"β":{"ha":785,"x_min":56,"x_max":731,"o":"m 221 274 l 228 263 l 267 148 l 294 118 l 362 84 l 423 84 l 490 118 l 522 151 l 556 217 l 556 320 l 522 387 l 449 460 l 372 499 l 362 505 l 350 522 l 347 543 l 350 556 l 355 567 l 365 575 l 374 581 l 392 585 l 507 585 l 574 618 l 605 650 l 639 716 l 639 811 l 582 868 l 529 868 l 461 834 l 389 761 l 309 604 l 271 484 l 229 321 l 221 274 m 414 914 l 507 959 l 612 959 l 624 954 q 655 926 640 941 q 688 892 670 911 q 718 863 707 873 l 728 845 l 731 831 l 730 697 l 727 686 l 684 600 l 677 590 l 628 543 l 540 499 l 597 441 l 644 346 l 647 331 l 647 205 l 646 193 l 597 98 l 551 49 l 538 41 l 445 -5 l 350 -7 l 335 -4 l 241 43 l 191 94 l 146 -264 l 137 -281 l 125 -292 l 107 -298 l 90 -297 l 73 -290 l 64 -279 l 57 -264 l 56 -247 l 98 88 l 138 338 l 182 509 l 225 640 l 311 812 q 401 905 326 829 l 414 914 z "},"γ":{"ha":868,"x_min":56,"x_max":812,"o":"m 212 543 l 132 464 l 118 456 l 102 452 l 83 456 l 68 465 l 58 479 l 56 490 l 56 503 l 58 514 l 64 524 l 153 614 q 251 665 208 643 l 267 669 l 311 669 l 323 667 l 414 621 q 432 607 423 616 q 452 587 441 598 q 468 571 463 576 l 475 560 l 521 425 l 522 415 l 522 252 l 644 438 l 684 515 l 726 637 l 732 650 l 741 659 l 753 665 l 765 669 l 779 667 l 791 662 l 802 652 l 810 642 l 812 629 l 811 610 l 769 481 l 726 392 l 473 15 l 393 -146 l 350 -274 l 345 -283 l 336 -290 l 315 -298 l 293 -296 l 277 -285 l 266 -267 l 264 -245 l 308 -110 l 391 54 l 430 251 l 430 407 l 395 514 l 365 543 l 298 576 l 279 576 l 212 543 z "},"δ":{"ha":703,"x_min":56,"x_max":647,"o":"m 415 576 l 321 576 l 252 543 l 183 472 l 148 365 l 148 254 l 183 148 l 212 118 l 279 84 l 340 84 l 407 118 l 477 189 l 514 296 l 514 407 l 477 514 l 415 576 m 647 783 q 606 743 637 749 l 594 743 l 582 747 l 571 754 l 490 834 l 423 868 l 370 868 l 355 853 l 355 800 l 389 734 l 552 571 l 560 557 l 605 420 l 605 283 l 557 140 l 464 46 l 363 -5 l 351 -7 l 266 -7 l 248 -3 l 160 42 l 110 91 l 103 100 l 56 239 l 56 374 l 57 387 l 100 513 l 109 526 l 199 618 l 290 663 l 309 669 l 324 669 l 311 684 l 266 779 l 264 876 l 267 890 l 275 903 l 321 947 l 334 956 l 350 960 l 435 960 l 454 956 l 545 909 l 635 821 l 643 807 l 647 795 l 647 783 z "},"ε":{"ha":618,"x_min":56,"x_max":564,"o":"m 194 381 l 184 393 l 142 477 l 138 490 l 138 587 l 144 602 l 157 617 l 248 663 l 269 669 l 403 667 q 456 642 423 659 q 502 618 488 624 l 553 570 l 559 560 l 563 548 l 564 532 l 557 515 l 544 502 l 529 495 l 511 494 l 496 499 l 449 543 l 382 576 l 279 576 l 231 553 l 231 509 l 258 452 l 377 411 l 387 401 l 393 391 l 397 377 l 396 362 l 393 351 l 387 342 l 368 330 l 209 289 l 148 228 l 148 175 l 178 115 l 237 84 l 340 84 l 407 118 l 487 198 l 499 206 l 510 210 l 524 210 l 536 206 l 547 198 l 557 189 l 563 176 l 564 163 l 563 151 l 556 137 l 463 45 l 361 -5 l 217 -5 q 164 20 197 3 q 118 43 132 38 l 103 58 l 57 152 l 56 164 l 57 256 l 61 269 q 110 321 76 289 q 155 365 144 354 l 168 373 l 194 381 z "},"ζ":{"ha":661,"x_min":56,"x_max":605,"o":"m 289 914 l 381 959 l 400 960 l 418 952 l 430 940 l 438 922 l 438 905 l 430 887 l 415 873 l 338 834 l 313 811 l 313 808 l 335 788 l 442 751 l 560 751 l 575 749 l 586 743 l 595 734 l 602 722 l 605 708 l 604 696 l 601 685 l 594 675 q 502 626 563 656 q 416 582 441 595 l 297 503 l 183 389 l 148 282 l 148 217 l 180 151 l 255 75 l 384 -12 l 392 -23 l 437 -113 l 439 -126 l 439 -213 l 435 -231 l 426 -243 l 381 -288 l 368 -296 l 354 -298 l 259 -298 l 241 -290 l 229 -277 l 182 -180 l 182 -160 l 191 -138 l 203 -130 l 217 -125 l 232 -123 l 245 -127 l 256 -134 l 266 -144 l 296 -208 l 332 -208 l 347 -191 l 347 -138 l 315 -76 l 197 3 l 109 94 l 60 186 l 56 203 l 57 298 l 100 429 l 106 441 l 239 575 l 368 661 l 391 673 l 286 708 l 235 757 l 225 770 l 222 787 l 222 830 l 227 850 q 242 869 233 860 q 262 890 251 879 q 278 906 273 901 l 289 914 z "},"η":{"ha":827,"x_min":56,"x_max":772,"o":"m 555 -298 q 514 -259 521 -292 l 514 -247 l 639 217 l 681 418 l 681 519 l 624 576 l 570 576 l 503 543 l 430 469 l 351 313 l 269 20 l 262 9 l 251 1 l 240 -4 l 227 -7 l 209 -3 l 191 8 l 182 26 l 180 46 l 266 343 l 305 503 l 305 562 l 290 576 l 244 576 l 180 511 l 140 433 l 127 418 l 111 411 l 94 410 l 76 416 l 64 429 l 56 449 l 57 468 l 104 564 l 195 656 l 209 663 l 222 669 l 312 669 l 332 661 l 389 606 l 396 589 l 397 567 l 450 618 l 543 665 l 559 669 l 651 667 l 663 662 q 695 635 680 650 q 729 601 711 620 q 758 571 747 582 l 766 560 l 772 540 l 770 408 l 730 195 l 602 -267 l 594 -282 l 579 -294 l 567 -298 l 555 -298 z "},"θ":{"ha":952,"x_min":56,"x_max":898,"o":"m 697 507 l 722 627 l 722 741 l 689 841 l 632 868 l 587 868 l 564 819 l 564 754 l 600 643 l 678 526 l 697 507 m 180 511 l 140 433 l 127 418 l 111 411 l 94 410 l 76 416 l 64 429 l 56 449 l 57 468 l 103 563 l 193 654 l 203 662 l 225 669 l 309 669 l 321 667 l 339 656 l 385 612 l 393 598 l 396 585 l 396 494 l 355 285 l 355 175 l 389 109 l 411 84 l 465 84 l 528 117 l 602 229 l 642 307 l 674 401 l 606 469 l 518 602 l 472 739 l 472 837 q 496 891 479 857 q 519 936 514 925 l 533 952 l 544 958 l 557 960 l 643 960 l 654 959 l 750 911 l 761 902 l 769 887 l 811 761 l 814 749 l 812 617 l 776 435 l 883 363 l 890 354 l 894 342 l 898 331 l 894 320 l 887 302 l 875 292 l 861 286 l 844 285 l 826 292 l 750 343 l 727 271 l 684 183 l 590 47 l 579 39 l 487 -5 l 393 -7 l 381 -5 l 362 4 l 313 54 l 269 144 l 264 157 l 264 294 l 305 502 l 305 562 l 290 576 l 244 576 l 180 511 z "},"ι":{"ha":452,"x_min":56,"x_max":397,"o":"m 99 343 l 184 642 l 195 655 l 212 665 l 228 669 l 245 663 l 258 655 l 267 643 l 273 629 l 273 614 l 187 317 l 148 159 l 148 100 l 163 84 l 208 84 l 273 151 l 312 229 l 321 240 l 334 247 l 345 251 l 355 251 l 377 243 l 387 236 l 392 227 l 397 206 l 393 186 l 346 95 l 258 5 l 244 -3 l 227 -7 l 141 -7 l 127 -4 l 111 5 l 68 50 l 58 62 l 56 79 l 56 171 l 99 343 z "},"κ":{"ha":785,"x_min":56,"x_max":731,"o":"m 562 126 q 605 81 601 122 l 604 69 l 600 60 l 593 49 l 547 4 l 537 -3 l 525 -7 l 475 -7 l 458 -3 l 445 7 l 401 49 l 395 60 l 312 263 l 282 293 l 229 320 l 146 26 l 140 14 l 129 3 l 114 -5 l 99 -7 l 81 -3 l 69 7 l 60 19 l 56 35 l 57 52 l 224 636 l 231 647 l 239 656 l 250 663 l 262 669 l 274 669 q 313 627 308 661 l 312 610 l 256 418 l 324 452 l 490 617 l 583 665 l 601 669 l 644 669 l 659 665 l 674 655 l 719 610 l 730 593 l 731 574 l 724 557 l 709 543 l 690 534 l 669 537 l 654 545 l 624 576 l 613 576 l 544 543 l 382 381 l 346 359 l 385 321 l 392 309 l 473 107 l 496 84 l 499 84 l 533 118 l 547 125 l 562 126 z "},"λ":{"ha":743,"x_min":56,"x_max":689,"o":"m 174 868 l 98 868 l 76 875 l 64 887 l 56 905 l 56 922 l 62 939 l 76 952 l 95 960 l 184 960 l 197 959 l 293 910 l 342 863 l 349 853 l 685 54 l 689 39 l 685 23 l 678 9 l 665 -1 l 647 -7 l 629 -5 l 614 3 l 601 16 l 395 510 l 182 15 l 175 5 l 165 -1 l 155 -5 l 142 -7 l 130 -5 l 119 0 l 110 7 l 103 16 l 98 35 l 100 56 l 345 628 l 271 804 l 240 834 l 174 868 z "},"μ":{"ha":994,"x_min":56,"x_max":939,"o":"m 57 -240 l 307 635 l 315 651 l 327 661 l 339 667 l 353 669 l 366 665 l 380 658 l 389 648 l 395 636 l 397 623 l 396 610 l 354 465 l 354 448 l 313 243 l 313 141 l 370 84 l 423 84 l 490 118 l 564 191 l 642 347 l 727 643 l 741 658 l 758 667 l 777 667 l 798 658 l 806 648 l 811 637 l 814 627 l 812 614 l 730 317 l 689 159 l 689 100 l 704 84 l 749 84 l 814 151 l 859 236 l 875 247 l 895 251 l 913 247 l 926 236 l 936 221 l 939 203 l 935 186 l 886 94 l 798 4 l 785 -4 l 768 -7 l 682 -7 l 661 0 l 605 54 l 597 72 l 597 95 l 541 42 l 454 -3 l 437 -7 l 350 -7 l 332 -3 l 320 5 l 244 80 l 146 -266 l 140 -277 l 130 -289 l 115 -296 l 99 -298 l 83 -294 l 69 -286 l 60 -273 l 56 -256 l 57 -240 z "},"ν":{"ha":743,"x_min":56,"x_max":689,"o":"m 646 669 q 689 627 680 665 l 686 610 l 642 477 l 598 391 l 510 256 l 381 129 l 251 42 l 115 -4 l 95 -7 l 77 -1 l 64 11 l 57 27 l 56 45 l 99 175 l 138 381 l 172 576 l 98 576 l 85 579 l 76 583 l 62 595 l 56 613 l 56 631 l 62 647 l 76 661 l 96 669 l 229 669 l 244 663 l 255 656 l 266 646 l 271 632 l 271 616 l 229 363 l 187 155 l 174 111 l 206 122 l 323 199 l 441 317 l 519 438 l 559 515 l 600 637 l 610 654 l 621 662 l 632 667 l 646 669 z "},"ξ":{"ha":661,"x_min":56,"x_max":605,"o":"m 224 -298 q 180 -259 190 -294 l 180 -247 l 184 -235 l 190 -224 l 203 -214 l 220 -208 l 298 -208 l 347 -183 l 347 -148 l 324 -123 l 159 -41 l 68 49 l 60 61 l 56 75 l 56 167 l 60 183 l 103 270 l 111 281 q 208 331 142 298 l 236 339 l 152 423 l 142 437 l 138 454 l 138 543 l 142 559 l 186 643 l 193 652 l 205 662 l 290 705 l 278 713 l 233 760 l 225 773 l 222 789 l 222 834 l 228 852 l 235 863 l 278 905 l 289 914 l 381 959 l 400 960 l 418 951 l 430 939 l 438 922 l 438 905 l 430 887 l 415 873 l 338 834 l 313 811 l 313 808 l 335 788 l 442 751 l 560 751 l 575 749 l 587 742 l 598 731 l 604 718 l 605 703 l 602 689 l 595 678 l 586 669 l 572 661 l 560 659 l 442 659 l 328 621 l 262 587 l 231 528 l 231 475 l 293 412 l 400 377 l 477 377 l 491 373 l 505 366 l 514 357 l 521 345 l 522 331 l 519 316 l 514 304 l 503 293 l 490 286 l 476 285 l 399 285 l 241 245 l 178 213 l 148 153 l 148 100 l 213 35 l 377 -49 l 427 -99 l 435 -109 l 438 -119 l 439 -217 l 433 -233 l 422 -245 l 323 -297 l 309 -298 l 224 -298 z "},"ο":{"ha":659,"x_min":56,"x_max":604,"o":"m 320 576 l 252 543 l 182 472 l 148 365 l 148 254 l 182 148 l 212 118 l 278 84 l 340 84 l 407 118 l 477 189 l 514 296 l 514 407 l 477 514 l 449 543 l 382 576 l 320 576 m 206 623 l 289 663 l 300 667 l 395 669 l 412 663 l 502 618 l 553 568 l 562 555 l 604 425 l 604 282 l 557 141 q 506 88 540 121 q 461 45 472 56 l 362 -5 l 351 -7 l 256 -5 l 156 45 l 110 91 l 102 102 l 57 236 l 56 380 l 100 514 l 110 529 l 194 614 l 206 623 z "},"π":{"ha":951,"x_min":56,"x_max":895,"o":"m 182 52 l 332 576 l 316 576 l 210 540 l 127 460 l 117 454 l 106 452 l 95 452 l 81 456 l 68 465 l 58 480 l 56 499 l 60 517 l 68 529 l 156 616 l 170 624 l 296 665 l 307 669 l 853 669 l 871 663 l 886 651 l 895 632 l 895 610 l 891 600 l 884 590 l 865 579 l 853 576 l 655 576 l 688 381 l 730 175 l 770 47 l 772 37 l 769 23 l 764 12 l 755 4 l 736 -5 l 713 -5 l 694 5 l 684 24 l 640 155 l 598 363 l 563 576 l 427 576 l 269 19 l 258 5 l 244 -3 l 228 -7 l 210 -4 l 195 4 l 186 18 l 180 35 l 182 52 z "},"ρ":{"ha":826,"x_min":56,"x_max":770,"o":"m 312 365 l 312 254 l 349 148 l 378 118 l 445 84 l 507 84 l 574 118 l 644 189 l 680 296 l 680 407 l 644 514 l 616 543 l 548 576 l 486 576 l 419 543 l 349 472 l 312 365 m 224 385 l 270 521 l 362 616 l 464 667 l 568 667 l 579 663 l 669 618 l 716 571 l 726 560 l 770 420 l 770 281 l 728 149 l 719 134 l 628 45 l 529 -5 l 517 -7 l 423 -5 l 330 41 l 317 47 l 273 96 l 267 106 l 254 142 l 142 -269 l 136 -282 l 123 -293 l 109 -298 l 92 -297 l 76 -292 l 62 -279 l 56 -263 l 56 -244 l 224 385 z "},"σ":{"ha":827,"x_min":56,"x_max":772,"o":"m 382 576 l 321 576 l 252 543 l 183 472 l 148 365 l 148 254 l 183 148 l 212 118 l 279 84 l 340 84 l 407 118 l 477 189 l 514 296 l 514 407 l 477 514 l 449 543 l 382 576 m 309 669 l 732 669 l 747 662 l 761 651 l 769 637 l 772 620 l 768 604 l 761 591 l 749 582 l 735 578 l 545 576 l 556 566 q 581 492 566 541 q 602 427 597 444 l 605 415 l 605 282 l 560 144 q 511 93 544 125 q 467 47 479 61 q 362 -5 456 41 l 266 -7 l 248 -3 l 160 42 l 110 91 l 103 100 l 56 239 l 56 374 l 57 387 l 100 513 l 109 526 l 199 618 l 290 663 l 309 669 z "},"τ":{"ha":869,"x_min":56,"x_max":814,"o":"m 307 49 l 419 576 l 316 576 l 210 540 l 132 463 l 119 456 l 109 452 l 95 452 l 80 456 l 69 464 l 61 475 l 57 487 l 56 502 l 58 514 l 65 526 l 161 620 l 301 667 l 768 669 l 784 665 l 798 658 l 806 648 l 811 637 l 814 627 l 812 613 l 808 601 l 802 591 l 793 583 l 780 578 l 768 576 l 514 576 l 395 22 l 387 8 l 372 -3 l 355 -7 l 338 -5 l 323 3 l 311 15 l 305 33 l 307 49 z "},"υ":{"ha":868,"x_min":56,"x_max":812,"o":"m 180 511 l 140 433 l 127 418 l 111 411 l 94 410 l 76 416 l 64 429 l 56 449 l 57 468 l 103 563 l 193 654 l 205 662 l 225 669 l 309 669 l 324 665 l 340 655 l 391 602 l 397 583 l 396 490 l 313 240 l 313 141 l 369 84 l 426 84 l 534 121 l 604 191 l 682 347 l 722 503 l 722 624 l 727 642 l 734 654 l 746 662 l 758 667 l 773 669 l 788 663 l 799 655 l 807 644 l 812 631 l 812 490 l 769 317 l 682 140 q 631 89 665 121 q 583 42 598 57 l 444 -5 l 350 -7 l 331 -3 q 275 50 311 14 q 235 91 239 87 l 227 102 l 222 121 l 222 254 l 305 505 l 305 562 l 290 576 l 244 576 l 180 511 z "},"φ":{"ha":869,"x_min":56,"x_max":814,"o":"m 374 84 l 387 84 l 498 122 l 610 197 l 685 309 l 722 420 l 722 519 l 665 576 l 621 576 l 556 511 l 476 353 l 395 149 l 374 84 m 206 581 l 290 623 l 307 627 l 324 624 l 339 617 l 350 604 l 355 587 l 353 566 l 340 547 q 294 522 326 537 q 254 502 262 506 l 183 430 l 148 324 l 148 217 l 180 151 l 213 118 l 279 84 l 308 179 l 393 391 l 477 560 l 484 571 l 572 656 l 585 665 l 598 669 l 688 669 l 705 663 q 758 614 726 647 q 803 570 791 582 l 811 556 l 814 540 l 814 412 q 789 335 806 384 q 768 269 773 286 l 681 137 l 670 126 l 536 39 l 404 -5 l 349 -7 l 270 -270 l 263 -282 l 252 -290 l 240 -296 l 228 -298 l 209 -294 l 193 -283 l 183 -267 l 180 -248 l 252 -4 l 160 43 l 110 91 q 60 186 87 133 l 56 205 l 56 338 l 100 472 l 110 487 l 194 572 l 206 581 z "},"χ":{"ha":869,"x_min":56,"x_max":814,"o":"m 208 576 l 138 576 l 127 579 l 117 585 l 104 597 l 98 614 l 99 632 l 106 648 l 119 661 l 137 669 l 227 669 l 240 665 l 258 655 l 343 570 l 353 555 l 453 273 l 606 442 l 686 563 l 728 643 l 735 654 l 753 665 l 772 669 l 792 661 l 807 646 l 811 636 l 814 625 l 812 614 l 810 602 l 765 515 l 681 389 l 487 174 l 600 -144 l 662 -208 l 732 -208 l 746 -212 l 758 -220 l 769 -237 l 772 -256 l 765 -277 l 751 -292 l 741 -297 l 728 -298 l 642 -298 l 625 -294 l 612 -286 l 525 -198 l 517 -184 l 416 98 l 263 -72 l 183 -193 l 141 -274 l 134 -285 l 117 -296 l 98 -298 l 76 -292 l 62 -277 l 57 -267 l 56 -255 l 57 -244 l 60 -233 l 104 -146 l 187 -19 l 382 195 l 270 514 l 208 576 z "},"ψ":{"ha":1035,"x_min":56,"x_max":981,"o":"m 349 -240 l 416 -3 l 330 41 l 317 49 l 309 60 l 269 144 l 266 155 l 264 294 l 305 502 l 305 562 l 290 576 l 245 576 l 180 511 l 140 430 l 130 419 l 117 412 l 104 410 l 92 411 l 79 415 l 69 422 l 61 431 l 57 445 l 56 457 l 58 469 l 107 567 l 201 661 l 212 665 l 224 669 l 312 669 l 330 663 q 349 647 339 656 q 370 626 359 637 q 388 609 381 614 l 395 595 l 397 582 l 397 491 l 355 285 l 355 175 l 387 115 l 442 85 l 684 929 l 692 944 l 705 954 l 722 960 l 741 958 l 754 949 l 766 936 l 772 921 l 770 903 l 540 95 l 618 121 l 690 193 l 769 309 l 850 513 l 891 637 l 901 652 l 913 662 l 928 669 l 943 667 l 959 662 l 970 651 l 978 637 l 981 624 q 958 547 974 595 q 936 480 941 498 l 852 270 l 764 136 l 675 49 l 665 41 l 532 -4 l 511 -7 l 438 -267 l 431 -278 l 423 -286 l 412 -294 l 397 -298 l 382 -297 l 369 -292 l 358 -282 l 350 -270 l 347 -254 l 349 -240 z "},"ω":{"ha":909,"x_min":56,"x_max":854,"o":"m 206 623 l 290 663 l 308 669 l 327 665 l 342 655 l 351 640 l 355 623 l 350 602 l 338 586 l 256 544 l 183 435 l 148 324 l 148 213 l 182 106 l 203 84 l 256 84 l 320 117 l 392 225 l 435 393 l 442 403 l 450 410 l 461 415 l 472 418 l 490 415 l 505 408 l 515 395 l 521 378 l 521 362 l 481 208 l 515 106 l 536 84 l 590 84 l 652 117 l 727 227 l 764 338 l 764 449 l 728 556 l 692 591 l 684 604 l 681 620 l 682 636 l 689 650 l 703 661 l 718 669 l 735 667 l 746 663 q 776 637 757 655 q 802 612 795 618 l 811 595 l 854 464 l 854 324 l 808 184 l 715 46 q 659 18 696 35 q 613 -5 623 0 l 509 -5 l 499 -3 q 479 13 490 4 q 458 34 469 22 q 441 52 448 46 l 433 64 l 420 103 l 388 54 l 380 45 l 286 -3 l 270 -7 l 184 -7 l 170 -4 l 157 3 l 109 50 l 99 65 l 56 197 l 56 338 l 102 476 l 189 606 l 206 623 z "},"€":{"ha":827,"x_min":56,"x_max":772,"o":"m 56 548 q 100 585 72 583 l 180 585 l 225 722 l 270 812 q 320 864 288 831 q 366 910 353 897 l 456 956 l 469 960 l 643 960 l 662 956 l 747 913 l 761 902 l 769 886 l 772 869 l 768 853 l 758 838 l 741 829 l 720 826 l 707 830 l 632 868 l 487 868 l 419 834 l 347 761 l 309 688 l 277 585 l 646 585 l 659 582 l 671 575 l 681 566 l 686 553 l 689 533 l 682 515 l 669 500 l 648 494 l 273 494 l 273 418 l 604 418 l 617 415 l 629 408 l 637 400 l 643 389 l 647 369 l 640 350 l 628 335 l 609 327 l 290 327 l 309 266 l 347 191 l 419 118 l 487 84 l 632 84 l 707 122 l 724 126 l 739 125 l 751 118 l 762 109 l 769 95 l 772 81 l 770 69 l 765 57 l 757 46 q 656 -4 724 28 l 643 -7 l 467 -5 l 456 -3 l 365 43 l 274 134 l 225 229 l 193 327 l 95 327 l 77 334 l 64 345 l 57 362 l 56 381 l 62 399 l 76 411 l 88 415 l 99 418 l 180 418 l 180 494 l 99 494 l 81 498 l 69 506 l 60 518 l 56 533 l 56 548 z "},"⅀":{"ha":1200,"x_min":56,"x_max":1146,"o":"m 503 454 l 62 1055 l 57 1067 l 56 1084 l 58 1097 l 65 1109 l 81 1122 l 102 1126 l 1019 1126 l 1035 1123 l 1047 1115 l 1055 1105 l 1062 1095 l 1146 798 l 1146 779 l 1139 762 l 1126 750 l 1108 743 l 1095 743 l 1080 749 l 1067 758 l 1059 770 l 983 1035 l 191 1035 l 597 481 l 602 469 l 605 456 l 602 442 l 597 430 l 189 -165 l 985 -165 l 1059 60 l 1067 71 l 1081 80 l 1096 84 l 1109 83 l 1126 76 l 1139 64 l 1146 47 l 1146 31 l 1061 -227 l 1055 -239 l 1046 -247 l 1034 -254 l 1019 -256 l 102 -256 l 80 -252 l 65 -239 l 58 -227 l 56 -214 l 57 -199 l 62 -186 l 503 454 z "},"←":{"ha":661,"x_min":56,"x_max":605,"o":"m 60 433 q 134 511 85 461 q 195 574 183 560 l 213 582 l 229 585 l 247 579 l 263 568 l 271 552 l 273 532 l 269 519 q 239 488 259 507 q 213 460 220 468 l 566 460 l 582 454 l 594 444 l 602 427 l 605 411 l 601 395 l 593 382 l 579 372 l 566 368 l 213 368 l 263 317 l 270 305 l 273 293 l 270 274 l 259 256 l 243 245 l 224 243 l 209 247 l 195 255 l 65 387 l 57 401 l 56 418 l 60 433 z "},"↑":{"ha":452,"x_min":56,"x_max":397,"o":"m 180 164 l 180 511 l 129 461 l 118 454 l 104 452 l 84 454 l 68 465 l 58 481 l 56 502 l 60 515 l 66 528 l 194 655 l 212 665 l 231 669 l 244 663 l 256 655 l 385 529 l 395 513 l 397 494 l 392 475 l 380 461 l 363 453 l 345 452 l 332 456 q 300 485 320 465 q 273 511 281 505 l 273 164 l 271 153 l 264 137 l 251 126 l 237 119 l 221 118 l 205 123 l 191 133 l 183 148 l 180 164 z "},"→":{"ha":661,"x_min":56,"x_max":605,"o":"m 449 368 l 96 368 l 77 373 l 65 387 l 57 401 l 56 419 l 60 435 l 69 448 l 81 456 l 98 460 l 449 460 l 399 511 l 392 522 l 389 536 l 392 556 l 403 572 l 420 582 l 441 585 l 454 581 l 465 572 l 591 446 l 601 431 l 605 416 l 602 399 l 594 385 l 467 255 l 448 244 l 426 243 l 410 250 l 397 263 l 391 279 l 389 297 l 393 308 l 399 317 l 449 368 z "},"↓":{"ha":452,"x_min":56,"x_max":397,"o":"m 194 174 l 66 301 l 58 315 l 56 334 l 61 351 l 72 366 l 90 374 l 109 377 l 119 372 l 130 365 l 180 316 l 180 670 l 186 686 l 197 699 l 213 707 l 229 709 l 244 705 l 258 697 l 269 685 l 273 670 l 273 316 l 323 366 l 334 372 l 347 377 l 366 373 l 384 363 l 395 347 l 397 328 l 393 312 l 385 300 l 254 170 l 239 161 l 222 160 l 208 164 l 194 174 z "},"∃":{"ha":536,"x_min":56,"x_max":480,"o":"m 438 751 q 480 707 476 745 l 480 161 l 476 144 l 467 130 l 452 121 l 435 118 l 99 118 l 88 121 l 76 125 l 61 141 l 56 161 l 60 183 l 72 199 l 92 209 l 389 210 l 389 410 l 217 411 l 201 416 l 190 426 l 183 441 l 180 456 l 183 471 l 190 484 l 203 495 l 217 500 l 389 502 l 389 659 l 102 659 l 90 661 l 76 667 l 66 677 l 60 686 l 56 700 l 56 713 l 61 727 l 68 738 l 79 746 l 90 750 l 100 751 l 438 751 z "},"∈":{"ha":618,"x_min":56,"x_max":564,"o":"m 269 669 l 526 667 l 543 661 l 556 648 l 563 632 l 563 614 l 559 601 l 552 590 l 540 582 l 528 578 l 279 576 l 213 543 l 180 511 l 155 460 l 442 460 l 458 453 l 471 442 l 479 425 l 480 407 l 475 393 l 467 382 l 456 372 l 441 368 l 155 368 l 180 316 l 213 285 l 279 251 l 519 251 l 536 247 l 545 241 l 556 232 l 562 221 l 564 209 l 563 195 l 559 183 l 551 174 l 540 165 l 519 160 l 256 161 l 159 210 l 110 256 q 92 289 100 271 q 73 328 83 307 q 57 362 62 350 l 56 457 l 58 472 l 106 564 l 153 614 q 248 663 174 627 l 269 669 z "},"∏":{"ha":1367,"x_min":56,"x_max":1313,"o":"m 313 -165 l 435 -165 l 450 -168 l 465 -178 l 476 -191 l 480 -210 l 476 -228 l 471 -239 l 461 -247 l 450 -254 l 438 -256 l 100 -256 l 84 -254 l 72 -245 l 61 -235 l 56 -221 l 56 -205 l 61 -189 l 72 -176 l 85 -168 l 100 -165 l 222 -165 l 222 1035 l 100 1035 l 81 1039 l 65 1051 l 57 1069 l 56 1090 l 65 1108 l 80 1122 l 102 1126 l 1268 1126 l 1283 1123 l 1295 1116 l 1305 1108 l 1310 1099 l 1313 1077 l 1312 1065 l 1306 1055 l 1289 1040 l 1270 1035 l 1147 1035 l 1147 -165 l 1270 -165 l 1287 -170 l 1303 -182 l 1313 -199 l 1313 -221 l 1305 -239 l 1289 -251 l 1270 -256 l 932 -256 l 917 -254 l 905 -245 l 894 -233 l 888 -220 l 888 -203 l 894 -187 l 906 -175 l 920 -168 l 933 -165 l 1055 -165 l 1055 1035 l 313 1035 l 313 -165 z "},"∘":{"ha":369,"x_min":56,"x_max":313,"o":"m 163 659 l 148 644 l 148 600 l 163 585 l 208 585 l 222 600 l 222 644 l 208 659 l 163 659 m 60 684 q 75 703 66 693 q 96 723 84 712 q 113 741 107 734 l 130 750 l 141 751 l 228 751 l 250 745 l 301 694 l 311 678 l 313 665 l 313 579 l 312 568 l 307 557 l 256 506 l 240 495 l 227 494 l 141 494 l 130 495 l 119 500 l 66 551 l 57 570 l 56 669 l 60 684 z "},"∙":{"ha":202,"x_min":56,"x_max":148,"o":"m 57 400 l 56 414 l 57 464 l 61 477 l 71 488 l 85 499 l 104 502 l 121 498 l 134 486 l 142 475 l 148 463 l 148 412 l 142 395 l 132 381 l 122 372 l 110 368 l 96 368 l 83 372 l 72 380 l 62 389 l 57 400 z "},"√":{"ha":910,"x_min":56,"x_max":856,"o":"m 121 494 l 90 495 l 76 500 l 66 509 l 60 519 l 56 532 l 56 545 l 60 560 l 72 575 l 92 583 l 144 585 l 163 581 l 178 568 l 426 250 l 770 937 l 777 947 l 788 954 l 799 959 l 810 960 l 821 959 l 831 954 l 841 947 l 849 937 l 856 917 l 854 906 q 736 665 799 792 q 595 382 673 537 q 475 142 517 227 l 468 133 l 458 125 l 444 119 l 427 118 l 412 123 l 400 133 l 121 494 z "},"∝":{"ha":785,"x_min":56,"x_max":731,"o":"m 357 401 l 380 435 l 357 468 l 324 502 l 256 534 l 237 534 l 178 505 l 148 445 l 148 425 l 178 365 l 237 335 l 256 335 l 324 368 l 357 401 m 426 529 l 435 517 l 444 529 l 491 576 l 586 624 l 600 627 l 689 627 l 703 623 l 715 614 l 727 598 l 731 579 l 726 560 l 713 544 l 701 537 l 689 534 l 613 534 l 545 502 l 513 468 l 490 435 l 513 401 l 545 368 l 613 335 l 689 335 l 701 332 l 712 326 l 726 311 l 731 293 l 728 275 l 718 258 l 705 248 l 689 243 l 600 243 l 586 245 l 491 293 l 444 340 l 435 353 l 426 340 l 378 293 l 289 247 l 271 243 l 217 244 l 122 289 l 111 297 q 57 400 107 304 l 56 414 l 56 457 l 57 468 l 106 566 l 121 579 l 213 625 l 225 627 l 270 627 l 288 623 l 378 576 l 426 529 z "},"∞":{"ha":869,"x_min":56,"x_max":814,"o":"m 722 425 l 722 445 l 692 505 l 632 534 l 613 534 l 545 502 l 513 468 l 490 435 l 513 401 l 545 368 l 613 335 l 632 335 l 692 365 l 722 425 m 357 401 l 380 435 l 357 468 l 324 502 l 256 534 l 237 534 l 178 505 l 148 445 l 148 425 l 178 365 l 237 335 l 256 335 l 324 368 l 357 401 m 426 529 l 435 517 l 444 529 l 491 576 l 582 623 l 600 627 l 644 627 l 656 625 l 749 579 l 764 566 l 812 468 l 814 457 l 814 414 l 812 400 l 766 309 l 758 297 q 655 244 742 288 l 598 243 l 582 247 l 491 293 l 444 340 l 435 353 q 420 334 429 343 q 400 313 411 324 q 384 297 389 302 q 282 245 358 282 l 271 243 l 227 243 l 208 247 l 122 290 l 113 297 l 103 309 l 57 400 l 56 414 l 56 457 l 57 468 l 106 566 l 121 579 l 213 625 l 225 627 l 270 627 l 288 623 l 378 576 l 426 529 z "},"∥":{"ha":369,"x_min":56,"x_max":313,"o":"m 222 -3 l 222 833 l 227 850 l 237 864 l 252 873 l 271 876 l 286 872 l 300 863 l 309 849 l 313 833 l 313 -5 l 309 -22 l 300 -37 l 285 -46 l 267 -49 l 250 -45 l 236 -35 l 227 -20 l 222 -3 m 56 -3 l 56 833 l 60 850 l 71 864 l 85 873 l 104 876 l 119 872 l 133 863 l 142 849 l 148 833 l 148 -5 l 142 -22 l 133 -37 l 118 -46 l 100 -49 l 83 -45 l 69 -35 l 60 -20 l 56 -3 z "},"∩":{"ha":618,"x_min":56,"x_max":564,"o":"m 564 205 q 526 160 563 172 l 514 160 l 502 163 l 491 168 l 481 178 l 475 187 l 472 205 l 472 445 l 439 511 l 407 543 l 340 576 l 279 576 l 213 543 l 180 511 l 148 445 l 146 197 l 140 180 l 127 168 l 111 161 l 94 161 l 79 165 l 68 174 l 60 186 l 56 199 l 56 457 l 60 475 l 107 568 l 160 620 l 248 663 l 262 669 l 362 667 l 460 620 l 514 564 l 563 465 l 564 205 z "},"∪":{"ha":618,"x_min":56,"x_max":564,"o":"m 56 372 l 57 631 l 62 647 l 75 659 l 92 667 l 110 667 l 122 662 l 133 654 l 141 644 l 146 632 l 148 384 l 180 316 l 213 285 l 279 251 l 340 251 l 407 285 l 439 316 l 472 384 l 472 624 l 476 640 l 481 651 l 491 659 l 503 665 l 515 669 l 528 667 l 540 662 l 551 654 l 559 644 l 564 624 l 563 361 l 514 263 l 467 214 l 361 161 l 267 160 l 251 163 l 160 210 l 110 256 q 60 353 92 288 l 56 372 z "},"∫":{"ha":1035,"x_min":56,"x_max":981,"o":"m 981 1039 l 981 994 l 978 982 l 967 966 l 949 954 l 937 951 l 924 952 l 913 958 l 902 966 l 894 977 l 890 987 l 888 1020 l 873 1035 l 821 1035 l 754 1001 l 681 928 l 644 854 l 604 735 l 563 571 l 479 72 l 435 -106 l 389 -195 l 342 -244 l 334 -251 l 245 -294 l 235 -297 l 140 -298 l 127 -296 l 118 -292 l 68 -241 l 57 -225 l 56 -213 l 56 -163 l 61 -149 l 69 -136 l 81 -127 l 95 -123 l 109 -123 l 122 -127 l 133 -137 l 141 -149 l 148 -164 l 148 -191 l 163 -208 l 216 -208 l 282 -174 l 313 -141 l 350 -69 l 391 91 l 473 591 l 515 760 l 559 886 l 604 981 l 699 1076 l 791 1122 l 803 1126 l 894 1126 l 914 1122 q 947 1093 926 1114 q 971 1067 967 1072 l 978 1054 l 981 1039 z "},"∮":{"ha":1035,"x_min":56,"x_max":981,"o":"m 496 168 l 553 168 l 659 205 l 728 273 l 764 380 l 764 449 l 728 556 l 659 624 l 582 650 l 563 571 l 496 168 m 490 659 l 483 659 l 377 624 l 308 556 l 273 449 l 273 380 l 308 273 l 377 205 l 407 193 l 473 589 l 490 659 m 981 1039 l 981 994 l 977 978 l 971 968 l 963 962 l 941 951 l 929 951 l 918 954 l 909 960 l 901 968 l 890 987 l 888 1020 l 873 1035 l 821 1035 l 754 1001 l 681 928 l 644 854 l 605 739 l 700 707 l 711 701 l 802 613 l 811 597 l 854 464 l 856 370 q 831 293 849 342 q 807 222 814 244 l 716 130 l 703 122 l 570 77 l 480 76 l 435 -104 l 389 -194 l 338 -247 l 247 -294 l 236 -297 l 140 -298 l 127 -296 l 118 -292 l 68 -243 l 58 -227 l 56 -214 l 56 -167 l 58 -155 l 64 -142 l 76 -130 l 94 -125 l 111 -125 l 126 -130 l 137 -141 l 144 -155 l 148 -167 l 148 -191 l 163 -208 l 216 -208 l 282 -174 l 313 -141 l 350 -69 l 392 103 l 336 121 l 324 126 l 232 218 q 182 358 228 229 l 180 370 l 182 464 l 229 605 l 320 697 l 331 704 l 465 750 l 514 751 l 559 888 l 602 979 q 649 1025 618 994 q 694 1073 680 1057 l 703 1080 l 799 1124 l 901 1126 l 911 1122 l 922 1116 l 968 1072 l 978 1055 l 981 1039 z "},"≠":{"ha":703,"x_min":56,"x_max":647,"o":"m 602 377 q 647 331 643 373 l 646 320 l 642 308 l 635 298 l 621 289 l 604 285 l 302 285 l 176 133 l 165 123 l 153 119 l 137 118 l 123 122 l 113 129 l 104 140 l 99 153 l 98 168 l 100 180 q 145 237 115 202 q 184 285 175 273 l 99 285 l 88 288 l 76 292 l 62 305 l 56 324 l 57 343 l 66 359 l 80 370 l 98 377 l 262 377 l 324 452 l 100 452 q 56 499 57 456 l 57 510 l 61 519 l 68 529 l 81 538 l 99 543 l 400 543 l 530 700 l 545 707 l 562 709 l 578 705 l 591 697 l 600 686 l 604 673 l 605 658 l 601 644 l 518 543 l 604 543 l 625 536 l 639 524 l 646 507 l 647 488 l 640 472 l 625 458 l 606 452 l 442 452 l 380 377 l 602 377 z "},"≡":{"ha":703,"x_min":56,"x_max":647,"o":"m 601 201 l 98 201 l 79 208 l 65 218 l 57 233 l 56 251 l 60 267 l 69 279 l 81 289 l 98 293 l 605 293 l 623 288 l 636 278 l 644 263 l 647 244 l 643 228 l 633 214 l 618 206 l 601 201 m 601 368 l 98 368 l 79 373 l 65 385 l 57 400 l 56 418 l 60 433 l 69 448 l 81 456 l 98 460 l 605 460 l 623 454 l 636 445 l 644 429 l 647 411 l 643 395 l 633 381 l 618 372 l 601 368 m 601 534 l 98 534 l 79 540 l 65 552 l 57 567 l 56 585 l 60 600 l 69 614 l 81 623 l 98 627 l 605 627 l 623 621 l 636 612 l 644 595 l 647 578 l 643 562 l 632 547 l 618 537 l 601 534 z "},"≦":{"ha":618,"x_min":56,"x_max":564,"o":"m 518 118 l 96 118 l 79 123 l 65 134 l 57 152 l 56 170 l 60 184 l 68 195 l 81 206 l 98 210 l 522 210 l 538 205 l 553 193 l 562 178 l 564 161 l 560 144 l 548 130 l 534 121 l 518 118 m 56 544 q 84 582 58 567 l 503 749 l 522 751 l 541 745 l 551 738 l 557 730 l 562 718 l 564 707 l 563 696 l 559 685 l 552 675 l 543 667 l 225 538 l 543 410 l 557 396 l 563 380 l 563 365 l 559 351 l 563 340 l 564 327 l 557 308 l 552 298 l 541 292 l 530 286 l 519 285 l 100 285 l 90 286 l 77 290 l 68 298 l 60 309 l 56 323 l 56 336 l 60 350 l 66 361 l 77 369 l 90 374 l 102 377 l 384 377 l 75 502 l 66 510 l 60 519 l 56 530 l 56 544 z "},"≧":{"ha":618,"x_min":56,"x_max":564,"o":"m 518 118 l 96 118 l 79 123 l 65 134 l 57 152 l 56 170 l 60 184 l 69 195 l 81 206 l 98 210 l 524 210 l 538 205 l 553 193 l 562 178 l 564 161 l 560 144 l 551 130 l 534 121 l 518 118 m 395 538 l 76 667 l 61 684 l 56 704 l 60 727 l 75 743 l 95 751 l 117 749 l 534 582 l 547 574 l 560 557 l 564 536 l 557 515 l 543 500 l 235 377 l 525 377 l 540 370 l 553 359 l 562 346 l 564 330 l 560 312 l 552 298 l 537 289 l 521 285 l 99 285 l 79 290 l 64 304 l 58 313 l 56 326 l 57 339 l 61 351 l 56 363 l 56 378 l 62 396 l 75 410 l 395 538 z "},"⊂":{"ha":618,"x_min":56,"x_max":564,"o":"m 269 669 l 526 667 l 543 661 l 556 648 l 563 632 l 563 614 l 559 601 l 552 590 l 540 582 l 528 578 l 279 576 l 213 543 l 180 511 l 148 445 l 148 384 l 180 316 l 213 285 l 279 251 l 519 251 l 536 247 l 545 241 l 556 232 l 562 221 l 564 209 l 563 195 l 559 183 l 551 174 l 540 165 l 519 160 l 256 161 l 159 210 l 110 256 q 92 289 100 271 q 73 328 83 307 q 57 362 62 350 l 56 457 l 58 472 l 106 564 l 153 614 q 248 663 174 627 l 269 669 z "},"⊃":{"ha":618,"x_min":56,"x_max":564,"o":"m 100 160 q 56 197 64 164 l 56 210 l 58 222 l 64 232 l 73 241 l 83 247 l 100 251 l 340 251 l 407 285 l 439 316 l 472 384 l 472 445 l 439 511 l 407 543 l 340 576 l 94 578 l 76 583 l 64 595 l 57 613 l 56 631 l 61 644 l 69 655 l 81 663 l 96 669 l 353 669 l 370 663 l 463 617 l 515 564 l 560 475 l 564 463 l 563 361 l 515 264 l 460 210 l 361 161 l 100 160 z "},"〈":{"ha":494,"x_min":56,"x_max":439,"o":"m 61 437 l 354 981 l 366 993 l 384 1000 l 401 1000 l 418 994 l 429 983 l 438 968 l 439 952 l 435 936 l 153 412 l 435 -152 l 439 -168 l 437 -184 l 427 -199 l 415 -210 l 397 -216 l 381 -214 l 363 -206 l 353 -191 l 60 395 l 56 415 l 61 437 z "},"〉":{"ha":494,"x_min":56,"x_max":439,"o":"m 342 412 l 60 937 l 56 954 l 58 972 l 68 987 l 83 997 l 99 1001 l 115 998 l 129 991 l 140 979 l 433 435 l 439 414 l 435 393 l 141 -191 l 130 -205 l 117 -213 l 100 -216 l 84 -213 l 69 -203 l 60 -187 l 56 -170 l 58 -153 l 342 412 z "},"☉":{"ha":1077,"x_min":56,"x_max":1023,"o":"m 435 518 q 487 572 452 537 l 502 582 l 515 585 l 562 585 l 579 581 l 591 572 l 633 529 l 643 515 l 647 500 l 647 456 l 643 437 l 635 423 l 591 382 l 578 372 l 563 368 l 518 368 l 499 372 l 486 381 l 444 423 l 433 441 l 430 454 l 430 503 l 435 518 m 483 868 l 372 830 l 259 755 l 184 643 l 148 532 l 148 420 l 184 309 l 259 197 l 372 122 l 483 84 l 594 84 l 705 122 l 818 197 l 892 309 l 930 420 l 930 532 l 892 643 l 818 755 l 705 830 l 594 868 l 483 868 m 327 910 q 469 960 343 917 l 601 960 q 676 937 629 954 q 742 916 723 921 l 883 822 l 977 684 l 1020 553 l 1023 538 l 1023 407 l 978 274 l 884 132 l 746 39 l 616 -4 l 601 -7 l 469 -7 l 336 38 q 194 130 262 85 l 102 270 l 58 400 l 56 414 l 56 545 l 100 680 l 194 822 l 327 910 z "},"Ā":{"ha":869,"x_min":56,"x_max":814,"o":"m 270 1135 l 610 1135 l 627 1127 l 639 1116 l 647 1100 l 648 1082 l 643 1067 l 635 1055 l 623 1047 l 606 1043 l 263 1043 l 247 1048 l 233 1059 l 227 1076 l 224 1092 l 228 1108 l 237 1122 l 252 1133 l 270 1135 m 279 377 l 590 377 l 435 785 l 279 377 m 58 56 l 393 932 l 403 947 l 418 958 l 437 960 l 453 956 l 468 945 l 477 930 l 811 54 l 814 38 l 810 20 l 804 9 l 796 3 l 785 -4 l 773 -7 l 761 -7 l 749 -3 l 739 4 l 731 12 l 726 22 l 625 285 l 244 285 l 144 22 l 137 9 l 125 0 l 110 -5 l 94 -5 l 79 -1 l 66 9 l 58 23 l 56 41 l 58 56 z "},"ā":{"ha":701,"x_min":56,"x_max":663,"o":"m 285 844 l 625 844 l 642 836 l 654 825 l 662 808 l 663 791 l 658 776 l 650 764 l 637 755 l 623 751 l 278 751 l 263 757 l 248 768 l 241 784 l 239 800 l 243 817 l 252 830 l 269 841 l 285 844 m 555 477 l 490 543 l 423 576 l 320 576 l 252 543 l 182 472 l 146 365 l 146 296 l 182 189 l 252 118 l 320 84 l 423 84 l 490 118 l 555 183 l 555 477 m 555 39 l 555 53 l 538 41 l 454 -3 l 442 -7 l 298 -5 l 198 45 l 103 140 l 56 281 l 56 382 l 103 521 l 201 620 l 290 663 l 305 669 l 445 667 l 538 621 l 555 609 l 556 629 l 560 643 l 568 655 l 582 663 l 597 669 l 614 667 l 629 658 l 640 646 l 644 635 l 646 624 l 646 33 l 640 16 l 629 3 l 614 -5 l 597 -7 l 581 -3 l 567 8 l 559 22 l 555 39 z "},"Ă":{"ha":869,"x_min":56,"x_max":814,"o":"m 317 1100 q 290 1152 307 1118 q 270 1195 274 1187 l 266 1208 l 266 1222 l 271 1236 l 281 1249 l 293 1256 l 304 1260 l 317 1260 l 330 1256 l 340 1251 l 350 1236 l 387 1165 l 437 1141 l 484 1165 l 521 1237 l 529 1248 l 538 1255 l 557 1260 l 576 1257 l 591 1248 l 602 1232 l 606 1215 l 604 1199 l 555 1101 l 540 1090 l 454 1047 l 435 1043 l 416 1047 l 330 1092 l 317 1100 m 279 377 l 590 377 l 435 785 l 279 377 m 58 56 l 393 932 l 403 947 l 418 958 l 437 960 l 453 956 l 468 945 l 477 930 l 811 54 l 814 38 l 810 20 l 804 9 l 796 3 l 785 -4 l 773 -7 l 761 -7 l 749 -3 l 739 4 l 731 12 l 726 22 l 625 285 l 244 285 l 144 22 l 137 9 l 125 0 l 110 -5 l 94 -5 l 79 -1 l 66 9 l 58 23 l 56 41 l 58 56 z "},"ă":{"ha":701,"x_min":56,"x_max":646,"o":"m 334 808 q 305 863 323 826 q 285 903 288 899 l 281 917 l 281 930 l 286 944 l 296 958 l 308 964 l 320 968 l 334 968 l 345 964 l 355 959 l 365 944 l 401 873 l 452 849 l 500 873 l 536 945 l 544 956 l 555 963 l 572 968 l 591 966 l 606 956 l 618 940 l 623 924 l 620 907 l 570 810 l 556 799 l 469 755 l 450 751 l 431 755 l 345 800 l 334 808 m 555 477 l 490 543 l 423 576 l 320 576 l 252 543 l 182 472 l 146 365 l 146 296 l 182 189 l 252 118 l 320 84 l 423 84 l 490 118 l 555 183 l 555 477 m 555 39 l 555 53 l 538 41 l 454 -3 l 442 -7 l 298 -5 l 198 45 l 103 140 l 56 281 l 56 382 l 103 521 l 201 620 l 290 663 l 305 669 l 445 667 l 538 621 l 555 609 l 556 629 l 560 643 l 568 655 l 582 663 l 597 669 l 614 667 l 629 658 l 640 646 l 644 635 l 646 624 l 646 33 l 640 16 l 629 3 l 614 -5 l 597 -7 l 581 -3 l 567 8 l 559 22 l 555 39 z "},"Ą":{"ha":1038,"x_min":62,"x_max":978,"o":"m 842 -217 l 959 -294 l 967 -304 l 975 -320 l 978 -338 l 972 -354 l 959 -368 l 949 -373 l 936 -378 l 925 -378 l 911 -373 l 777 -285 l 766 -271 l 722 -183 l 719 -165 l 719 -80 l 722 -65 l 731 -52 l 773 -7 l 768 -7 l 755 -3 l 746 4 l 738 12 l 732 22 l 632 285 l 251 285 l 152 22 l 144 9 l 132 0 l 117 -5 l 100 -5 l 85 -1 l 73 9 l 65 23 l 62 41 l 65 56 l 400 932 l 410 947 l 425 958 l 444 960 l 460 956 l 475 945 l 484 930 l 818 54 l 821 38 l 817 20 l 811 9 l 806 4 l 850 5 l 864 3 l 875 -3 l 883 -11 l 888 -19 l 891 -31 l 894 -43 l 891 -56 l 886 -66 l 878 -75 l 869 -81 l 859 -84 l 825 -85 l 811 -102 l 811 -155 l 842 -217 m 286 377 l 597 377 l 442 785 l 286 377 z "},"ą":{"ha":818,"x_min":62,"x_max":755,"o":"m 637 4 q 673 -43 673 -8 l 670 -56 l 663 -66 l 655 -75 l 647 -81 l 636 -84 l 604 -85 l 589 -102 l 589 -155 l 621 -217 l 736 -294 l 746 -304 l 754 -320 l 755 -338 l 750 -354 l 738 -368 l 728 -373 l 715 -378 l 703 -378 l 690 -373 l 557 -285 l 544 -271 l 502 -183 l 498 -165 l 498 -80 l 500 -65 l 510 -52 l 553 -7 l 564 0 l 575 4 l 578 4 l 574 8 l 566 22 l 562 39 l 562 53 l 545 41 l 461 -3 l 449 -7 l 305 -5 l 206 45 l 110 140 l 62 281 l 62 382 l 110 521 l 209 620 l 297 663 l 312 669 l 452 667 l 545 621 l 562 609 l 563 629 l 567 643 l 575 655 l 589 663 l 604 669 l 621 667 l 636 658 l 647 646 l 651 635 l 652 624 l 652 33 l 647 16 l 637 4 m 562 477 l 498 543 l 430 576 l 327 576 l 259 543 l 189 472 l 153 365 l 153 296 l 189 189 l 259 118 l 327 84 l 430 84 l 498 118 l 562 183 l 562 477 z "},"Ć":{"ha":827,"x_min":56,"x_max":772,"o":"m 392 1109 l 521 1366 l 533 1378 l 551 1385 l 568 1383 l 585 1377 l 595 1366 l 601 1352 l 604 1337 l 601 1324 l 471 1062 l 458 1050 l 444 1044 l 425 1043 l 410 1050 l 397 1061 l 389 1077 l 388 1093 l 392 1109 m 726 293 q 772 248 765 289 l 768 228 l 726 142 l 718 132 l 628 45 l 534 -4 l 518 -7 l 345 -7 l 331 -3 l 243 42 l 152 132 l 144 140 l 100 231 l 56 366 l 56 589 l 100 722 l 146 814 l 240 909 l 335 958 l 350 960 l 518 960 l 537 956 l 628 910 l 716 821 l 726 810 l 768 726 l 772 707 l 769 690 l 760 675 l 746 663 l 731 659 l 709 662 l 692 675 q 666 722 681 690 q 647 761 651 754 l 574 834 l 507 868 l 362 868 l 294 834 l 222 761 l 184 688 l 148 574 l 148 380 l 184 266 l 222 191 l 294 118 l 362 84 l 507 84 l 574 118 l 647 191 l 686 271 l 701 286 l 712 292 l 726 293 z "},"ć":{"ha":701,"x_min":56,"x_max":646,"o":"m 330 817 l 458 1073 l 471 1085 l 487 1092 l 506 1090 l 522 1084 l 533 1073 l 538 1059 l 541 1044 l 538 1031 l 408 769 l 396 757 l 381 751 l 362 750 l 347 757 l 335 768 l 327 784 l 326 800 l 330 817 m 605 210 q 646 165 646 197 l 644 153 l 640 140 l 544 45 l 444 -5 l 300 -5 l 289 -3 l 201 42 l 103 140 l 56 279 l 56 381 l 103 521 l 198 617 l 289 663 l 300 667 l 444 667 l 538 621 q 570 593 553 609 q 604 559 586 578 q 633 529 623 540 l 642 518 l 646 505 l 646 487 l 640 473 l 629 461 l 617 454 l 602 452 l 590 453 l 578 457 q 530 503 559 472 q 490 543 500 533 l 423 576 l 320 576 l 252 543 l 182 472 l 146 365 l 146 296 l 182 189 l 252 118 l 320 84 l 423 84 l 490 118 l 571 198 l 581 206 l 593 210 l 605 210 z "},"Ĉ":{"ha":827,"x_min":56,"x_max":772,"o":"m 433 1133 l 387 1061 l 372 1047 l 353 1043 l 336 1046 l 320 1054 l 308 1067 l 305 1080 l 305 1092 q 309 1103 307 1096 q 311 1114 311 1109 l 400 1242 l 414 1256 l 433 1260 l 453 1256 l 469 1242 l 556 1114 l 562 1103 l 564 1092 l 562 1081 l 559 1067 l 547 1054 l 530 1046 l 514 1043 l 498 1047 l 480 1061 l 433 1133 m 726 293 q 772 248 765 289 l 768 228 l 726 142 l 718 132 l 628 45 l 534 -4 l 518 -7 l 345 -7 l 331 -3 l 243 42 l 152 132 l 144 140 l 100 231 l 56 366 l 56 589 l 100 722 l 146 814 l 240 909 l 335 958 l 350 960 l 518 960 l 537 956 l 628 910 l 716 821 l 726 810 l 768 726 l 772 707 l 769 690 l 760 675 l 746 663 l 731 659 l 709 662 l 692 675 q 666 722 681 690 q 647 761 651 754 l 574 834 l 507 868 l 362 868 l 294 834 l 222 761 l 184 688 l 148 574 l 148 380 l 184 266 l 222 191 l 294 118 l 362 84 l 507 84 l 574 118 l 647 191 l 686 271 l 701 286 l 712 292 l 726 293 z "},"ĉ":{"ha":701,"x_min":56,"x_max":646,"o":"m 372 838 l 326 768 l 308 754 l 292 750 l 275 753 l 258 761 l 247 774 l 244 787 l 241 799 l 244 810 q 272 854 256 831 q 307 905 288 878 q 336 949 326 933 l 353 963 l 372 967 l 392 963 l 406 949 l 495 821 q 498 810 496 818 q 500 799 500 803 l 500 788 l 495 774 l 486 761 l 469 753 l 453 750 l 433 754 l 419 768 l 372 838 m 605 210 q 646 165 646 197 l 644 153 l 640 140 l 544 45 l 444 -5 l 300 -5 l 289 -3 l 201 42 l 103 140 l 56 279 l 56 381 l 103 521 l 198 617 l 289 663 l 300 667 l 444 667 l 538 621 q 570 593 553 609 q 604 559 586 578 q 633 529 623 540 l 642 518 l 646 505 l 646 487 l 640 473 l 629 461 l 617 454 l 602 452 l 590 453 l 578 457 q 530 503 559 472 q 490 543 500 533 l 423 576 l 320 576 l 252 543 l 182 472 l 146 365 l 146 296 l 182 189 l 252 118 l 320 84 l 423 84 l 490 118 l 571 198 l 581 206 l 593 210 l 605 210 z "},"Ċ":{"ha":827,"x_min":56,"x_max":772,"o":"m 477 1145 l 480 1131 l 477 1081 l 475 1066 l 464 1055 l 450 1046 l 430 1043 l 414 1047 l 400 1058 l 392 1067 l 389 1082 l 389 1133 l 392 1150 l 403 1164 l 414 1172 l 427 1176 l 439 1176 l 453 1172 l 464 1165 l 472 1156 l 477 1145 m 726 293 q 772 248 765 289 l 768 228 l 726 142 l 718 132 l 628 45 l 534 -4 l 518 -7 l 345 -7 l 331 -3 l 243 42 l 152 132 l 144 140 l 100 231 l 56 366 l 56 589 l 100 722 l 146 814 l 240 909 l 335 958 l 350 960 l 518 960 l 537 956 l 628 910 l 716 821 l 726 810 l 768 726 l 772 707 l 769 690 l 760 675 l 746 663 l 731 659 l 709 662 l 692 675 q 666 722 681 690 q 647 761 651 754 l 574 834 l 507 868 l 362 868 l 294 834 l 222 761 l 184 688 l 148 574 l 148 380 l 184 266 l 222 191 l 294 118 l 362 84 l 507 84 l 574 118 l 647 191 l 686 271 l 701 286 l 712 292 l 726 293 z "},"ċ":{"ha":701,"x_min":56,"x_max":646,"o":"m 416 852 l 416 788 l 411 773 l 403 762 l 387 753 l 369 750 l 353 754 l 339 765 l 331 774 l 326 789 l 326 838 l 331 857 l 342 871 l 353 879 l 363 883 l 378 883 l 392 879 q 401 871 395 876 q 411 863 408 865 l 416 852 m 605 210 q 646 165 646 197 l 644 153 l 640 140 l 544 45 l 444 -5 l 300 -5 l 289 -3 l 201 42 l 103 140 l 56 279 l 56 381 l 103 521 l 198 617 l 289 663 l 300 667 l 444 667 l 538 621 q 570 593 553 609 q 604 559 586 578 q 633 529 623 540 l 642 518 l 646 505 l 646 487 l 640 473 l 629 461 l 617 454 l 602 452 l 590 453 l 578 457 q 530 503 559 472 q 490 543 500 533 l 423 576 l 320 576 l 252 543 l 182 472 l 146 365 l 146 296 l 182 189 l 252 118 l 320 84 l 423 84 l 490 118 l 571 198 l 581 206 l 593 210 l 605 210 z "},"Č":{"ha":827,"x_min":56,"x_max":772,"o":"m 395 1063 l 308 1196 l 305 1207 l 305 1219 l 308 1232 l 313 1242 l 328 1253 l 342 1259 l 358 1259 l 374 1253 l 387 1241 l 433 1171 l 480 1240 l 491 1252 l 503 1259 l 519 1260 l 533 1257 l 547 1251 l 556 1238 l 562 1225 l 564 1211 l 559 1198 l 469 1059 l 453 1047 l 430 1043 l 411 1048 l 395 1063 m 726 293 q 772 248 765 289 l 768 228 l 726 142 l 718 132 l 628 45 l 534 -4 l 518 -7 l 345 -7 l 331 -3 l 243 42 l 152 132 l 144 140 l 100 231 l 56 366 l 56 589 l 100 722 l 146 814 l 240 909 l 335 958 l 350 960 l 518 960 l 537 956 l 628 910 l 716 821 l 726 810 l 768 726 l 772 707 l 769 690 l 760 675 l 746 663 l 731 659 l 709 662 l 692 675 q 666 722 681 690 q 647 761 651 754 l 574 834 l 507 868 l 362 868 l 294 834 l 222 761 l 184 688 l 148 574 l 148 380 l 184 266 l 222 191 l 294 118 l 362 84 l 507 84 l 574 118 l 647 191 l 686 271 l 701 286 l 712 292 l 726 293 z "},"č":{"ha":701,"x_min":56,"x_max":646,"o":"m 334 770 l 247 903 l 241 914 l 241 926 l 244 939 l 252 949 l 264 960 l 281 966 l 297 966 l 311 960 l 326 948 l 372 878 l 416 947 l 427 959 l 442 966 l 456 967 l 472 964 l 483 958 l 491 945 l 500 932 l 500 918 l 498 905 l 406 766 l 389 754 l 369 750 l 350 755 l 334 770 m 605 210 q 646 165 646 197 l 644 153 l 640 140 l 544 45 l 444 -5 l 300 -5 l 289 -3 l 201 42 l 103 140 l 56 279 l 56 381 l 103 521 l 198 617 l 289 663 l 300 667 l 444 667 l 538 621 q 570 593 553 609 q 604 559 586 578 q 633 529 623 540 l 642 518 l 646 505 l 646 487 l 640 473 l 629 461 l 617 454 l 602 452 l 590 453 l 578 457 q 530 503 559 472 q 490 543 500 533 l 423 576 l 320 576 l 252 543 l 182 472 l 146 365 l 146 296 l 182 189 l 252 118 l 320 84 l 423 84 l 490 118 l 571 198 l 581 206 l 593 210 l 605 210 z "},"Ď":{"ha":785,"x_min":56,"x_max":731,"o":"m 354 1063 l 269 1196 l 264 1207 l 264 1219 l 267 1232 l 274 1242 l 286 1253 l 301 1259 l 317 1259 l 334 1253 l 346 1241 l 393 1171 l 439 1240 l 450 1252 l 463 1259 l 477 1260 l 494 1257 l 506 1251 l 514 1238 l 521 1225 l 522 1211 l 518 1198 l 427 1059 l 411 1047 l 391 1043 l 370 1048 l 354 1063 m 148 84 l 387 84 l 494 121 l 564 191 l 600 266 l 639 380 l 639 574 l 600 688 l 564 761 l 494 831 l 387 868 l 148 868 l 148 84 m 56 39 l 56 914 l 57 925 l 61 936 l 76 952 l 85 958 l 98 960 l 396 960 q 473 935 425 952 q 540 913 521 918 q 593 862 560 895 q 635 821 627 829 l 642 812 l 686 722 l 731 586 l 730 363 l 686 231 l 642 141 q 586 85 623 121 q 541 42 549 50 l 401 -5 l 96 -7 l 80 -1 l 66 8 l 58 22 l 56 39 z "},"ď":{"ha":1015,"x_min":62,"x_max":952,"o":"m 780 635 l 867 933 l 878 947 l 892 958 l 910 960 l 928 956 l 940 947 l 948 935 l 952 921 l 952 906 l 867 602 l 857 589 l 842 579 l 826 576 l 808 579 l 795 587 l 785 601 l 779 618 l 780 635 m 563 477 l 498 543 l 430 576 l 328 576 l 262 543 l 190 472 l 155 365 l 155 296 l 190 189 l 262 118 l 328 84 l 430 84 l 498 118 l 563 183 l 563 477 m 563 39 l 563 53 l 545 41 l 461 -3 l 450 -5 l 315 -7 l 297 -3 l 209 43 l 117 132 l 109 146 l 64 281 l 62 374 l 64 387 l 107 511 l 114 526 l 206 617 l 297 663 l 315 669 l 452 667 q 505 643 472 661 q 547 621 537 625 l 563 609 l 563 921 l 568 936 l 579 948 l 593 958 l 612 960 l 628 956 l 640 945 l 650 932 l 654 917 l 654 37 l 650 19 l 640 5 l 625 -4 l 606 -7 l 590 -3 l 576 7 l 566 20 l 563 39 z "},"Ē":{"ha":743,"x_min":56,"x_max":689,"o":"m 206 1135 l 545 1135 l 563 1127 l 575 1116 l 583 1100 l 585 1082 l 579 1067 l 571 1055 l 559 1047 l 543 1043 l 198 1043 l 183 1048 l 170 1059 l 163 1076 l 160 1092 l 164 1108 l 174 1122 l 189 1133 l 206 1135 m 648 84 q 689 46 684 75 l 689 35 l 686 23 l 681 12 l 665 -1 l 644 -7 l 99 -7 l 81 -3 l 68 7 l 58 22 l 56 39 l 56 916 l 58 928 l 64 940 l 80 954 l 100 960 l 644 960 l 656 958 l 670 951 l 680 943 l 686 930 l 689 918 l 688 905 l 684 891 l 675 880 l 663 872 l 650 868 l 148 868 l 148 543 l 442 543 l 456 537 l 469 528 l 477 514 l 480 498 l 477 480 l 469 467 l 456 457 l 442 452 l 148 452 l 148 84 l 648 84 z "},"ē":{"ha":703,"x_min":56,"x_max":648,"o":"m 270 844 l 610 844 l 627 836 l 639 825 l 647 808 l 648 791 l 643 776 l 635 764 l 623 755 l 606 751 l 263 751 l 247 757 l 233 768 l 227 784 l 224 800 l 228 817 l 237 830 l 252 841 l 270 844 m 165 418 l 556 418 l 556 445 l 522 511 l 490 543 l 423 576 l 321 576 l 254 543 l 183 472 l 165 418 m 605 210 q 647 172 636 205 l 647 160 l 644 148 l 635 132 l 547 45 l 453 -3 l 435 -7 l 308 -7 l 293 -4 l 198 45 l 104 138 l 57 279 l 56 372 q 80 452 62 401 q 103 519 98 502 q 156 575 121 540 q 198 617 191 610 l 290 663 l 301 667 l 437 669 l 452 665 l 544 618 l 598 563 l 643 475 l 646 465 l 647 369 l 642 350 l 635 340 l 625 334 l 616 328 l 604 327 l 148 327 l 148 296 l 183 189 l 254 118 l 321 84 l 423 84 l 490 118 l 571 198 l 581 206 l 593 209 l 605 210 z "},"Ĕ":{"ha":743,"x_min":56,"x_max":689,"o":"m 254 1100 q 227 1152 243 1118 q 206 1195 210 1187 l 201 1208 l 201 1222 l 208 1236 l 217 1249 l 229 1256 l 240 1260 l 254 1260 l 266 1256 l 277 1251 l 286 1236 l 323 1165 l 372 1141 l 420 1165 l 457 1237 l 465 1248 l 475 1255 l 494 1260 l 513 1257 l 528 1248 l 538 1232 l 543 1215 l 540 1199 l 490 1101 l 476 1090 l 391 1047 l 370 1043 l 353 1047 l 266 1092 l 254 1100 m 648 84 q 689 46 684 75 l 689 35 l 686 23 l 681 12 l 665 -1 l 644 -7 l 99 -7 l 81 -3 l 68 7 l 58 22 l 56 39 l 56 916 l 58 928 l 64 940 l 80 954 l 100 960 l 644 960 l 656 958 l 670 951 l 680 943 l 686 930 l 689 918 l 688 905 l 684 891 l 675 880 l 663 872 l 650 868 l 148 868 l 148 543 l 442 543 l 456 537 l 469 528 l 477 514 l 480 498 l 477 480 l 469 467 l 456 457 l 442 452 l 148 452 l 148 84 l 648 84 z "},"ĕ":{"ha":703,"x_min":56,"x_max":647,"o":"m 317 808 q 290 861 307 826 q 270 903 274 895 l 266 917 l 266 930 l 271 944 l 281 958 l 293 964 l 304 968 l 317 968 l 330 964 l 340 959 l 350 944 l 387 873 l 437 849 l 484 873 l 521 945 l 529 956 l 538 963 l 557 968 l 576 966 l 591 956 l 602 940 l 606 924 l 604 907 l 555 810 l 540 799 l 454 755 l 435 751 l 416 755 l 330 800 l 317 808 m 165 418 l 556 418 l 556 445 l 522 511 l 490 543 l 423 576 l 321 576 l 254 543 l 183 472 l 165 418 m 605 210 q 647 172 636 205 l 647 160 l 644 148 l 635 132 l 547 45 l 453 -3 l 435 -7 l 308 -7 l 293 -4 l 198 45 l 104 138 l 57 279 l 56 372 q 80 452 62 401 q 103 519 98 502 q 156 575 121 540 q 198 617 191 610 l 290 663 l 301 667 l 437 669 l 452 665 l 544 618 l 598 563 l 643 475 l 646 465 l 647 369 l 642 350 l 635 340 l 625 334 l 616 328 l 604 327 l 148 327 l 148 296 l 183 189 l 254 118 l 321 84 l 423 84 l 490 118 l 571 198 l 581 206 l 593 209 l 605 210 z "},"Ė":{"ha":743,"x_min":56,"x_max":689,"o":"m 416 1145 l 418 1131 l 416 1081 l 412 1066 l 403 1055 l 388 1046 l 369 1043 l 353 1047 l 339 1058 l 331 1067 l 327 1082 l 327 1133 l 331 1150 l 342 1164 l 353 1172 l 365 1176 l 378 1176 l 392 1172 l 401 1165 l 411 1156 l 416 1145 m 648 84 q 689 46 684 75 l 689 35 l 686 23 l 681 12 l 665 -1 l 644 -7 l 99 -7 l 81 -3 l 68 7 l 58 22 l 56 39 l 56 916 l 58 928 l 64 940 l 80 954 l 100 960 l 644 960 l 656 958 l 670 951 l 680 943 l 686 930 l 689 918 l 688 905 l 684 891 l 675 880 l 663 872 l 650 868 l 148 868 l 148 543 l 442 543 l 456 537 l 469 528 l 477 514 l 480 498 l 477 480 l 469 467 l 456 457 l 442 452 l 148 452 l 148 84 l 648 84 z "},"ė":{"ha":703,"x_min":56,"x_max":647,"o":"m 480 853 l 481 838 l 480 789 l 476 774 l 467 764 l 452 754 l 433 751 l 416 755 l 403 766 l 395 776 l 391 791 l 391 841 l 395 859 l 406 872 l 416 880 l 429 884 l 442 884 l 456 880 l 465 873 l 475 864 l 480 853 m 165 418 l 556 418 l 556 445 l 522 511 l 490 543 l 423 576 l 321 576 l 254 543 l 183 472 l 165 418 m 605 210 q 647 172 636 205 l 647 160 l 644 148 l 635 132 l 547 45 l 453 -3 l 435 -7 l 308 -7 l 293 -4 l 198 45 l 104 138 l 57 279 l 56 372 q 80 452 62 401 q 103 519 98 502 q 156 575 121 540 q 198 617 191 610 l 290 663 l 301 667 l 437 669 l 452 665 l 544 618 l 598 563 l 643 475 l 646 465 l 647 369 l 642 350 l 635 340 l 625 334 l 616 328 l 604 327 l 148 327 l 148 296 l 183 189 l 254 118 l 321 84 l 423 84 l 490 118 l 571 198 l 581 206 l 593 209 l 605 210 z "},"Ę":{"ha":758,"x_min":62,"x_max":696,"o":"m 483 -7 q 491 -16 484 -8 q 498 -31 498 -24 l 498 -43 l 495 -56 l 488 -66 l 480 -75 l 472 -81 l 461 -84 l 430 -85 l 414 -102 l 414 -155 l 448 -217 l 562 -294 l 572 -304 l 581 -320 l 581 -338 l 575 -354 l 564 -368 l 553 -373 l 541 -378 l 528 -378 l 517 -373 l 384 -285 l 369 -271 l 328 -183 l 323 -165 l 323 -80 l 326 -65 q 378 -7 334 -56 l 106 -7 l 90 -3 l 75 7 l 65 22 l 62 39 l 62 916 l 65 928 l 71 940 l 88 954 l 107 960 l 651 960 l 663 958 l 677 951 l 686 943 l 693 930 l 696 918 l 694 905 l 690 891 l 682 880 l 671 872 l 656 868 l 155 868 l 155 543 l 449 543 l 463 537 l 476 528 l 484 514 l 487 498 l 484 480 l 476 467 l 463 457 l 449 452 l 155 452 l 155 84 l 655 84 q 696 46 690 75 l 696 35 l 693 23 l 688 12 l 673 -1 l 651 -7 l 483 -7 z "},"ę":{"ha":703,"x_min":56,"x_max":647,"o":"m 422 -7 q 430 -16 423 -8 q 437 -31 437 -24 l 437 -43 l 433 -56 l 427 -66 l 419 -75 l 411 -81 l 400 -84 l 369 -85 l 353 -102 l 353 -155 l 387 -217 l 500 -294 l 511 -304 l 519 -320 l 519 -338 l 514 -354 l 503 -368 l 491 -373 l 480 -378 l 467 -378 l 456 -373 l 323 -285 l 308 -271 l 267 -183 l 262 -165 l 262 -80 l 264 -65 q 316 -7 281 -45 l 308 -7 l 293 -4 l 198 45 l 104 138 l 57 279 l 56 372 q 80 452 62 401 q 103 519 98 502 q 156 575 121 540 q 198 617 191 610 l 290 663 l 301 667 l 437 669 l 452 665 l 544 618 l 598 563 l 643 475 l 646 465 l 647 369 l 642 350 l 635 340 l 625 334 l 616 328 l 604 327 l 148 327 l 148 296 l 183 189 l 254 118 l 321 84 l 423 84 l 490 118 l 571 198 l 581 206 l 593 209 l 605 210 q 647 172 636 205 l 647 160 l 644 148 l 635 132 l 547 45 l 453 -3 l 435 -7 l 422 -7 m 165 418 l 556 418 l 556 445 l 522 511 l 490 543 l 423 576 l 321 576 l 254 543 l 183 472 l 165 418 z "},"Ě":{"ha":743,"x_min":56,"x_max":689,"o":"m 334 1063 l 247 1196 l 243 1207 l 243 1219 l 245 1232 l 252 1242 l 266 1253 l 281 1259 l 297 1259 l 312 1253 l 326 1241 l 372 1171 l 418 1240 l 429 1252 l 442 1259 l 457 1260 l 472 1257 l 484 1251 l 494 1238 l 500 1225 l 502 1211 l 498 1198 l 407 1059 l 391 1047 l 369 1043 l 350 1048 l 334 1063 m 648 84 q 689 46 684 75 l 689 35 l 686 23 l 681 12 l 665 -1 l 644 -7 l 99 -7 l 81 -3 l 68 7 l 58 22 l 56 39 l 56 916 l 58 928 l 64 940 l 80 954 l 100 960 l 644 960 l 656 958 l 670 951 l 680 943 l 686 930 l 689 918 l 688 905 l 684 891 l 675 880 l 663 872 l 650 868 l 148 868 l 148 543 l 442 543 l 456 537 l 469 528 l 477 514 l 480 498 l 477 480 l 469 467 l 456 457 l 442 452 l 148 452 l 148 84 l 648 84 z "},"ě":{"ha":703,"x_min":56,"x_max":647,"o":"m 397 772 l 311 905 l 307 916 l 307 928 l 309 940 l 316 951 l 330 962 l 345 967 l 361 967 l 377 962 l 389 949 l 437 879 l 481 948 l 494 960 l 506 967 l 521 968 l 536 966 l 548 959 l 557 947 l 564 933 l 566 920 l 562 906 l 471 768 l 454 755 l 433 751 l 414 757 l 397 772 m 165 418 l 556 418 l 556 445 l 522 511 l 490 543 l 423 576 l 321 576 l 254 543 l 183 472 l 165 418 m 605 210 q 647 172 636 205 l 647 160 l 644 148 l 635 132 l 547 45 l 453 -3 l 435 -7 l 308 -7 l 293 -4 l 198 45 l 104 138 l 57 279 l 56 372 q 80 452 62 401 q 103 519 98 502 q 156 575 121 540 q 198 617 191 610 l 290 663 l 301 667 l 437 669 l 452 665 l 544 618 l 598 563 l 643 475 l 646 465 l 647 369 l 642 350 l 635 340 l 625 334 l 616 328 l 604 327 l 148 327 l 148 296 l 183 189 l 254 118 l 321 84 l 423 84 l 490 118 l 571 198 l 581 206 l 593 209 l 605 210 z "},"Ĝ":{"ha":827,"x_min":56,"x_max":772,"o":"m 433 1133 l 387 1061 l 372 1047 l 353 1043 l 336 1046 l 320 1054 l 308 1067 l 305 1080 l 305 1092 q 309 1103 307 1096 q 311 1114 311 1109 l 400 1242 l 414 1256 l 433 1260 l 453 1256 l 469 1242 l 556 1114 l 562 1103 l 564 1092 l 562 1081 l 559 1067 l 547 1054 l 530 1046 l 514 1043 l 498 1047 l 480 1061 l 433 1133 m 726 810 l 768 726 l 772 707 l 769 690 l 760 675 l 746 663 l 731 659 l 709 662 l 692 675 q 666 722 681 690 q 647 761 651 754 l 574 834 l 507 868 l 362 868 l 294 834 l 222 761 l 184 688 l 148 574 l 148 380 l 184 266 l 222 191 l 294 118 l 362 84 l 507 84 l 574 118 l 647 191 l 681 258 l 681 327 l 517 327 l 499 331 l 487 338 l 479 347 l 473 358 l 472 370 l 473 384 l 477 395 l 486 406 l 496 412 l 517 418 l 732 418 l 747 412 l 760 403 l 768 389 l 772 373 l 772 245 l 768 229 l 720 136 l 625 42 l 537 -3 l 525 -7 l 351 -7 l 332 -3 l 243 42 l 152 132 l 144 140 l 100 231 l 56 366 l 56 589 l 100 722 l 146 814 l 240 909 l 335 958 l 350 960 l 518 960 l 537 956 l 628 910 l 716 821 l 726 810 z "},"ĝ":{"ha":703,"x_min":56,"x_max":647,"o":"m 456 841 l 408 769 l 392 755 l 374 751 l 358 754 l 342 762 l 331 776 l 328 788 l 326 800 l 328 811 q 419 951 334 821 l 437 964 l 456 968 l 475 964 l 488 951 l 578 822 q 581 810 578 818 q 583 800 583 803 l 583 789 l 578 776 l 570 762 l 553 754 l 536 751 l 517 755 l 503 769 l 456 841 m 556 477 l 490 543 l 423 576 l 321 576 l 254 543 l 183 472 l 148 365 l 148 296 l 183 189 l 254 118 l 321 84 l 423 84 l 490 118 l 556 183 l 556 477 m 556 -38 l 556 53 l 540 41 l 446 -5 l 300 -5 l 289 -3 l 198 45 l 110 132 l 100 149 l 57 281 l 56 372 q 79 447 62 400 q 100 513 95 494 l 110 529 l 197 617 l 294 665 l 308 669 l 445 667 l 540 621 l 556 609 l 556 629 l 562 643 l 571 655 l 585 665 l 601 669 l 618 665 l 633 655 l 643 643 l 647 623 l 647 -50 l 602 -184 l 595 -198 l 543 -248 l 452 -296 l 437 -298 l 298 -297 l 203 -251 l 193 -243 l 186 -232 l 180 -212 l 184 -191 l 198 -175 l 218 -167 l 231 -165 l 243 -168 l 321 -208 l 423 -208 l 490 -174 l 519 -144 l 556 -38 z "},"Ğ":{"ha":827,"x_min":56,"x_max":772,"o":"m 308 1109 l 267 1195 l 264 1208 l 264 1222 l 270 1236 l 278 1249 l 292 1256 l 302 1260 l 316 1260 l 328 1256 l 339 1251 q 363 1205 349 1236 q 384 1165 378 1175 l 433 1141 l 483 1165 l 519 1237 l 528 1248 l 536 1255 l 556 1260 l 575 1257 l 589 1248 l 600 1232 l 605 1215 l 602 1199 l 553 1101 l 538 1090 l 453 1047 l 433 1043 l 414 1047 l 328 1092 l 316 1100 l 308 1109 m 726 810 l 768 726 l 772 707 l 769 690 l 760 675 l 746 663 l 731 659 l 709 662 l 692 675 q 666 722 681 690 q 647 761 651 754 l 574 834 l 507 868 l 362 868 l 294 834 l 222 761 l 184 688 l 148 574 l 148 380 l 184 266 l 222 191 l 294 118 l 362 84 l 507 84 l 574 118 l 647 191 l 681 258 l 681 327 l 517 327 l 499 331 l 487 338 l 479 347 l 473 358 l 472 370 l 473 384 l 477 395 l 486 406 l 496 412 l 517 418 l 732 418 l 747 412 l 760 403 l 768 389 l 772 373 l 772 245 l 768 229 l 720 136 l 625 42 l 537 -3 l 525 -7 l 351 -7 l 332 -3 l 243 42 l 152 132 l 144 140 l 100 231 l 56 366 l 56 589 l 100 722 l 146 814 l 240 909 l 335 958 l 350 960 l 518 960 l 537 956 l 628 910 l 716 821 l 726 810 z "},"ğ":{"ha":703,"x_min":56,"x_max":647,"o":"m 336 808 q 289 903 304 871 l 283 917 l 283 930 l 289 944 l 300 958 l 311 964 l 323 968 l 336 968 l 347 964 l 358 959 l 369 944 l 406 873 l 456 849 l 503 873 l 538 945 l 547 956 l 559 963 l 575 968 l 594 966 l 612 956 l 623 940 l 625 924 l 623 907 l 572 810 l 559 799 l 472 755 l 453 751 l 437 755 l 347 800 l 336 808 m 556 477 l 490 543 l 423 576 l 321 576 l 254 543 l 183 472 l 148 365 l 148 296 l 183 189 l 254 118 l 321 84 l 423 84 l 490 118 l 556 183 l 556 477 m 556 -38 l 556 53 l 540 41 l 446 -5 l 300 -5 l 289 -3 l 198 45 l 110 132 l 100 149 l 57 281 l 56 372 q 79 447 62 400 q 100 513 95 494 l 110 529 l 197 617 l 294 665 l 308 669 l 445 667 l 540 621 l 556 609 l 556 629 l 562 643 l 571 655 l 585 665 l 601 669 l 618 665 l 633 655 l 643 643 l 647 623 l 647 -50 l 602 -184 l 595 -198 l 543 -248 l 452 -296 l 437 -298 l 298 -297 l 203 -251 l 193 -243 l 186 -232 l 180 -212 l 184 -191 l 198 -175 l 218 -167 l 231 -165 l 243 -168 l 321 -208 l 423 -208 l 490 -174 l 519 -144 l 556 -38 z "},"Ġ":{"ha":827,"x_min":56,"x_max":772,"o":"m 477 1145 l 480 1131 l 477 1081 l 475 1066 l 464 1055 l 450 1046 l 430 1043 l 414 1047 l 400 1058 l 392 1067 l 389 1082 l 389 1133 l 392 1150 l 403 1164 l 414 1172 l 427 1176 l 439 1176 l 453 1172 l 464 1165 l 472 1156 l 477 1145 m 726 810 l 768 726 l 772 707 l 769 690 l 760 675 l 746 663 l 731 659 l 709 662 l 692 675 q 666 722 681 690 q 647 761 651 754 l 574 834 l 507 868 l 362 868 l 294 834 l 222 761 l 184 688 l 148 574 l 148 380 l 184 266 l 222 191 l 294 118 l 362 84 l 507 84 l 574 118 l 647 191 l 681 258 l 681 327 l 517 327 l 499 331 l 487 338 l 479 347 l 473 358 l 472 370 l 473 384 l 477 395 l 486 406 l 496 412 l 517 418 l 732 418 l 747 412 l 760 403 l 768 389 l 772 373 l 772 245 l 768 229 l 720 136 l 625 42 l 537 -3 l 525 -7 l 351 -7 l 332 -3 l 243 42 l 152 132 l 144 140 l 100 231 l 56 366 l 56 589 l 100 722 l 146 814 l 240 909 l 335 958 l 350 960 l 518 960 l 537 956 l 628 910 l 716 821 l 726 810 z "},"ġ":{"ha":703,"x_min":56,"x_max":647,"o":"m 500 853 l 500 789 l 495 774 l 486 764 l 469 754 l 453 751 l 437 755 l 422 766 l 414 776 l 408 791 l 408 841 l 414 859 l 425 872 l 437 880 l 448 884 l 461 884 l 475 880 l 495 864 l 500 853 m 556 477 l 490 543 l 423 576 l 321 576 l 254 543 l 183 472 l 148 365 l 148 296 l 183 189 l 254 118 l 321 84 l 423 84 l 490 118 l 556 183 l 556 477 m 556 -38 l 556 53 l 540 41 l 446 -5 l 300 -5 l 289 -3 l 198 45 l 110 132 l 100 149 l 57 281 l 56 372 q 79 447 62 400 q 100 513 95 494 l 110 529 l 197 617 l 294 665 l 308 669 l 445 667 l 540 621 l 556 609 l 556 629 l 562 643 l 571 655 l 585 665 l 601 669 l 618 665 l 633 655 l 643 643 l 647 623 l 647 -50 l 602 -184 l 595 -198 l 543 -248 l 452 -296 l 437 -298 l 298 -297 l 203 -251 l 193 -243 l 186 -232 l 180 -212 l 184 -191 l 198 -175 l 218 -167 l 231 -165 l 243 -168 l 321 -208 l 423 -208 l 490 -174 l 519 -144 l 556 -38 z "},"Ģ":{"ha":827,"x_min":56,"x_max":772,"o":"m 353 -327 l 442 -110 l 456 -98 l 469 -91 l 488 -91 l 506 -96 l 517 -106 l 522 -118 l 525 -133 l 525 -146 l 437 -368 l 422 -381 l 408 -388 l 392 -389 l 374 -384 l 361 -373 l 353 -359 l 350 -343 l 353 -327 m 726 810 l 768 726 l 772 707 l 769 690 l 760 675 l 746 663 l 731 659 l 709 662 l 692 675 q 666 722 681 690 q 647 761 651 754 l 574 834 l 507 868 l 362 868 l 294 834 l 222 761 l 184 688 l 148 574 l 148 380 l 184 266 l 222 191 l 294 118 l 362 84 l 507 84 l 574 118 l 647 191 l 681 258 l 681 327 l 517 327 l 499 331 l 487 338 l 479 347 l 473 358 l 472 370 l 473 384 l 477 395 l 486 406 l 496 412 l 517 418 l 732 418 l 747 412 l 760 403 l 768 389 l 772 373 l 772 245 l 768 229 l 720 136 l 625 42 l 537 -3 l 525 -7 l 351 -7 l 332 -3 l 243 42 l 152 132 l 144 140 l 100 231 l 56 366 l 56 589 l 100 722 l 146 814 l 240 909 l 335 958 l 350 960 l 518 960 l 537 956 l 628 910 l 716 821 l 726 810 z "},"Ĥ":{"ha":785,"x_min":56,"x_max":731,"o":"m 395 1133 l 347 1061 l 331 1047 l 313 1043 l 297 1046 l 281 1054 l 270 1067 l 267 1080 l 264 1092 l 267 1103 q 358 1242 273 1112 l 374 1256 l 395 1260 l 414 1256 l 427 1242 l 517 1114 q 519 1103 518 1109 q 522 1092 521 1096 l 522 1081 l 517 1067 l 509 1054 l 491 1046 l 475 1043 l 456 1047 l 442 1061 l 395 1133 m 731 38 q 689 -7 724 -1 l 675 -5 l 662 -1 l 651 7 l 644 18 l 640 31 l 639 452 l 148 452 l 146 30 l 140 14 l 127 1 l 113 -5 l 96 -7 l 80 -1 l 68 8 l 58 22 l 56 39 l 56 916 l 58 929 l 64 940 l 73 949 l 84 958 l 98 960 l 111 959 l 123 954 l 134 945 l 141 935 l 146 924 l 148 543 l 639 543 l 639 922 q 678 960 647 951 l 690 960 l 701 958 l 711 951 l 726 935 l 731 916 l 731 38 z "},"ĥ":{"ha":661,"x_min":56,"x_max":605,"o":"m 331 1133 l 283 1061 l 269 1047 l 250 1043 l 233 1046 l 217 1054 l 206 1067 l 203 1080 l 201 1092 l 205 1103 l 209 1114 l 296 1242 l 311 1256 l 331 1260 l 350 1256 l 365 1242 l 453 1114 l 457 1103 l 460 1092 l 458 1081 l 454 1067 l 445 1054 l 427 1046 l 411 1043 l 393 1047 l 378 1061 l 331 1133 m 56 39 l 56 917 l 60 933 l 71 947 l 85 958 l 104 960 l 119 956 l 133 947 l 142 935 l 148 920 l 148 567 l 201 620 l 290 663 l 305 669 l 446 667 l 541 621 l 552 613 l 559 602 l 605 460 l 605 37 l 601 20 l 593 8 l 581 -1 l 567 -7 l 551 -5 l 536 0 l 524 9 l 517 23 l 514 39 l 514 449 l 480 548 l 423 576 l 321 576 l 254 543 l 148 437 l 146 30 l 140 14 l 127 1 l 113 -5 l 96 -7 l 80 -1 l 68 8 l 58 22 l 56 39 z "},"Ĩ":{"ha":202,"x_min":-88,"x_max":296,"o":"m 4 1111 l 4 1085 l 1 1073 l -8 1058 l -20 1047 l -39 1043 l -57 1046 l -72 1054 l -83 1067 l -88 1089 l -88 1135 l -83 1152 l -75 1162 l -31 1206 l -20 1213 l -11 1217 l 45 1218 l 62 1213 l 73 1206 l 144 1135 l 189 1135 l 205 1150 l 205 1177 l 210 1195 l 221 1208 l 236 1215 l 254 1218 l 273 1213 l 286 1200 l 294 1183 l 296 1127 l 290 1108 l 283 1099 l 239 1055 l 229 1048 l 220 1044 l 125 1043 l 111 1044 l 95 1055 l 22 1126 l 19 1126 l 4 1111 m 56 39 l 56 917 l 60 933 l 71 947 l 85 958 l 104 960 l 119 956 l 133 945 l 142 933 l 148 917 l 148 37 l 142 19 l 133 5 l 118 -4 l 100 -7 l 83 -3 l 69 7 l 60 20 l 56 39 z "},"ĩ":{"ha":202,"x_min":-88,"x_max":296,"o":"m 4 1111 l 4 1085 l 1 1073 l -8 1058 l -20 1047 l -39 1043 l -57 1046 l -72 1054 l -83 1067 l -88 1089 l -88 1135 l -83 1152 l -75 1162 l -31 1206 l -20 1213 l -11 1217 l 45 1218 l 62 1213 l 73 1206 l 144 1135 l 189 1135 l 205 1150 l 205 1177 l 210 1195 l 221 1208 l 236 1215 l 254 1218 l 273 1213 l 286 1200 l 294 1183 l 296 1127 l 290 1108 l 283 1099 l 239 1055 l 229 1048 l 220 1044 l 125 1043 l 111 1044 l 95 1055 l 22 1126 l 19 1126 l 4 1111 m 56 39 l 56 627 l 61 643 l 72 656 l 88 665 l 106 669 l 121 663 l 134 654 l 142 640 l 148 625 l 148 35 l 141 18 l 132 4 l 117 -4 l 99 -7 l 81 -3 l 68 7 l 58 22 l 56 39 m 57 860 l 56 872 l 57 922 l 61 936 l 71 947 l 85 958 l 104 960 l 121 956 l 134 944 l 142 935 l 148 921 l 148 871 l 142 853 l 132 838 l 121 830 l 109 826 l 96 826 l 81 830 l 72 837 l 62 848 l 57 860 z "},"Ī":{"ha":202,"x_min":-109,"x_max":316,"o":"m -62 1135 l 278 1135 l 294 1127 l 307 1116 l 315 1100 l 316 1082 l 311 1067 l 302 1055 l 290 1047 l 275 1043 l -69 1043 l -84 1048 l -99 1059 l -106 1076 l -109 1092 l -104 1108 l -95 1122 l -79 1133 l -62 1135 m 56 39 l 56 917 l 60 933 l 71 947 l 85 958 l 104 960 l 119 956 l 133 945 l 142 933 l 148 917 l 148 37 l 142 19 l 133 5 l 118 -4 l 100 -7 l 83 -3 l 69 7 l 60 20 l 56 39 z "}}}
